<svg width="24" height="25" viewBox="0 0 24 25" fill="none" xmlns="http://www.w3.org/2000/svg">
<path d="M15 19.3927C15.8329 19.6351 16.7138 19.7651 17.625 19.7651C19.1037 19.7651 20.5025 19.4228 21.7464 18.813C21.7488 18.7556 21.75 18.698 21.75 18.6401C21.75 16.362 19.9031 14.5151 17.625 14.5151C16.2069 14.5151 14.956 15.2307 14.2136 16.3203M15 19.3927V19.3901C15 18.2772 14.7148 17.2309 14.2136 16.3203M15 19.3927C15 19.4283 14.9997 19.4639 14.9991 19.4995C13.1374 20.6204 10.9565 21.2651 8.625 21.2651C6.29353 21.2651 4.11264 20.6204 2.25092 19.4995C2.25031 19.4631 2.25 19.4266 2.25 19.3901C2.25 15.8693 5.10418 13.0151 8.625 13.0151C11.0329 13.0151 13.129 14.3501 14.2136 16.3203M12 6.64014C12 8.5041 10.489 10.0151 8.625 10.0151C6.76104 10.0151 5.25 8.5041 5.25 6.64014C5.25 4.77618 6.76104 3.26514 8.625 3.26514C10.489 3.26514 12 4.77618 12 6.64014ZM20.25 8.89014C20.25 10.3399 19.0747 11.5151 17.625 11.5151C16.1753 11.5151 15 10.3399 15 8.89014C15 7.44039 16.1753 6.26514 17.625 6.26514C19.0747 6.26514 20.25 7.44039 20.25 8.89014Z" stroke="#15343A" stroke-width="1.5" stroke-linecap="round" stroke-linejoin="round"/>
</svg>
