<svg width="20" height="20" viewBox="0 0 20 20" fill="none" xmlns="http://www.w3.org/2000/svg">
<path d="M1.875 13.1211L6.17418 8.82192C6.90641 8.08968 8.09359 8.08969 8.82583 8.82192L13.125 13.1211M11.875 11.8711L13.0492 10.6969C13.7814 9.96469 14.9686 9.96469 15.7008 10.6969L18.125 13.1211M3.125 16.2461H16.875C17.5654 16.2461 18.125 15.6864 18.125 14.9961V4.99609C18.125 4.30574 17.5654 3.74609 16.875 3.74609H3.125C2.43464 3.74609 1.875 4.30574 1.875 4.99609V14.9961C1.875 15.6864 2.43464 16.2461 3.125 16.2461ZM11.875 6.87109H11.8813V6.87734H11.875V6.87109ZM12.1875 6.87109C12.1875 7.04368 12.0476 7.18359 11.875 7.18359C11.7024 7.18359 11.5625 7.04368 11.5625 6.87109C11.5625 6.6985 11.7024 6.55859 11.875 6.55859C12.0476 6.55859 12.1875 6.6985 12.1875 6.87109Z" stroke="#6444F4" stroke-width="1.5" stroke-linecap="round" stroke-linejoin="round"/>
</svg>
