<svg width="14" height="11" viewBox="0 0 14 11" fill="none" xmlns="http://www.w3.org/2000/svg">
<path d="M13.6665 5.50002C13.6665 5.86869 13.3685 6.16669 12.9998 6.16669L2.60916 6.16669L6.1378 9.69534C6.39847 9.956 6.39847 10.3774 6.1378 10.638C6.0078 10.768 5.83715 10.8334 5.66649 10.8334C5.49582 10.8334 5.32517 10.768 5.19517 10.638L0.528508 5.97138C0.267841 5.71071 0.267841 5.28934 0.528508 5.02867L5.19517 0.362004C5.45584 0.101337 5.87714 0.101337 6.1378 0.362004C6.39847 0.622671 6.39847 1.04405 6.1378 1.30471L2.60916 4.83336L12.9998 4.83336C13.3685 4.83336 13.6665 5.13136 13.6665 5.50002Z" fill="#15343A"/>
</svg>
