<svg width="56" height="56" viewBox="0 0 56 56" fill="none" xmlns="http://www.w3.org/2000/svg">
  <g clip-path="url(#clip0_2859_4641)">
    <path
      d="M19.9545 56C18.1288 56 16.3011 55.5856 14.6522 54.6339C14.2448 54.3997 13.9072 54.061 13.6744 53.6528C13.4415 53.2445 13.3219 52.7815 13.3278 52.3115C13.3307 51.8745 13.4519 51.4464 13.6786 51.0728C13.9053 50.6992 14.229 50.394 14.6153 50.1897C15.9464 49.4773 16.443 48.4452 17.1298 47.0177C17.739 45.7492 18.4305 44.3122 19.8401 42.9027C22.3375 40.4052 24.8879 40.7269 26.0013 41.3125C26.3304 41.4882 26.577 41.7863 26.6879 42.1425C26.7987 42.4987 26.7649 42.8842 26.5936 43.2156C26.4224 43.547 26.1276 43.7976 25.7729 43.9132C25.4183 44.0289 25.0324 44.0003 24.6987 43.8335C24.5511 43.7683 23.4159 43.3407 21.8427 44.9091C20.7747 45.9772 20.245 47.0802 19.683 48.2475C18.9707 49.7299 18.2357 51.2586 16.4667 52.3881C20.0208 54.143 24.7252 52.6965 27.1763 50.2455C28.7665 48.6562 28.3115 47.5172 28.2509 47.3924C28.2564 47.4059 28.263 47.4188 28.2708 47.4311L30.7606 46.0689C30.8269 46.19 32.3537 49.0819 29.1827 52.2529C26.9767 54.4618 23.4689 56 19.9545 56Z"
      fill="#FEFDFF" />
    <path
      d="M29.5194 48.1652C29.3331 48.1653 29.1485 48.1287 28.9763 48.0574C28.8041 47.9862 28.6476 47.8817 28.5157 47.7499L24.3354 43.5696C24.08 43.3141 23.9317 42.9709 23.9206 42.6099C23.9095 42.2488 24.0366 41.8972 24.2758 41.6265L44.9741 18.2151C45.5421 17.5647 46.2376 17.038 47.0176 16.6676C47.7975 16.2972 48.6453 16.091 49.5083 16.0618C50.3712 16.0327 51.231 16.1811 52.0342 16.4981C52.8374 16.815 53.5669 17.2935 54.1774 17.9041C54.788 18.5147 55.2666 19.2442 55.5835 20.0474C55.9004 20.8506 56.0489 21.7103 56.0197 22.5733C55.9906 23.4362 55.7844 24.284 55.414 25.064C55.0436 25.8439 54.5168 26.5395 53.8665 27.1074L30.4588 47.8124C30.1995 48.0412 29.8652 48.1667 29.5194 48.1652ZM27.2859 42.5063L29.579 44.7994L51.9906 24.9884C52.3441 24.675 52.6297 24.2925 52.83 23.8646C53.0302 23.4367 53.1408 22.9723 53.1549 22.5001C53.1691 22.0278 53.0865 21.5577 52.9122 21.1186C52.738 20.6794 52.4757 20.2806 52.1416 19.9465C51.8075 19.6125 51.4086 19.3503 50.9694 19.1761C50.5303 19.0019 50.0601 18.9194 49.5879 18.9337C49.1156 18.9479 48.6513 19.0586 48.2234 19.2589C47.7955 19.4593 47.4131 19.745 47.0998 20.0986L27.2859 42.5063Z"
      fill="#FEFDFF" />
    <path
      d="M29.5194 48.1652C29.3331 48.1653 29.1485 48.1287 28.9763 48.0574C28.8041 47.9862 28.6476 47.8817 28.5157 47.7499L24.3354 43.5696C24.08 43.3141 23.9317 42.9709 23.9206 42.6099C23.9095 42.2488 24.0366 41.8972 24.2758 41.6265L44.9741 18.2151C45.5421 17.5647 46.2376 17.038 47.0176 16.6676C47.7975 16.2972 48.6453 16.091 49.5083 16.0618C50.3712 16.0327 51.231 16.1811 52.0342 16.4981C52.8374 16.815 53.5669 17.2935 54.1774 17.9041C54.788 18.5147 55.2666 19.2442 55.5835 20.0474C55.9004 20.8506 56.0489 21.7103 56.0197 22.5733C55.9906 23.4362 55.7844 24.284 55.414 25.064C55.0436 25.8439 54.5168 26.5395 53.8665 27.1074L30.4588 47.8124C30.1995 48.0412 29.8652 48.1667 29.5194 48.1652ZM27.2859 42.5063L29.579 44.7994L51.9906 24.9884C52.3441 24.675 52.6297 24.2925 52.83 23.8646C53.0302 23.4367 53.1408 22.9723 53.1549 22.5001C53.1691 22.0278 53.0865 21.5577 52.9122 21.1186C52.738 20.6794 52.4757 20.2806 52.1416 19.9465C51.8075 19.6125 51.4086 19.3503 50.9694 19.1761C50.5303 19.0019 50.0601 18.9194 49.5879 18.9337C49.1156 18.9479 48.6513 19.0586 48.2234 19.2589C47.7955 19.4593 47.4131 19.745 47.0998 20.0986L27.2859 42.5063Z"
      fill="#FEFDFF" />
    <path
      d="M34.0421 43.281C33.666 43.2809 33.3053 43.1316 33.0393 42.8657L29.0614 38.8878C28.8029 38.6202 28.6599 38.2617 28.6631 37.8897C28.6664 37.5176 28.8156 37.1617 29.0787 36.8986C29.3418 36.6356 29.6977 36.4863 30.0697 36.4831C30.4418 36.4799 30.8002 36.6229 31.0679 36.8814L35.0458 40.8545C35.244 41.053 35.379 41.3059 35.4336 41.581C35.4882 41.8562 35.46 42.1414 35.3526 42.4006C35.2452 42.6598 35.0634 42.8813 34.8301 43.0371C34.5969 43.193 34.3226 43.2762 34.0421 43.2763V43.281Z"
      fill="#FEFDFF" />
    <path
      d="M13.2547 46.661C13.0082 46.6609 12.7661 46.5956 12.5528 46.4718C8.66871 44.2549 5.45379 41.0323 3.24622 37.1429C1.03866 33.2535 -0.079976 28.841 0.00798928 24.3697C0.136644 17.8168 2.81286 11.6801 7.54378 7.09109C12.2264 2.53039 18.5081 -0.0162591 25.0447 -0.00386119C28.0782 -0.000855463 30.9866 1.20561 33.1316 3.35074C35.2765 5.49587 36.4828 8.40439 36.4855 11.4379V22.9157C36.4855 23.292 36.336 23.6529 36.0699 23.919C35.8038 24.1852 35.4429 24.3347 35.0665 24.3347C34.6902 24.3347 34.3293 24.1852 34.0632 23.919C33.797 23.6529 33.6475 23.292 33.6475 22.9157V11.4379C33.6455 9.15742 32.7387 6.9709 31.1262 5.35834C29.5136 3.74578 27.3271 2.83896 25.0466 2.83696C13.0381 2.83696 3.07774 12.5211 2.84503 24.4255C2.76764 28.387 3.75906 32.2962 5.71505 35.7421C7.67104 39.188 10.5193 42.0432 13.9605 44.0075C14.2311 44.1633 14.4429 44.4041 14.5628 44.6925C14.6827 44.9809 14.7041 45.3008 14.6237 45.6026C14.5433 45.9044 14.3656 46.1713 14.118 46.3618C13.8705 46.5523 13.5671 46.6558 13.2547 46.6563V46.661Z"
      fill="#FEFDFF" />
    <path
      d="M19.9649 17.6418C18.9419 17.6418 17.9418 17.3384 17.0911 16.77C16.2405 16.2016 15.5775 15.3938 15.186 14.4486C14.7945 13.5034 14.692 12.4633 14.8916 11.4599C15.0912 10.4565 15.5839 9.53485 16.3073 8.81144C17.0307 8.08802 17.9524 7.59537 18.9558 7.39578C19.9592 7.19619 20.9993 7.29863 21.9444 7.69014C22.8896 8.08165 23.6975 8.74464 24.2659 9.59529C24.8343 10.4459 25.1376 11.446 25.1376 12.4691C25.1361 13.8405 24.5907 15.1553 23.6209 16.1251C22.6512 17.0948 21.3364 17.6403 19.9649 17.6418ZM19.9649 10.1344C19.5032 10.1344 19.0518 10.2713 18.6678 10.5278C18.2839 10.7844 17.9846 11.149 17.8079 11.5756C17.6312 12.0022 17.585 12.4717 17.6751 12.9246C17.7652 13.3775 17.9875 13.7935 18.314 14.12C18.6406 14.4465 19.0566 14.6689 19.5095 14.7589C19.9623 14.849 20.4318 14.8028 20.8584 14.6261C21.285 14.4494 21.6496 14.1501 21.9062 13.7662C22.1627 13.3822 22.2996 12.9308 22.2996 12.4691C22.2984 11.8504 22.052 11.2575 21.6143 10.8202C21.1767 10.383 20.5836 10.137 19.9649 10.1363V10.1344Z"
      fill="#FEFDFF" />
    <path
      d="M11.6714 28.0913C10.3557 28.0911 9.08928 27.5904 8.12903 26.691C7.16879 25.7915 6.58656 24.5605 6.50039 23.2476C6.41423 21.9348 6.83059 20.6382 7.66504 19.621C8.49949 18.6037 9.68957 17.9419 10.994 17.7697C12.2984 17.5975 13.6194 17.9278 14.6893 18.6936C15.7591 19.4595 16.4977 20.6035 16.7552 21.8938C17.0127 23.184 16.7699 24.524 16.076 25.6418C15.3821 26.7597 14.289 27.5718 13.0185 27.9135C12.5791 28.0313 12.1262 28.0911 11.6714 28.0913ZM11.6837 20.583C11.1173 20.5824 10.5701 20.7877 10.144 21.1608C9.71784 21.5338 9.44191 22.0491 9.3676 22.6105C9.29329 23.172 9.42568 23.7413 9.74008 24.2123C10.0545 24.6834 10.5295 25.024 11.0764 25.1708C11.6234 25.3175 12.2051 25.2604 12.7131 25.01C13.2211 24.7595 13.6206 24.333 13.8374 23.8097C14.0541 23.2865 14.0731 22.7023 13.8909 22.166C13.7088 21.6298 13.3378 21.1781 12.8472 20.8951C12.4939 20.6914 12.0934 20.5838 11.6856 20.583H11.6837Z"
      fill="#FEFDFF" />
    <path
      d="M16.5943 40.4875C15.3392 40.4895 14.1262 40.0351 13.1815 39.2088C12.2367 38.3826 11.6246 37.241 11.4594 35.9968C11.2941 34.7526 11.5869 33.4908 12.2832 32.4466C12.9795 31.4023 14.0318 30.647 15.2439 30.3212C16.456 29.9955 17.7452 30.1217 18.8711 30.6762C19.9971 31.2308 20.8829 32.1759 21.3636 33.3353C21.8442 34.4947 21.8868 35.7894 21.4835 36.9779C21.0801 38.1664 20.2583 39.1677 19.1712 39.7951C18.3875 40.2471 17.4991 40.4859 16.5943 40.4875ZM16.5811 32.9801C16.172 32.9813 15.7704 33.09 15.4165 33.2951C15.0626 33.5003 14.7688 33.7948 14.5644 34.1493C14.3601 34.5037 14.2525 34.9055 14.2523 35.3146C14.2521 35.7237 14.3593 36.1257 14.5633 36.4803C14.7682 36.8349 15.0629 37.1292 15.4177 37.3338C15.7724 37.5384 16.1748 37.646 16.5843 37.6458C16.9939 37.6455 17.3961 37.5375 17.7507 37.3325C18.1052 37.1275 18.3995 36.8328 18.6041 36.478C18.8086 36.1232 18.9161 35.7209 18.9158 35.3113C18.9156 34.9018 18.8075 34.4996 18.6025 34.145C18.3974 33.7905 18.1027 33.4962 17.7479 33.2918C17.393 33.0873 16.9906 32.9798 16.5811 32.9801Z"
      fill="#FEFDFF" />
  </g>
  <defs>
    <clipPath id="clip0_2859_4641">
      <rect width="56" height="56" fill="white" />
    </clipPath>
  </defs>
</svg>