<svg width="32" height="32" viewBox="0 0 32 32" fill="none" xmlns="http://www.w3.org/2000/svg">
<g id="2 - Regular / bell">
<path id="bell-Regular" d="M27.2727 20.8619L25.7981 18.4006C25.2701 17.5206 24.9927 16.5139 24.9927 15.4885V11.9859C24.9927 7.03125 20.9581 2.99927 15.9994 2.99927C11.0407 2.99927 7.00606 7.02992 7.00606 11.9859V15.4885C7.00606 16.5139 6.72739 17.5206 6.20072 18.4006L4.72607 20.8619C4.21274 21.7166 4.20073 22.7459 4.6914 23.6125C5.1834 24.4819 6.07272 25.0006 7.07139 25.0006H12.3781C12.3674 25.1126 12.3341 25.2206 12.3341 25.3339C12.3341 27.3566 13.9781 29.0006 16.0007 29.0006C18.0234 29.0006 19.6674 27.3566 19.6674 25.3339C19.6674 25.2206 19.6341 25.1126 19.6234 25.0006H24.9301C25.9287 25.0006 26.8194 24.4819 27.3101 23.6138C27.7994 22.7458 27.7861 21.7166 27.2727 20.8619ZM17.6647 25.3339C17.6647 26.2526 16.9167 27.0006 15.9981 27.0006C15.0794 27.0006 14.3314 26.2526 14.3314 25.3339C14.3314 25.2206 14.3527 25.1099 14.3754 25.0006H17.6207C17.6434 25.1099 17.6647 25.2206 17.6647 25.3339ZM25.5674 22.6272C25.5034 22.7392 25.3154 22.9993 24.9274 22.9993H7.06872C6.68205 22.9993 6.49273 22.7392 6.42873 22.6272C6.36606 22.5152 6.2394 22.2206 6.43806 21.8899L7.91273 19.4286C8.6274 18.238 9.00339 16.8752 9.00339 15.4885V11.9859C9.00339 8.13392 12.1407 4.99927 15.9967 4.99927C19.8527 4.99927 22.9901 8.13392 22.9901 11.9859V15.4885C22.9901 16.8752 23.3674 18.238 24.0807 19.4286L25.5554 21.8899C25.7554 22.2206 25.6301 22.5152 25.5674 22.6272Z" fill="#15343A"/>
</g>
</svg>
