<svg width="24" height="25" viewBox="0 0 24 25" fill="none" xmlns="http://www.w3.org/2000/svg">
<path d="M10.5 6.26514L20.25 6.26514M10.5 6.26514C10.5 7.09356 9.82843 7.76514 9 7.76514C8.17157 7.76514 7.5 7.09356 7.5 6.26514M10.5 6.26514C10.5 5.43671 9.82843 4.76514 9 4.76514C8.17157 4.76514 7.5 5.43671 7.5 6.26514M3.75 6.26514H7.5M10.5 18.2651H20.25M10.5 18.2651C10.5 19.0936 9.82843 19.7651 9 19.7651C8.17157 19.7651 7.5 19.0936 7.5 18.2651M10.5 18.2651C10.5 17.4367 9.82843 16.7651 9 16.7651C8.17157 16.7651 7.5 17.4367 7.5 18.2651M3.75 18.2651L7.5 18.2651M16.5 12.2651L20.25 12.2651M16.5 12.2651C16.5 13.0936 15.8284 13.7651 15 13.7651C14.1716 13.7651 13.5 13.0936 13.5 12.2651M16.5 12.2651C16.5 11.4367 15.8284 10.7651 15 10.7651C14.1716 10.7651 13.5 11.4367 13.5 12.2651M3.75 12.2651H13.5" stroke="#15343A" stroke-width="1.5" stroke-linecap="round" stroke-linejoin="round"/>
</svg>
