<svg width="25" height="24" viewBox="0 0 25 24" fill="none" xmlns="http://www.w3.org/2000/svg">
<path d="M7.41699 3V5.25M17.917 3V5.25M3.66699 18.75V7.5C3.66699 6.25736 4.67435 5.25 5.91699 5.25H19.417C20.6596 5.25 21.667 6.25736 21.667 7.5V18.75M3.66699 18.75C3.66699 19.9926 4.67435 21 5.91699 21H19.417C20.6596 21 21.667 19.9926 21.667 18.75M3.66699 18.75V11.25C3.66699 10.0074 4.67435 9 5.91699 9H19.417C20.6596 9 21.667 10.0074 21.667 11.25V18.75M12.667 12.75H12.6745V12.7575H12.667V12.75ZM12.667 15H12.6745V15.0075H12.667V15ZM12.667 17.25H12.6745V17.2575H12.667V17.25ZM10.417 15H10.4245V15.0075H10.417V15ZM10.417 17.25H10.4245V17.2575H10.417V17.25ZM8.16699 15H8.17449V15.0075H8.16699V15ZM8.16699 17.25H8.17449V17.2575H8.16699V17.25ZM14.917 12.75H14.9245V12.7575H14.917V12.75ZM14.917 15H14.9245V15.0075H14.917V15ZM14.917 17.25H14.9245V17.2575H14.917V17.25ZM17.167 12.75H17.1745V12.7575H17.167V12.75ZM17.167 15H17.1745V15.0075H17.167V15Z" stroke="#15343A" stroke-width="1.5" stroke-linecap="round" stroke-linejoin="round"/>
</svg>
