<svg width="21" height="20" viewBox="0 0 21 20" fill="none" xmlns="http://www.w3.org/2000/svg">
<path d="M14.275 7.89083C14.5192 8.13499 14.5192 8.53086 14.275 8.77502L10.1083 12.9417C9.98667 13.0634 9.82667 13.125 9.66667 13.125C9.50667 13.125 9.34667 13.0642 9.225 12.9417L6.725 10.4417C6.48083 10.1975 6.48083 9.80166 6.725 9.5575C6.96917 9.31333 7.365 9.31333 7.60917 9.5575L9.66751 11.6158L13.3925 7.89083C13.6358 7.6475 14.0308 7.6475 14.275 7.89083ZM18.625 10C18.625 14.48 14.98 18.125 10.5 18.125C6.02 18.125 2.375 14.48 2.375 10C2.375 5.52 6.02 1.875 10.5 1.875C14.98 1.875 18.625 5.52 18.625 10ZM17.375 10C17.375 6.20917 14.2908 3.125 10.5 3.125C6.70917 3.125 3.625 6.20917 3.625 10C3.625 13.7908 6.70917 16.875 10.5 16.875C14.2908 16.875 17.375 13.7908 17.375 10Z" fill="#FEFDFF"/>
</svg>
