<svg width="56" height="56" viewBox="0 0 56 56" fill="none" xmlns="http://www.w3.org/2000/svg">
  <g clip-path="url(#clip0_2859_4380)">
    <path
      d="M48.5866 17.7275C48.2886 17.7279 47.9982 17.6338 47.7569 17.4588L28 3.17315L8.24317 17.4588C8.09216 17.5681 7.92112 17.6464 7.7398 17.6896C7.55849 17.7327 7.37047 17.7396 7.18646 17.7101C6.81485 17.6504 6.48218 17.4455 6.26162 17.1405C6.04107 16.8355 5.9507 16.4554 6.01041 16.0838C6.07011 15.7122 6.27499 15.3795 6.57998 15.1589L27.1684 0.268701C27.4104 0.0937112 27.7014 -0.000488281 28 -0.000488281C28.2987 -0.000488281 28.5897 0.0937112 28.8316 0.268701L49.4201 15.1571C49.6639 15.3327 49.8457 15.5812 49.9392 15.8668C50.0327 16.1524 50.0331 16.4603 49.9404 16.7461C49.8478 17.032 49.6667 17.281 49.4234 17.4574C49.1801 17.6338 48.8871 17.7284 48.5866 17.7275Z"
      fill="#FEFDFF" />
    <path
      d="M51.8259 29.0093H4.17409C3.70105 29.0093 2.54684 28.8201 1.97068 27.0746C1.74079 26.3773 1.61401 25.4663 1.61401 24.5155C1.61401 23.5647 1.74079 22.6545 1.97068 21.9611C2.54684 20.2146 3.70294 20.0254 4.17409 20.0254H51.8259C52.2989 20.0254 53.4531 20.2146 54.0293 21.9611C54.2592 22.6583 54.386 23.5694 54.386 24.5155C54.386 25.4615 54.2592 26.3773 54.0293 27.0746C53.4531 28.821 52.297 29.0093 51.8259 29.0093ZM4.65091 26.1711H51.3491C51.6045 25.4038 51.6045 23.628 51.3491 22.8598H4.65091C4.39925 23.628 4.39925 25.4038 4.65091 26.1711Z"
      fill="#FEFDFF" />
    <path
      d="M53.4399 55.9999H2.56008C2.08704 55.9999 0.932828 55.8107 0.35667 54.0642C0.126774 53.367 0 52.4559 0 51.5098C0 50.5638 0.126774 49.6489 0.35667 48.9554C0.932828 47.208 2.08988 47.0198 2.56008 47.0198H53.4399C53.913 47.0198 55.0672 47.209 55.6433 48.9554C55.8732 49.6527 56 50.5638 56 51.5098C56 52.4559 55.8732 53.3708 55.6433 54.0642C55.0672 55.8116 53.9101 55.9999 53.4399 55.9999ZM3.0369 53.1617H52.9631C53.2185 52.3935 53.2185 50.6186 52.9631 49.8504H3.0369C2.78146 50.6186 2.78146 52.3935 3.0369 53.1617Z"
      fill="#FEFDFF" />
    <path
      d="M28.0001 17.7272C27.0177 17.7272 26.0574 17.4359 25.2406 16.8902C24.4238 16.3444 23.7872 15.5687 23.4113 14.6611C23.0354 13.7535 22.937 12.7548 23.1286 11.7914C23.3203 10.8279 23.7933 9.94286 24.488 9.24823C25.1826 8.55359 26.0676 8.08055 27.0311 7.8889C27.9946 7.69725 28.9933 7.79561 29.9008 8.17154C30.8084 8.54747 31.5841 9.18409 32.1299 10.0009C32.6757 10.8177 32.967 11.778 32.967 12.7603C32.9655 14.0772 32.4417 15.3397 31.5105 16.2708C30.5794 17.2019 29.3169 17.7257 28.0001 17.7272ZM28.0001 10.6317C27.5791 10.6317 27.1675 10.7565 26.8175 10.9904C26.4674 11.2243 26.1946 11.5568 26.0335 11.9457C25.8723 12.3347 25.8302 12.7627 25.9123 13.1756C25.9945 13.5885 26.1972 13.9678 26.4949 14.2655C26.7926 14.5632 27.1719 14.766 27.5848 14.8481C27.9977 14.9302 28.4257 14.8881 28.8147 14.727C29.2037 14.5659 29.5361 14.293 29.77 13.943C30.0039 13.5929 30.1288 13.1814 30.1288 12.7603C30.128 12.196 29.9035 11.655 29.5045 11.256C29.1054 10.8569 28.5644 10.6324 28.0001 10.6317Z"
      fill="#FEFDFF" />
    <path
      d="M15.405 49.8505H6.05878C5.6824 49.8505 5.32145 49.701 5.05531 49.4349C4.78918 49.1687 4.63966 48.8078 4.63966 48.4314V46.6338C4.6381 46.0745 4.74751 45.5205 4.96155 45.0037C5.17558 44.487 5.49 44.0178 5.88659 43.6234L6.31138 43.1987V32.8249L5.88659 32.4002C5.49 32.0058 5.17558 31.5366 4.96155 31.0199C4.74751 30.5031 4.6381 29.9491 4.63966 29.3897V27.5922C4.63966 27.2158 4.78918 26.8549 5.05531 26.5887C5.32145 26.3226 5.6824 26.1731 6.05878 26.1731C6.43515 26.1731 6.7961 26.3226 7.06224 26.5887C7.32837 26.8549 7.47789 27.2158 7.47789 27.5922V29.3897C7.47749 29.5762 7.51399 29.7609 7.58527 29.9331C7.65655 30.1054 7.7612 30.2619 7.89321 30.3935L8.73333 31.2336C8.99954 31.4995 9.14927 31.8602 9.1496 32.2365V43.7852C9.14956 43.9717 9.11277 44.1563 9.04135 44.3285C8.96992 44.5008 8.86525 44.6572 8.73333 44.789L7.89321 45.6291C7.76108 45.7607 7.65634 45.9171 7.58505 46.0894C7.51376 46.2617 7.47733 46.4464 7.47789 46.6329V47.0113H13.9859V46.6329C13.9865 46.4464 13.9501 46.2617 13.8788 46.0894C13.8075 45.9171 13.7027 45.7607 13.5706 45.6291L12.7305 44.7852C12.5987 44.6534 12.4942 44.4969 12.423 44.3246C12.3517 44.1524 12.3151 43.9678 12.3152 43.7814V32.2365C12.3152 31.8601 12.4647 31.4992 12.7308 31.233C12.9969 30.9669 13.3579 30.8174 13.7343 30.8174C14.1106 30.8174 14.4716 30.9669 14.7377 31.233C15.0039 31.4992 15.1534 31.8601 15.1534 32.2365V43.1977L15.5772 43.6225C15.9738 44.0169 16.2882 44.486 16.5023 45.0028C16.7163 45.5195 16.8257 46.0736 16.8241 46.6329V48.4304C16.8243 48.6169 16.7877 48.8015 16.7164 48.9738C16.6451 49.1461 16.5406 49.3026 16.4088 49.4345C16.277 49.5664 16.1206 49.671 15.9483 49.7424C15.7761 49.8138 15.5915 49.8505 15.405 49.8505Z"
      fill="#FEFDFF" />
    <path
      d="M49.9414 49.8505H40.5952C40.2188 49.8505 39.8578 49.701 39.5917 49.4349C39.3256 49.1687 39.176 48.8078 39.176 48.4314V46.6338C39.1744 46.0745 39.2838 45.5204 39.4979 45.0037C39.7119 44.4869 40.0263 44.0178 40.423 43.6234L40.8478 43.1987V32.8249L40.423 32.4002C40.0264 32.0058 39.712 31.5366 39.4979 31.0199C39.2839 30.5031 39.1745 29.9491 39.176 29.3897V27.5922C39.176 27.4058 39.2128 27.2213 39.2841 27.0491C39.3554 26.877 39.4599 26.7205 39.5917 26.5887C39.7235 26.457 39.8799 26.3524 40.0521 26.2811C40.2243 26.2098 40.4088 26.1731 40.5952 26.1731C40.7815 26.1731 40.9661 26.2098 41.1382 26.2811C41.3104 26.3524 41.4668 26.457 41.5986 26.5887C41.7304 26.7205 41.8349 26.877 41.9062 27.0491C41.9776 27.2213 42.0143 27.4058 42.0143 27.5922V29.3897C42.0141 29.5763 42.0508 29.7611 42.1224 29.9334C42.1941 30.1057 42.2991 30.2621 42.4315 30.3935L43.2716 31.2327C43.4035 31.3645 43.5082 31.5209 43.5796 31.6932C43.651 31.8654 43.6878 32.05 43.6879 32.2365V43.7852C43.6878 43.9717 43.651 44.1563 43.5796 44.3285C43.5082 44.5008 43.4035 44.6572 43.2716 44.789L42.4315 45.6291C42.2993 45.7607 42.1946 45.9171 42.1233 46.0894C42.052 46.2617 42.0156 46.4464 42.0162 46.6329V47.0113H48.5242V46.6329C48.5246 46.4464 48.4881 46.2616 48.4166 46.0893C48.3451 45.917 48.2402 45.7606 48.1079 45.6291L47.2669 44.7852C47.1349 44.6535 47.0303 44.497 46.9588 44.3247C46.8874 44.1525 46.8506 43.9679 46.8506 43.7814V32.2365C46.8506 31.8601 47.0001 31.4992 47.2662 31.233C47.5324 30.9669 47.8933 30.8174 48.2697 30.8174C48.6461 30.8174 49.007 30.9669 49.2732 31.233C49.5393 31.4992 49.6888 31.8601 49.6888 32.2365V43.1977L50.1136 43.6225C50.5102 44.0169 50.8247 44.486 51.0387 45.0027C51.2528 45.5195 51.3621 46.0736 51.3605 46.6329V48.4304C51.3607 48.6169 51.324 48.8015 51.2528 48.9738C51.1815 49.1461 51.077 49.3026 50.9452 49.4345C50.8134 49.5664 50.6569 49.671 50.4847 49.7424C50.3125 49.8138 50.1279 49.8505 49.9414 49.8505Z"
      fill="#FEFDFF" />
    <path
      d="M32.6736 49.8505H23.3264C22.95 49.8505 22.589 49.701 22.3229 49.4349C22.0568 49.1687 21.9072 48.8078 21.9072 48.4314V46.6338C21.9057 46.0745 22.0151 45.5205 22.2291 45.0037C22.4432 44.487 22.7576 44.0178 23.1542 43.6234L23.579 43.1987V32.8249L23.1542 32.4002C22.7576 32.0058 22.4432 31.5366 22.2291 31.0199C22.0151 30.5031 21.9057 29.9491 21.9072 29.3897V27.5922C21.9072 27.2158 22.0568 26.8549 22.3229 26.5887C22.589 26.3226 22.95 26.1731 23.3264 26.1731C23.7027 26.1731 24.0637 26.3226 24.3298 26.5887C24.5959 26.8549 24.7455 27.2158 24.7455 27.5922V29.3897C24.745 29.5763 24.7816 29.761 24.8531 29.9333C24.9245 30.1056 25.0294 30.2621 25.1617 30.3935L26.0018 31.2336C26.2677 31.4997 26.4171 31.8604 26.4172 32.2365V43.7852C26.4163 44.1603 26.267 44.5199 26.0018 44.7852L25.1617 45.6253C25.0293 45.7567 24.9243 45.9131 24.8528 46.0854C24.7814 46.2578 24.7449 46.4426 24.7455 46.6291V47.0075H31.2544V46.6291C31.255 46.4426 31.2185 46.2578 31.1471 46.0854C31.0756 45.9131 30.9706 45.7567 30.8382 45.6253L29.9981 44.7852C29.8663 44.6534 29.7618 44.4969 29.6905 44.3246C29.6193 44.1524 29.5827 43.9678 29.5827 43.7814V32.2365C29.5827 31.8601 29.7322 31.4992 29.9984 31.233C30.2645 30.9669 30.6255 30.8174 31.0018 30.8174C31.3782 30.8174 31.7392 30.9669 32.0053 31.233C32.2714 31.4992 32.421 31.8601 32.421 32.2365V43.1977L32.8457 43.6225C33.2423 44.0169 33.5567 44.486 33.7708 45.0028C33.9848 45.5195 34.0942 46.0736 34.0927 46.6329V48.4304C34.0928 48.6169 34.0562 48.8015 33.9849 48.9738C33.9137 49.1461 33.8091 49.3026 33.6774 49.4345C33.5456 49.5664 33.3891 49.671 33.2168 49.7424C33.0446 49.8138 32.86 49.8505 32.6736 49.8505Z"
      fill="#FEFDFF" />
  </g>
  <defs>
    <clipPath id="clip0_2859_4380">
      <rect width="56" height="56" fill="white" />
    </clipPath>
  </defs>
</svg>