<svg width="40" height="40" viewBox="0 0 40 40" fill="none" xmlns="http://www.w3.org/2000/svg">
<path d="M27.5 13.75V10C27.5 7.92893 25.8211 6.25 23.75 6.25H10C7.92893 6.25 6.25 7.92893 6.25 10V23.75C6.25 25.8211 7.92893 27.5 10 27.5H13.75M27.5 13.75H30C32.0711 13.75 33.75 15.4289 33.75 17.5V30C33.75 32.0711 32.0711 33.75 30 33.75H17.5C15.4289 33.75 13.75 32.0711 13.75 30V27.5M27.5 13.75H17.5C15.4289 13.75 13.75 15.4289 13.75 17.5V27.5" stroke="#6444F4" stroke-width="1.5" stroke-linecap="round" stroke-linejoin="round"/>
</svg>
