<svg xmlns="http://www.w3.org/2000/svg" width="20" height="20" viewBox="0 0 20 20" fill="none">
  <path d="M6.25 2.8125C6.25 1.94955 6.94956 1.25 7.8125 1.25H8.125C9.85089 1.25 11.25 2.64911 11.25 4.375V5.9375C11.25 6.80045 11.9496 7.5 12.8125 7.5H14.375C16.1009 7.5 17.5 8.89911 17.5 10.625V13.4375C17.5 14.3004 16.8004 15 15.9375 15H7.8125C6.94955 15 6.25 14.3004 6.25 13.4375V2.8125Z" fill="#15343A"/>
  <path d="M12.5 4.375C12.5 3.28079 12.0983 2.2804 11.4343 1.51325C14.2668 2.25315 16.4969 4.48323 17.2367 7.31567C16.4696 6.6517 15.4692 6.25 14.375 6.25H12.8125C12.6399 6.25 12.5 6.11009 12.5 5.9375V4.375Z" fill="#15343A"/>
  <path d="M4.0625 5H5V13.4375C5 14.9908 6.2592 16.25 7.8125 16.25H13.75V17.1875C13.75 18.0504 13.0504 18.75 12.1875 18.75H4.0625C3.19956 18.75 2.5 18.0504 2.5 17.1875V6.5625C2.5 5.69955 3.19956 5 4.0625 5Z" fill="#15343A"/>
</svg>