<svg xmlns="http://www.w3.org/2000/svg" width="20" height="20" viewBox="0 0 20 20" fill="none">
  <path d="M9.16699 16.2498H13.917C13.4253 17.4748 12.2337 18.3332 10.8337 18.3332H5.00033C3.15866 18.3332 1.66699 16.8415 1.66699 14.9998V8.33317C1.66699 6.63317 2.94199 5.2332 4.58366 5.02486V11.6665C4.58366 14.1915 6.64199 16.2498 9.16699 16.2498ZM16.2503 5.20817H18.017C17.967 5.13317 17.9086 5.0665 17.842 4.99984L15.0003 2.15824C14.9337 2.09158 14.867 2.03308 14.792 1.99141V3.74984C14.792 4.54984 15.4503 5.20817 16.2503 5.20817ZM16.2503 6.45817C14.7587 6.45817 13.542 5.2415 13.542 3.74984V1.6665H9.16699C7.32533 1.6665 5.83366 3.15817 5.83366 4.99984V11.6665C5.83366 13.5082 7.32533 14.9998 9.16699 14.9998H15.0003C16.842 14.9998 18.3337 13.5082 18.3337 11.6665V6.45817H16.2503Z" fill="#FEFDFF"/>
</svg>