<svg width="70" height="88" viewBox="0 0 70 88" fill="none" xmlns="http://www.w3.org/2000/svg">
<path fill-rule="evenodd" clip-rule="evenodd" d="M8.4375 0.25C4.12278 0.25 0.625 3.74777 0.625 8.0625V79.9375C0.625 84.2522 4.12277 87.75 8.4375 87.75H61.5625C65.8772 87.75 69.375 84.2522 69.375 79.9375V47.125C69.375 38.4955 62.3794 31.5 53.75 31.5H45.9375C41.6228 31.5 38.125 28.0022 38.125 23.6875V15.875C38.125 7.24555 31.1294 0.25 22.5 0.25H8.4375ZM16.25 56.5C16.25 54.7741 17.6491 53.375 19.375 53.375H50.625C52.3509 53.375 53.75 54.7741 53.75 56.5C53.75 58.2259 52.3509 59.625 50.625 59.625H19.375C17.6491 59.625 16.25 58.2259 16.25 56.5ZM19.375 65.875C17.6491 65.875 16.25 67.2741 16.25 69C16.25 70.7259 17.6491 72.125 19.375 72.125H35C36.7259 72.125 38.125 70.7259 38.125 69C38.125 67.2741 36.7259 65.875 35 65.875H19.375Z" fill="#6444F4"/>
<path d="M39.0466 1.56627C42.3665 5.40199 44.375 10.4039 44.375 15.875V23.6875C44.375 24.5504 45.0746 25.25 45.9375 25.25H53.75C59.2211 25.25 64.223 27.2585 68.0587 30.5784C64.3593 16.4162 53.2089 5.26573 39.0466 1.56627Z" fill="#6444F4"/>
</svg>
