<svg width="40" height="40" viewBox="0 0 40 40" fill="none" xmlns="http://www.w3.org/2000/svg">
<path d="M0 8C0 3.58172 3.58172 0 8 0H32C36.4183 0 40 3.58172 40 8V32C40 36.4183 36.4183 40 32 40H8C3.58172 40 0 36.4183 0 32V8Z" fill="#6444F4"/>
<path d="M29.7312 10.2688C28.706 9.24372 27.044 9.24372 26.0189 10.2688L24.8617 11.426L28.574 15.1383L29.7312 13.9812C30.7563 12.956 30.7563 11.294 29.7312 10.2688Z" fill="#FEFDFF"/>
<path d="M27.5134 16.199L23.801 12.4867L11.6502 24.6375C11.0334 25.2543 10.58 26.015 10.331 26.851L9.53123 29.5359C9.45261 29.7998 9.52496 30.0856 9.71969 30.2803C9.91442 30.4751 10.2002 30.5474 10.4641 30.4688L13.149 29.669C13.985 29.42 14.7457 28.9666 15.3625 28.3498L27.5134 16.199Z" fill="#FEFDFF"/>
</svg>
