<svg xmlns="http://www.w3.org/2000/svg" width="24" height="24" viewBox="0 0 24 24" fill="none">
<path d="M11.9118 6.33008L17.6719 12.0901L9.77189 20C9.40189 20.37 8.93185 20.61 8.42185 20.7L3.68186 21.49C3.62186 21.5 3.57188 21.5 3.51188 21.5C3.25188 21.5 2.99186 21.39 2.80186 21.2C2.57186 20.97 2.46188 20.6401 2.51188 20.3201L3.30186 15.5801C3.39186 15.0701 3.63187 14.6 4.00187 14.23L11.9118 6.33008ZM20.3019 3.69995C19.5319 2.91995 18.5119 2.5 17.4219 2.5C16.3319 2.5 15.3118 2.91995 14.5418 3.69995L13.3319 4.90991L19.0919 10.6699L20.3019 9.45996C21.0819 8.68996 21.5019 7.67008 21.5019 6.58008C21.5019 5.49008 21.0819 4.46995 20.3019 3.69995Z" fill="#6444F4"/>
</svg>