<svg width="150" height="150" viewBox="0 0 150 150" fill="none" xmlns="http://www.w3.org/2000/svg">
<path d="M75 0C33.645 0 0 33.645 0 75C0 116.355 33.645 150 75 150C116.355 150 150 116.355 150 75C150 33.645 116.355 0 75 0ZM75 135C41.9175 135 15 108.082 15 75C15 41.9175 41.9175 15 75 15C108.082 15 135 41.9175 135 75C135 108.082 108.082 135 75 135ZM82.5 105C82.5 109.14 79.14 112.5 75 112.5C70.86 112.5 67.5 109.14 67.5 105C67.5 100.86 70.86 97.5 75 97.5C79.14 97.5 82.5 100.86 82.5 105ZM82.5 45V75C82.5 79.1475 79.14 82.5 75 82.5C70.86 82.5 67.5 79.1475 67.5 75V45C67.5 40.8525 70.86 37.5 75 37.5C79.14 37.5 82.5 40.8525 82.5 45Z" fill="#CEC3FF"/>
</svg>
