<svg width="24" height="25" viewBox="0 0 24 25" fill="none" xmlns="http://www.w3.org/2000/svg">
<path d="M3.375 20H20.625M3.375 20C2.75368 20 2.25 19.4963 2.25 18.875M3.375 20H4.875C5.49632 20 6 19.4963 6 18.875M2.25 18.875V6.125M2.25 18.875V17.375C2.25 16.7537 2.75368 16.25 3.375 16.25M21.75 18.875V6.125M21.75 18.875C21.75 19.4963 21.2463 20 20.625 20M21.75 18.875V17.375C21.75 16.7537 21.2463 16.25 20.625 16.25M20.625 20H19.125C18.5037 20 18 19.4963 18 18.875M20.625 5H3.375M20.625 5C21.2463 5 21.75 5.50368 21.75 6.125M20.625 5H19.125C18.5037 5 18 5.50368 18 6.125M21.75 6.125V7.625C21.75 8.24632 21.2463 8.75 20.625 8.75M3.375 5C2.75368 5 2.25 5.50368 2.25 6.125M3.375 5H4.875C5.49632 5 6 5.50368 6 6.125M2.25 6.125V7.625C2.25 8.24632 2.75368 8.75 3.375 8.75M3.375 8.75H4.875M3.375 8.75C2.75368 8.75 2.25 9.25368 2.25 9.875V11.375C2.25 11.9963 2.75368 12.5 3.375 12.5M4.875 8.75C5.49632 8.75 6 8.24632 6 7.625V6.125M4.875 8.75C5.49632 8.75 6 9.25368 6 9.875V11.375M6 6.125V11.375M6 6.125C6 5.50368 6.50368 5 7.125 5H16.875C17.4963 5 18 5.50368 18 6.125M19.125 8.75H20.625M19.125 8.75C18.5037 8.75 18 8.24632 18 7.625V6.125M19.125 8.75C18.5037 8.75 18 9.25368 18 9.875V11.375M20.625 8.75C21.2463 8.75 21.75 9.25368 21.75 9.875V11.375C21.75 11.9963 21.2463 12.5 20.625 12.5M18 6.125V11.375M7.125 12.5H16.875M7.125 12.5C6.50368 12.5 6 11.9963 6 11.375M7.125 12.5C6.50368 12.5 6 13.0037 6 13.625M6 11.375C6 11.9963 5.49632 12.5 4.875 12.5M18 11.375C18 11.9963 17.4963 12.5 16.875 12.5M18 11.375C18 11.9963 18.5037 12.5 19.125 12.5M16.875 12.5C17.4963 12.5 18 13.0037 18 13.625M6 18.875V13.625M6 18.875C6 19.4963 6.50368 20 7.125 20H16.875C17.4963 20 18 19.4963 18 18.875M6 18.875V17.375C6 16.7537 5.49632 16.25 4.875 16.25M18 18.875V13.625M18 18.875V17.375C18 16.7537 18.5037 16.25 19.125 16.25M18 13.625V15.125C18 15.7463 18.5037 16.25 19.125 16.25M18 13.625C18 13.0037 18.5037 12.5 19.125 12.5M6 13.625V15.125C6 15.7463 5.49632 16.25 4.875 16.25M6 13.625C6 13.0037 5.49632 12.5 4.875 12.5M3.375 12.5H4.875M3.375 12.5C2.75368 12.5 2.25 13.0037 2.25 13.625V15.125C2.25 15.7463 2.75368 16.25 3.375 16.25M19.125 12.5H20.625M20.625 12.5C21.2463 12.5 21.75 13.0037 21.75 13.625V15.125C21.75 15.7463 21.2463 16.25 20.625 16.25M3.375 16.25H4.875M19.125 16.25H20.625" stroke="#475569" stroke-width="1.5" stroke-linecap="round" stroke-linejoin="round"/>
</svg>
