<svg xmlns="http://www.w3.org/2000/svg" width="36" height="36" viewBox="0 0 36 36" fill="none">
  <path d="M23.4778 17.4375L14.4778 1.68751C14.3787 1.51583 14.236 1.37339 14.0641 1.27461C13.8922 1.17583 13.6973 1.12422 13.4991 1.12501H6.74908C6.55275 1.12619 6.36015 1.17874 6.19042 1.27742C6.02069 1.3761 5.87974 1.51748 5.78158 1.68751C5.68284 1.85853 5.63086 2.05253 5.63086 2.25001C5.63086 2.44749 5.68284 2.64149 5.78158 2.81251L14.7816 18.5625C14.8797 18.7325 15.0207 18.8739 15.1904 18.9726C15.3602 19.0713 15.5528 19.1238 15.7491 19.125H22.4991C22.6954 19.1238 22.888 19.0713 23.0577 18.9726C23.2275 18.8739 23.3684 18.7325 23.4666 18.5625C23.567 18.3925 23.621 18.199 23.6229 18.0015C23.6249 17.804 23.5749 17.6095 23.4778 17.4375Z" fill="#FF4755"/>
  <path d="M17.0203 18.5625L8.02033 2.81251C7.92159 2.64149 7.86961 2.44749 7.86961 2.25001C7.86961 2.05253 7.92159 1.85853 8.02033 1.68751C8.11945 1.51583 8.26217 1.37339 8.43405 1.27461C8.60592 1.17583 8.80084 1.12422 8.99908 1.12501H6.74908C6.55275 1.12619 6.36015 1.17874 6.19042 1.27742C6.02069 1.3761 5.87974 1.51748 5.78158 1.68751C5.68284 1.85853 5.63086 2.05253 5.63086 2.25001C5.63086 2.44749 5.68284 2.64149 5.78158 2.81251L14.7816 18.5625C14.8797 18.7325 15.0207 18.8739 15.1904 18.9726C15.3602 19.0713 15.5528 19.1238 15.7491 19.125H17.9991C17.8008 19.1258 17.6059 19.0742 17.434 18.9754C17.2622 18.8766 17.1194 18.7342 17.0203 18.5625Z" fill="#FC2B3A"/>
  <path d="M30.2181 1.68751C30.1199 1.51748 29.979 1.3761 29.8092 1.27742C29.6395 1.17874 29.4469 1.12619 29.2506 1.12501H22.5006C22.3023 1.12422 22.1074 1.17583 21.9355 1.27461C21.7637 1.37339 21.6209 1.51583 21.5218 1.68751L12.5218 17.4375C12.4231 17.6085 12.3711 17.8025 12.3711 18C12.3711 18.1975 12.4231 18.3915 12.5218 18.5625C12.6209 18.7342 12.7637 18.8766 12.9355 18.9754C13.1074 19.0742 13.3023 19.1258 13.5006 19.125H20.2506C20.4488 19.1258 20.6437 19.0742 20.8156 18.9754C20.9875 18.8766 21.1302 18.7342 21.2293 18.5625L30.2293 2.81251C30.3264 2.6405 30.3764 2.44598 30.3744 2.2485C30.3724 2.05102 30.3185 1.85754 30.2181 1.68751Z" fill="#FF4755"/>
  <path d="M14.7831 18.5625C14.6843 18.3915 14.6323 18.1975 14.6323 18C14.6323 17.8025 14.6843 17.6085 14.7831 17.4375L23.7831 1.68751C23.8812 1.51748 24.0222 1.3761 24.1919 1.27742C24.3616 1.17874 24.5542 1.12619 24.7506 1.12501H22.5006C22.3023 1.12422 22.1074 1.17583 21.9355 1.27461C21.7637 1.37339 21.6209 1.51583 21.5218 1.68751L12.5218 17.4375C12.4231 17.6085 12.3711 17.8025 12.3711 18C12.3711 18.1975 12.4231 18.3915 12.5218 18.5625C12.6209 18.7342 12.7637 18.8766 12.9355 18.9754C13.1074 19.0742 13.3023 19.1258 13.5006 19.125H15.7506C15.5542 19.1238 15.3616 19.0713 15.1919 18.9726C15.0222 18.8739 14.8812 18.7325 14.7831 18.5625Z" fill="#FC2B3A"/>
  <path d="M18 34.875C24.8345 34.875 30.375 29.3345 30.375 22.5C30.375 15.6655 24.8345 10.125 18 10.125C11.1655 10.125 5.625 15.6655 5.625 22.5C5.625 29.3345 11.1655 34.875 18 34.875Z" fill="#FFCB5B"/>
  <path d="M7.87422 24.7502C7.87927 22.4423 8.5296 20.1818 9.75174 18.2241C10.9739 16.2664 12.7191 14.6894 14.7903 13.6714C16.8616 12.6533 19.1762 12.2347 21.4728 12.4629C23.7693 12.6911 25.9563 13.557 27.7867 14.9627C26.7229 13.5443 25.3668 12.3711 23.8101 11.5224C22.2534 10.6738 20.5325 10.1695 18.764 10.0438C16.9954 9.91814 15.2205 10.1739 13.5595 10.7939C11.8984 11.4139 10.39 12.3836 9.13627 13.6373C7.88258 14.8909 6.91292 16.3994 6.29294 18.0605C5.67297 19.7215 5.41717 21.4964 5.54285 23.2649C5.66854 25.0335 6.17278 26.7544 7.02143 28.311C7.87008 29.8677 9.04333 31.2239 10.4617 32.2877C8.78408 30.1334 7.87347 27.4807 7.87422 24.7502Z" fill="#F7B737"/>
  <path d="M19.6879 25.8751H19.1254V18.0001C19.1262 17.8018 19.0746 17.6069 18.9758 17.435C18.8771 17.2632 18.7346 17.1204 18.5629 17.0213C18.3919 16.9226 18.1979 16.8706 18.0004 16.8706C17.803 16.8706 17.609 16.9226 17.4379 17.0213L15.7504 18.0001C15.4931 18.1485 15.3049 18.3926 15.227 18.6793C15.149 18.9659 15.1875 19.2718 15.3342 19.5301C15.4077 19.659 15.506 19.7721 15.6234 19.8629C15.7407 19.9536 15.8749 20.0203 16.0182 20.059C16.1614 20.0977 16.3109 20.1076 16.4581 20.0883C16.6052 20.069 16.747 20.0207 16.8754 19.9463V25.8751H16.3129C16.0146 25.8751 15.7284 25.9936 15.5175 26.2046C15.3065 26.4156 15.1879 26.7017 15.1879 27.0001C15.1879 27.2984 15.3065 27.5846 15.5175 27.7956C15.7284 28.0066 16.0146 28.1251 16.3129 28.1251H19.6879C19.9863 28.1251 20.2725 28.0066 20.4834 27.7956C20.6944 27.5846 20.8129 27.2984 20.8129 27.0001C20.8129 26.7017 20.6944 26.4156 20.4834 26.2046C20.2725 25.9936 19.9863 25.8751 19.6879 25.8751Z" fill="#FFF5F5"/>
</svg>