<svg width="180" height="68" viewBox="0 0 180 68" fill="none" xmlns="http://www.w3.org/2000/svg">
    <g clip-path="url(#clip0_2739_1893)">
        <path
                d="M2.8252 43.3837C1.93905 43.3837 1.25429 43.142 0.770934 42.6586C0.287577 42.1551 0.0458984 41.4502 0.0458984 40.544V24.3817C0.0458984 23.4553 0.287577 22.7504 0.770934 22.267C1.25429 21.7837 1.93905 21.542 2.8252 21.542C3.73149 21.542 4.41625 21.7837 4.87947 22.267C5.36282 22.7504 5.6045 23.4553 5.6045 24.3817V30.0309H14.3955V24.3817C14.3955 23.4553 14.6272 22.7504 15.0904 22.267C15.5737 21.7837 16.2686 21.542 17.1749 21.542C18.061 21.542 18.7357 21.7837 19.1989 22.267C19.6823 22.7504 19.9239 23.4553 19.9239 24.3817V40.544C19.9239 41.4502 19.6823 42.1551 19.1989 42.6586C18.7357 43.142 18.061 43.3837 17.1749 43.3837C16.2686 43.3837 15.5737 43.142 15.0904 42.6586C14.6272 42.1551 14.3955 41.4502 14.3955 40.544V34.5926H5.6045V40.544C5.6045 41.4502 5.37289 42.1551 4.90967 42.6586C4.44646 43.142 3.75163 43.3837 2.8252 43.3837Z"
                fill="#6444F4"/>
        <path
                d="M25.7887 43.1118C24.8421 43.1118 24.117 42.8701 23.6135 42.3867C23.1302 41.8833 22.8885 41.1683 22.8885 40.2419V24.6838C22.8885 23.7574 23.1302 23.0525 23.6135 22.5691C24.117 22.0656 24.8421 21.8139 25.7887 21.8139H36.0298C36.7548 21.8139 37.2986 21.9951 37.6611 22.3577C38.0236 22.7202 38.2049 23.2438 38.2049 23.9286C38.2049 24.6335 38.0236 25.1772 37.6611 25.5599C37.2986 25.9224 36.7548 26.1037 36.0298 26.1037H28.2054V30.1518H35.3652C36.0701 30.1518 36.6038 30.333 36.9663 30.6956C37.3489 31.0581 37.5403 31.5918 37.5403 32.2967C37.5403 33.0016 37.3489 33.5353 36.9663 33.8978C36.6038 34.2603 36.0701 34.4416 35.3652 34.4416H28.2054V38.822H36.0298C36.7548 38.822 37.2986 39.0133 37.6611 39.396C38.0236 39.7585 38.2049 40.2821 38.2049 40.9669C38.2049 41.6718 38.0236 42.2055 37.6611 42.568C37.2986 42.9305 36.7548 43.1118 36.0298 43.1118H25.7887Z"
                fill="#6444F4"/>
        <path
                d="M41.2112 43.3837C40.5869 43.3837 40.0633 43.2427 39.6403 42.9607C39.2174 42.6586 38.9556 42.2558 38.8549 41.7523C38.7542 41.2287 38.8448 40.6447 39.1267 40.0002L46.649 23.8077C47.0115 23.0223 47.4546 22.4483 47.9782 22.0858C48.522 21.7233 49.1363 21.542 49.821 21.542C50.5058 21.542 51.0999 21.7233 51.6034 22.0858C52.127 22.4483 52.5802 23.0223 52.9628 23.8077L60.4851 40.0002C60.8073 40.6447 60.9181 41.2287 60.8174 41.7523C60.7368 42.276 60.4851 42.6788 60.0621 42.9607C59.6593 43.2427 59.1558 43.3837 58.5516 43.3837C57.7461 43.3837 57.1217 43.2024 56.6786 42.8399C56.2557 42.4774 55.873 41.8933 55.5307 41.0877L53.8993 37.2511L56.014 38.7918H43.5676L45.7125 37.2511L44.0812 41.0877C43.7186 41.8933 43.346 42.4774 42.9634 42.8399C42.5807 43.2024 41.9967 43.3837 41.2112 43.3837ZM49.7606 27.6142L46.2563 35.9823L45.4104 34.5322H54.2014L53.3556 35.9823L49.821 27.6142H49.7606Z"
                fill="#6444F4"/>
        <path
                d="M87.4746 43.3837C86.5885 43.3837 85.9037 43.142 85.4203 42.6586C84.937 42.1551 84.6953 41.4502 84.6953 40.544V24.3817C84.6953 23.4553 84.937 22.7504 85.4203 22.267C85.9037 21.7837 86.5885 21.542 87.4746 21.542C88.3809 21.542 89.0657 21.7837 89.5289 22.267C90.0122 22.7504 90.2539 23.4553 90.2539 24.3817V40.544C90.2539 41.4502 90.0223 42.1551 89.5591 42.6586C89.0959 43.142 88.401 43.3837 87.4746 43.3837Z"
                fill="#6444F4"/>
        <path
                d="M96.0096 43.3837C95.1234 43.3837 94.4286 43.142 93.9251 42.6586C93.4418 42.1551 93.2001 41.4402 93.2001 40.5137V24.6838C93.2001 23.7574 93.4418 23.0525 93.9251 22.5691C94.4286 22.0656 95.1536 21.8139 96.1002 21.8139H106.16C106.885 21.8139 107.429 21.9951 107.791 22.3577C108.154 22.7202 108.335 23.2438 108.335 23.9286C108.335 24.6335 108.154 25.1772 107.791 25.5599C107.429 25.9224 106.885 26.1037 106.16 26.1037H98.7587V30.3935H105.495C106.2 30.3935 106.734 30.5747 107.097 30.9372C107.479 31.2998 107.671 31.8234 107.671 32.5081C107.671 33.213 107.479 33.7467 107.097 34.1093C106.734 34.4718 106.2 34.653 105.495 34.653H98.7587V40.5137C98.7587 42.427 97.8423 43.3837 96.0096 43.3837Z"
                fill="#6444F4"/>
        <path
                d="M117.789 43.3837C116.903 43.3837 116.218 43.142 115.735 42.6586C115.251 42.1551 115.01 41.4402 115.01 40.5137V32.2363L116.158 35.2874L109.209 25.288C108.867 24.8047 108.716 24.2709 108.756 23.6869C108.817 23.0827 109.058 22.5792 109.481 22.1764C109.924 21.7535 110.549 21.542 111.354 21.542C111.918 21.542 112.432 21.683 112.895 21.9649C113.358 22.2267 113.791 22.6799 114.194 23.3244L118.423 29.5476H117.336L121.565 23.2942C121.988 22.6497 122.421 22.1965 122.864 21.9347C123.307 21.6729 123.831 21.542 124.435 21.542C125.2 21.542 125.795 21.7333 126.217 22.116C126.64 22.4986 126.862 22.982 126.882 23.566C126.922 24.1501 126.741 24.7442 126.338 25.3484L119.45 35.2874L120.568 32.2363V40.5137C120.568 42.427 119.642 43.3837 117.789 43.3837Z"
                fill="#6444F4"/>
        <path fill-rule="evenodd" clip-rule="evenodd"
              d="M137.404 13.1828C137.642 12.9137 137.832 12.488 137.832 11.9581C137.832 11.4282 137.642 11.0025 137.404 10.7334C137.17 10.469 136.927 10.3847 136.731 10.3847C136.534 10.3847 136.291 10.469 136.057 10.7334C135.819 11.0025 135.629 11.4282 135.629 11.9581C135.629 12.488 135.819 12.9137 136.057 13.1828C136.291 13.4472 136.534 13.5315 136.731 13.5315C136.927 13.5315 137.17 13.4472 137.404 13.1828ZM140.35 11.9581C140.35 13.6494 139.442 15.1009 138.147 15.7239V23.2868H138.703C139.708 18.7848 143.727 15.4196 148.531 15.4196H154.281C156.241 15.4196 152.109 17.283 155.454 18.2518C155.769 18.7238 161.345 22.6884 161.928 22.8147C164.71 23.4181 169.27 20.8692 171.503 20.6119C173.768 20.351 173.706 22.028 173.939 23.2868H177.482C178.873 23.2868 180 24.4139 180 25.8043V35.8742C180 37.2645 178.873 38.3917 177.482 38.3917H173.706L173.704 38.3917C172.586 42.7349 168.643 45.9441 163.951 45.9441H148.531C143.839 45.9441 139.897 42.7349 138.779 38.3917L138.776 38.3917H135C133.61 38.3917 132.482 37.2645 132.482 35.8742V25.8043C132.482 24.4139 133.61 23.2868 135 23.2868H135.629L135.629 15.8561C134.169 15.3293 133.112 13.7833 133.112 11.9581C133.112 9.69875 134.732 7.86719 136.731 7.86719C138.729 7.86719 140.35 9.69875 140.35 11.9581ZM155.454 18.2518H148.531C144.534 18.2518 141.294 21.4923 141.294 25.4896V25.8043V35.8742C141.294 39.8715 144.534 43.1119 148.531 43.1119H163.951C167.948 43.1119 171.189 39.8715 171.189 35.8742V25.8043V25.4896C171.189 24.4502 171.346 22.1854 169.93 21.3987C168.139 20.8637 165.202 22.1159 162.692 22.1854C160.749 22.2391 159.03 21.8391 157.657 21.084C156.095 20.7907 156.919 18.6759 155.454 18.2518ZM174.021 35.5595H177.168V26.1189H174.021V35.5595ZM135.315 26.1189H138.461V35.5595H135.315V26.1189ZM148.165 29.4229C148.092 29.5096 148.026 29.6026 147.968 29.7007C147.872 29.8631 147.761 30.0258 147.638 30.1754C147.329 30.5481 146.937 30.8392 146.467 30.8392C145.808 30.8392 145.26 30.298 145.409 29.6561C145.508 29.2326 145.659 28.8264 145.859 28.4491C145.932 28.3111 146.011 28.177 146.097 28.0473C146.175 27.9288 146.258 27.8141 146.347 27.7035C146.402 27.6345 146.459 27.5671 146.518 27.5015C147.315 26.6162 148.395 26.1189 149.522 26.1189C150.649 26.1189 151.729 26.6162 152.526 27.5015C152.585 27.5671 152.642 27.6345 152.697 27.7035C152.786 27.8141 152.869 27.9288 152.948 28.0473C153.033 28.177 153.113 28.3111 153.185 28.4491C153.385 28.8264 153.536 29.2326 153.635 29.6561C153.784 30.298 153.236 30.8392 152.577 30.8392C152.107 30.8392 151.715 30.5481 151.406 30.1754C151.283 30.0258 151.172 29.8631 151.076 29.7007C151.018 29.6026 150.952 29.5096 150.879 29.4229C150.865 29.4073 150.852 29.3919 150.838 29.3767C150.778 29.31 150.715 29.2483 150.648 29.1919C150.326 28.9203 149.931 28.7709 149.522 28.7709C149.113 28.7709 148.718 28.9203 148.396 29.1919C148.329 29.2483 148.266 29.31 148.206 29.3767C148.192 29.3919 148.179 29.4073 148.165 29.4229ZM158.691 35.678C158.859 35.5412 159.031 35.4078 159.208 35.2925C159.533 35.0809 159.875 34.9301 160.241 34.9301C161.071 34.9301 161.77 35.6349 161.402 36.3787C161.149 36.8897 160.762 37.3612 160.259 37.7622C160.243 37.7749 160.227 37.7876 160.211 37.8001C160.201 37.8077 160.191 37.8153 160.181 37.8228C159.997 37.9635 159.801 38.0929 159.595 38.2104C158.677 38.7336 157.557 39.021 156.399 39.021C155.24 39.021 154.12 38.7336 153.202 38.2104C152.996 38.0929 152.8 37.9635 152.616 37.8228C152.59 37.8028 152.564 37.7826 152.538 37.7622C152.035 37.3611 151.648 36.8897 151.395 36.3787C151.027 35.6349 151.726 34.9301 152.556 34.9301C152.922 34.9301 153.264 35.0809 153.589 35.2925C153.766 35.4078 153.938 35.5412 154.106 35.678C154.137 35.7032 154.167 35.7286 154.198 35.7539C154.242 35.7907 154.286 35.8275 154.33 35.8641C154.47 35.9805 154.606 36.0947 154.741 36.1977C155.181 36.5338 155.777 36.7227 156.399 36.7227C157.02 36.7227 157.616 36.5338 158.056 36.1977C158.191 36.0947 158.327 35.9806 158.467 35.8642L158.539 35.8036L158.563 35.784L158.599 35.7539C158.63 35.7286 158.661 35.7032 158.691 35.678ZM161.499 29.7007C161.558 29.6026 161.624 29.5096 161.697 29.4229C161.71 29.4073 161.724 29.3919 161.737 29.3767C161.797 29.31 161.861 29.2483 161.928 29.1919C162.25 28.9203 162.645 28.7709 163.053 28.7709C163.462 28.7709 163.857 28.9203 164.179 29.1919C164.246 29.2483 164.31 29.31 164.37 29.3767C164.383 29.3919 164.397 29.4073 164.41 29.4229C164.483 29.5096 164.549 29.6026 164.608 29.7007C164.704 29.8631 164.814 30.0258 164.938 30.1754C165.246 30.5481 165.638 30.8392 166.108 30.8392C166.767 30.8392 167.316 30.298 167.166 29.6561C167.067 29.2326 166.916 28.8264 166.717 28.4491C166.644 28.3111 166.565 28.177 166.479 28.0473C166.401 27.9288 166.317 27.8141 166.229 27.7035C166.174 27.6345 166.117 27.5671 166.057 27.5015C165.261 26.6162 164.18 26.1189 163.053 26.1189C161.927 26.1189 160.846 26.6162 160.05 27.5015C159.99 27.5671 159.933 27.6345 159.878 27.7035C159.79 27.8141 159.706 27.9288 159.628 28.0473C159.542 28.177 159.463 28.3111 159.39 28.4491C159.191 28.8264 159.04 29.2326 158.941 29.6561C158.791 30.298 159.34 30.8392 159.999 30.8392C160.469 30.8392 160.861 30.5481 161.169 30.1754C161.293 30.0258 161.403 29.8631 161.499 29.7007Z"
              fill="#6444F4"/>
        <path fill-rule="evenodd" clip-rule="evenodd"
              d="M157.657 2.72727C156.933 2.72727 156.24 3.01461 155.728 3.52607C155.217 4.03754 154.929 4.73123 154.929 5.45455V16.3636C154.929 17.087 155.217 17.7806 155.728 18.2921C156.24 18.8036 156.933 19.0909 157.657 19.0909H160.384C161.137 19.0909 161.748 19.7014 161.748 20.4545V22.137L166.501 19.2852C166.712 19.1581 166.955 19.0909 167.202 19.0909H174.02C174.744 19.0909 175.437 18.8036 175.949 18.2921C176.46 17.7806 176.748 17.087 176.748 16.3636V5.45455C176.748 4.73123 176.46 4.03754 175.949 3.52607C175.437 3.01461 174.744 2.72727 174.02 2.72727H157.657ZM153.8 1.5976C154.823 0.574674 156.21 0 157.657 0H174.02C175.467 0 176.854 0.574674 177.877 1.5976C178.9 2.62053 179.475 4.00791 179.475 5.45455V16.3636C179.475 17.8103 178.9 19.1977 177.877 20.2206C176.854 21.2435 175.467 21.8182 174.02 21.8182H167.58L161.086 25.7148C160.664 25.9675 160.14 25.9741 159.712 25.7321C159.285 25.49 159.02 25.0367 159.02 24.5455V21.8182H157.657C156.21 21.8182 154.823 21.2435 153.8 20.2206C152.777 19.1977 152.202 17.8103 152.202 16.3636V5.45455C152.202 4.00791 152.777 2.62052 153.8 1.5976ZM159.02 8.18182C159.02 7.4287 159.631 6.81818 160.384 6.81818H171.293C172.046 6.81818 172.657 7.4287 172.657 8.18182C172.657 8.93493 172.046 9.54545 171.293 9.54545H160.384C159.631 9.54545 159.02 8.93493 159.02 8.18182ZM159.02 13.6364C159.02 12.8832 159.631 12.2727 160.384 12.2727H168.566C169.319 12.2727 169.929 12.8832 169.929 13.6364C169.929 14.3895 169.319 15 168.566 15H160.384C159.631 15 159.02 14.3895 159.02 13.6364Z"
              fill="#04FB9C"/>
        <path fill-rule="evenodd" clip-rule="evenodd"
              d="M64.0219 42.6587C64.5053 43.1421 65.19 43.3838 66.0762 43.3838C67.0026 43.3838 67.6974 43.1421 68.1607 42.6587C68.6239 42.1552 68.8555 41.4604 68.8555 40.5742V35.1667H70.517C71.0004 35.1667 71.4233 35.2573 71.7858 35.4386C72.1685 35.5997 72.4807 35.9018 72.7223 36.3449L75.4714 41.3899C75.8541 42.0747 89.5278 66.2412 89.9545 66.5446C89.9826 66.5823 90.0132 66.6189 90.0463 66.6545C90.7647 67.582 92.0757 67.8593 93.1201 67.2564C94.2599 66.5983 94.6504 65.1409 93.9923 64.0011L90.9724 58.7705C87.0325 51.4883 80.9156 40.1837 80.6977 39.7888L79.1872 37.0699C78.7441 36.224 78.1903 35.5997 77.5257 35.1969C77.2118 34.9972 76.8755 34.8446 76.5166 34.7392C76.9195 34.6259 77.2961 34.4865 77.6465 34.3208C78.7744 33.777 79.6303 33.0117 80.2144 32.0249C80.8186 31.0179 81.1207 29.8397 81.1207 28.4903C81.1207 26.3958 80.456 24.7645 79.1268 23.5963C77.8177 22.4081 75.9548 21.814 73.538 21.814H66.1064C65.2202 21.814 64.5254 22.0556 64.0219 22.539C63.5386 23.0224 63.2969 23.7172 63.2969 24.6235V40.5742C63.2969 41.4604 63.5386 42.1552 64.0219 42.6587ZM72.5411 31.2394H68.8555V26.0735H72.5411C73.6085 26.0735 74.4241 26.2951 74.9881 26.7382C75.552 27.1611 75.8339 27.7955 75.8339 28.6414C75.8339 29.5275 75.552 30.1821 74.9881 30.605C74.4241 31.028 73.6085 31.2394 72.5411 31.2394Z"
              fill="#04FB9C"/>
    </g>
    <defs>
        <clipPath id="clip0_2739_1893">
            <rect width="180" height="68" fill="white"/>
        </clipPath>
    </defs>
</svg>