<svg width="24" height="24" viewBox="0 0 24 24" fill="none" xmlns="http://www.w3.org/2000/svg">
  <g clip-path="url(#clip0_3605_4523)">
    <path
      d="M18.3157 5.68405L12.6316 5.05249L5.68417 5.68405L5.05249 11.9999L5.68405 18.3157L11.9999 19.1052L18.3157 18.3157L18.9473 11.8421L18.3157 5.68405Z"
      fill="#FEFDFF" />
    <path
      d="M8.27525 15.483C7.80317 15.1641 7.47629 14.6984 7.29785 14.0825L8.39369 13.631C8.49317 14.0099 8.66681 14.3036 8.91473 14.512C9.16109 14.7204 9.46109 14.823 9.81161 14.823C10.1701 14.823 10.478 14.7141 10.7353 14.4962C10.9925 14.2782 11.1221 14.0003 11.1221 13.6641C11.1221 13.3199 10.9863 13.0388 10.7147 12.821C10.4432 12.6032 10.1021 12.4941 9.69473 12.4941H9.06161V11.4094H9.62993C9.98045 11.4094 10.2758 11.3147 10.5158 11.1252C10.7558 10.9358 10.8758 10.6768 10.8758 10.3468C10.8758 10.0532 10.7684 9.8194 10.5537 9.6442C10.339 9.469 10.0673 9.38056 9.73733 9.38056C9.41525 9.38056 9.15941 9.46588 8.96993 9.63796C8.78045 9.81004 8.64305 10.0216 8.55629 10.2711L7.47161 9.81952C7.61525 9.41212 7.87901 9.05212 8.26577 8.74108C8.65265 8.43004 9.14681 8.27368 9.74681 8.27368C10.1905 8.27368 10.5899 8.359 10.9437 8.53108C11.2973 8.70316 11.5753 8.9416 11.7758 9.24472C11.9763 9.5494 12.0758 9.89056 12.0758 10.2694C12.0758 10.6563 11.9827 10.983 11.7963 11.2515C11.6099 11.5199 11.381 11.7251 11.1094 11.8689V11.9336C11.4679 12.0836 11.7599 12.3125 11.9905 12.6204C12.2194 12.9284 12.3346 13.2963 12.3346 13.7258C12.3346 14.1552 12.2257 14.5389 12.0077 14.8752C11.7898 15.2116 11.4883 15.4768 11.1062 15.6694C10.7225 15.862 10.2915 15.9599 9.81305 15.9599C9.25889 15.9615 8.74733 15.802 8.27525 15.483Z"
      fill="#1A73E8" />
    <path
      d="M15.0001 10.0453L13.8032 10.9153L13.2017 10.0027L15.3601 8.4458H16.1875V15.7894H15.0001V10.0453Z"
      fill="#1A73E8" />
    <path d="M18.3159 24L24 18.3159L21.1579 17.0527L18.3159 18.3159L17.0527 21.1579L18.3159 24Z"
      fill="#EA4335" />
    <path d="M4.42114 21.158L5.68426 24.0001H18.3158V18.3159H5.68426L4.42114 21.158Z" fill="#34A853" />
    <path
      d="M1.89468 0C0.84792 0 0 0.84792 0 1.89468V18.3157L2.84208 19.5788L5.68416 18.3157V5.68416H18.3157L19.5788 2.84208L18.3158 0H1.89468Z"
      fill="#4285F4" />
    <path d="M0 18.3159V22.1054C0 23.1523 0.84792 24.0001 1.89468 24.0001H5.68416V18.3159H0Z"
      fill="#188038" />
    <path d="M18.3159 5.68426V18.3158H24.0001V5.68426L21.158 4.42114L18.3159 5.68426Z"
      fill="#FBBC04" />
    <path d="M24.0001 5.68416V1.89468C24.0001 0.8478 23.1522 0 22.1054 0H18.3159V5.68416H24.0001Z"
      fill="#1967D2" />
  </g>
  <defs>
    <clipPath id="clip0_3605_4523">
      <rect width="24" height="24" fill="white" />
    </clipPath>
  </defs>
</svg>