<svg width="20" height="20" viewBox="0 0 20 20" fill="none" xmlns="http://www.w3.org/2000/svg">
<path d="M4.58203 0.833252C3.89168 0.833252 3.33203 1.3929 3.33203 2.08325V17.9166C3.33203 18.6069 3.89168 19.1666 4.58203 19.1666H15.4154C16.1057 19.1666 16.6654 18.6069 16.6654 17.9166V5.83325L11.6654 0.833252H4.58203Z" fill="#15343a"/>
<path d="M4.58203 19.1666C3.89168 19.1666 3.33203 18.6069 3.33203 17.9166V17.7083C3.33203 18.3986 3.89168 18.9583 4.58203 18.9583H15.4154C16.1057 18.9583 16.6654 18.3986 16.6654 17.7083V17.9166C16.6654 18.6069 16.1057 19.1666 15.4154 19.1666H4.58203Z" fill="#15343a"/>
<path d="M4.58203 0.833252C3.89168 0.833252 3.33203 1.3929 3.33203 2.08325V2.29159C3.33203 1.60123 3.89168 1.04159 4.58203 1.04159H11.8737L11.6654 0.833252H4.58203Z" fill="#15343a"/>
<path d="M16.6681 10.1042V5.83341L15.9389 5.10425H12.4225C12.1441 5.10425 12.0047 5.44085 12.2015 5.63772L16.6681 10.1042Z" fill="#15343a"/>
<path d="M11.668 0.833252L16.668 5.83325H12.918C12.2276 5.83325 11.668 5.27361 11.668 4.58325V0.833252Z" fill="#15343a"/>
<path d="M7.29297 11.0417C7.63815 11.0417 7.91797 10.7619 7.91797 10.4167C7.91797 10.0716 7.63815 9.79175 7.29297 9.79175C6.94779 9.79175 6.66797 10.0716 6.66797 10.4167C6.66797 10.7619 6.94779 11.0417 7.29297 11.0417Z" fill="white"/>
<path d="M13.543 10.0001H8.95964V10.8334H13.543V10.0001Z" fill="white"/>
<path d="M13.543 12.0834H8.95964V12.9167H13.543V12.0834Z" fill="white"/>
<path d="M8.95964 14.1667H13.543V15.0001H8.95964V14.1667Z" fill="white"/>
<path d="M7.91797 12.5001C7.91797 12.8453 7.63815 13.1251 7.29297 13.1251C6.94779 13.1251 6.66797 12.8453 6.66797 12.5001C6.66797 12.1549 6.94779 11.8751 7.29297 11.8751C7.63815 11.8751 7.91797 12.1549 7.91797 12.5001Z" fill="white"/>
<path d="M7.29297 15.2084C7.63815 15.2084 7.91797 14.9286 7.91797 14.5834C7.91797 14.2382 7.63815 13.9584 7.29297 13.9584C6.94779 13.9584 6.66797 14.2382 6.66797 14.5834C6.66797 14.9286 6.94779 15.2084 7.29297 15.2084Z" fill="white"/>
<defs>
<linearGradient id="paint0_linear_9780_10692" x1="14.3887" y1="10.1042" x2="14.3887" y2="5.00008" gradientUnits="userSpaceOnUse">
<stop stop-color="#6B3FB9"/>
<stop offset="1" stop-color="#5B3DA3"/>
</linearGradient>
</defs>
</svg>
