<svg width="24" height="25" viewBox="0 0 24 25" fill="none" xmlns="http://www.w3.org/2000/svg">
    <path d="M22.56 12.75C22.56 11.97 22.49 11.22 22.36 10.5H12V14.76H17.92C17.66 16.13 16.88 17.29 15.71 18.07V20.84H19.28C21.36 18.92 22.56 16.1 22.56 12.75Z" fill="#4285F4"/>
    <path d="M12.0002 23.4996C14.9702 23.4996 17.4602 22.5196 19.2802 20.8396L15.7102 18.0696C14.7302 18.7296 13.4802 19.1296 12.0002 19.1296C9.14018 19.1296 6.71018 17.1996 5.84018 14.5996H2.18018V17.4396C3.99018 21.0296 7.70018 23.4996 12.0002 23.4996Z" fill="#34A853"/>
    <path d="M5.84 14.5903C5.62 13.9303 5.49 13.2303 5.49 12.5003C5.49 11.7703 5.62 11.0703 5.84 10.4103V7.57031H2.18C1.43 9.05031 1 10.7203 1 12.5003C1 14.2803 1.43 15.9503 2.18 17.4303L5.03 15.2103L5.84 14.5903Z" fill="#FBBC05"/>
    <path d="M12.0002 5.88C13.6202 5.88 15.0602 6.44 16.2102 7.52L19.3602 4.37C17.4502 2.59 14.9702 1.5 12.0002 1.5C7.70018 1.5 3.99018 3.97 2.18018 7.57L5.84018 10.41C6.71018 7.81 9.14018 5.88 12.0002 5.88Z" fill="#EA4335"/>
</svg>