<svg width="20" height="20" viewBox="0 0 20 20" fill="none" xmlns="http://www.w3.org/2000/svg">
<path d="M16.7795 5.93336L12.6128 2.58291C11.0995 1.36576 8.902 1.36576 7.38783 2.58291L3.22116 5.93336C2.23366 6.72784 1.66699 7.91089 1.66699 9.17807V14.1734C1.66699 16.4693 3.53616 18.3367 5.83366 18.3367H8.33366V14.1725C8.33366 13.2547 9.08116 12.5094 10.0003 12.5094C10.9195 12.5094 11.667 13.2555 11.667 14.1725V18.3367H14.167C16.4645 18.3367 18.3337 16.4693 18.3337 14.1734V9.17807C18.3337 7.91089 17.767 6.72784 16.7795 5.93336ZM16.667 14.1734C16.667 15.5497 15.5453 16.6694 14.167 16.6694H13.3337V14.1725C13.3337 12.336 11.8387 10.842 10.0003 10.842C8.16199 10.842 6.66699 12.336 6.66699 14.1725V16.6694H5.83366C4.45533 16.6694 3.33366 15.5497 3.33366 14.1734V9.17807C3.33366 8.4186 3.67366 7.70914 4.26532 7.23311L8.43199 3.88257C9.34116 3.15227 10.6603 3.15227 11.5687 3.88257L15.7353 7.23311C16.3278 7.70914 16.6678 8.4186 16.6678 9.17807V14.1734H16.667Z" fill="#FEFDFF"/>
</svg>