<svg width="56" height="56" viewBox="0 0 56 56" fill="none" xmlns="http://www.w3.org/2000/svg">
  <g clip-path="url(#clip0_2859_4543)">
    <path
      d="M52.5 0.916626H3.5C2.50544 0.916626 1.55161 1.31171 0.84835 2.01497C0.145088 2.71824 -0.25 3.67206 -0.25 4.66662V39.6666C-0.25 40.6612 0.145088 41.615 0.848349 42.3182C1.55161 43.0215 2.50544 43.4166 3.5 43.4166H19.5833V52.2499H17.5C17.1243 52.2499 16.7639 52.3992 16.4983 52.6648C16.2326 52.9305 16.0833 53.2909 16.0833 53.6666C16.0833 54.0423 16.2326 54.4026 16.4983 54.6683C16.7639 54.934 17.1243 55.0832 17.5 55.0832H38.5C38.8757 55.0832 39.2361 54.934 39.5017 54.6683C39.7674 54.4026 39.9167 54.0423 39.9167 53.6666C39.9167 53.2909 39.7674 52.9305 39.5017 52.6648C39.2361 52.3992 38.8757 52.2499 38.5 52.2499H36.4167V43.4166H52.5C53.4946 43.4166 54.4484 43.0215 55.1516 42.3182C55.8549 41.615 56.25 40.6612 56.25 39.6666V4.66662C56.25 3.67206 55.8549 2.71823 55.1516 2.01497C54.4484 1.31171 53.4946 0.916626 52.5 0.916626ZM2.58333 4.66662C2.58333 4.42351 2.67991 4.19035 2.85182 4.01844C3.02373 3.84653 3.25688 3.74996 3.5 3.74996H52.5C52.7431 3.74996 52.9763 3.84653 53.1482 4.01844C53.3201 4.19035 53.4167 4.42351 53.4167 4.66662V33.5833H2.58333V4.66662ZM33.5833 52.2499H22.4167V43.4166H33.5833V52.2499ZM53.4167 39.6666C53.4167 39.9097 53.3201 40.1429 53.1482 40.3148C52.9763 40.4867 52.7431 40.5833 52.5 40.5833H3.5C3.25689 40.5833 3.02373 40.4867 2.85182 40.3148C2.67991 40.1429 2.58333 39.9097 2.58333 39.6666V36.4166H53.4167V39.6666Z"
      fill="#FEFDFF" stroke="#FEFDFF" stroke-width="0.5" />
  </g>
  <defs>
    <clipPath id="clip0_2859_4543">
      <rect width="56" height="56" fill="white" />
    </clipPath>
  </defs>
</svg>