<svg xmlns="http://www.w3.org/2000/svg" width="25" height="24" viewBox="0 0 25 24" fill="none">
<path d="M21.25 7V17C21.25 19.619 19.119 21.75 16.5 21.75H12.5C12.086 21.75 11.75 21.414 11.75 21C11.75 20.586 12.086 20.25 12.5 20.25H16.5C18.292 20.25 19.75 18.792 19.75 17V7C19.75 5.208 18.292 3.75 16.5 3.75H12.5C12.086 3.75 11.75 3.414 11.75 3C11.75 2.586 12.086 2.25 12.5 2.25H16.5C19.119 2.25 21.25 4.381 21.25 7ZM15.03 11.47L11.03 7.46997C10.737 7.17697 10.262 7.17697 9.96899 7.46997C9.67599 7.76297 9.67599 8.23801 9.96899 8.53101L12.689 11.251H4.5C4.086 11.251 3.75 11.587 3.75 12.001C3.75 12.415 4.086 12.751 4.5 12.751H12.689L9.96899 15.4709C9.67599 15.7639 9.67599 16.239 9.96899 16.532C10.115 16.678 10.307 16.752 10.499 16.752C10.691 16.752 10.883 16.679 11.029 16.532L15.029 12.532C15.323 12.237 15.323 11.763 15.03 11.47Z" fill="#FEFDFF"/>
</svg>