<svg width="87" height="72" viewBox="0 0 87 72" fill="none" xmlns="http://www.w3.org/2000/svg">
<g id="Group">
<path id="Vector" d="M84.8203 0.306152H2.17969C1.252 0.306152 0.5 1.05832 0.5 1.98584V70.0142C0.5 70.9417 1.252 71.6939 2.17969 71.6939H84.8203C85.748 71.6939 86.5 70.9417 86.5 70.0142V1.98584C86.5 1.05832 85.748 0.306152 84.8203 0.306152ZM83.1406 3.66553V17.5752H54.1749L49.3038 11.4873C48.9852 11.0891 48.5024 10.8571 47.9923 10.8571H3.85938V3.66553H83.1406ZM3.85938 68.3345V14.2165H47.1849L52.056 20.3043C52.3748 20.7026 52.8574 20.9346 53.3675 20.9346H83.1406V68.3345H3.85938Z" fill="#6444F4"/>
<path id="Vector_2" d="M75.3408 12.7405C76.2685 12.7405 77.0205 11.9837 77.0205 11.0562C77.0205 10.1286 76.2685 9.37646 75.3408 9.37646C74.4131 9.37646 73.6611 10.1286 73.6611 11.0562V11.0657C73.6611 11.9932 74.4133 12.7405 75.3408 12.7405Z" fill="#6444F4"/>
<path id="Vector_3" d="M66.9419 12.7405C67.8696 12.7405 68.6216 11.9837 68.6216 11.0562C68.6216 10.1286 67.8696 9.37646 66.9419 9.37646C66.0142 9.37646 65.2622 10.1286 65.2622 11.0562V11.0657C65.2622 11.9932 66.0142 12.7405 66.9419 12.7405Z" fill="#6444F4"/>
<path id="Vector_4" d="M58.5479 12.7405C59.4755 12.7405 60.2275 11.9837 60.2275 11.0562C60.2275 10.1286 59.4755 9.37646 58.5479 9.37646C57.6202 9.37646 56.8682 10.1286 56.8682 11.0562V11.0657C56.8682 11.9932 57.6202 12.7405 58.5479 12.7405Z" fill="#6444F4"/>
<path id="Vector_5" d="M29.1095 20.27C17.5271 20.27 8.104 29.6931 8.104 41.2755C8.104 52.8553 17.5271 62.2761 29.1095 62.2761C40.6893 62.2761 50.1101 52.8553 50.1101 41.2755C50.1101 29.6929 40.6893 20.27 29.1095 20.27ZM29.1095 58.9168C19.3794 58.9168 11.4634 51.0029 11.4634 41.2755C11.4634 31.5454 19.3794 23.6294 29.1095 23.6294C38.8369 23.6294 46.7508 31.5454 46.7508 41.2755C46.7508 51.0028 38.8369 58.9168 29.1095 58.9168Z" fill="#6444F4"/>
<path id="Vector_6" d="M29.1475 51.332C28.2198 51.332 27.4678 52.0842 27.4678 53.0117V53.0213C27.4678 53.9488 28.2198 54.6963 29.1475 54.6963C30.0752 54.6963 30.8271 53.9394 30.8271 53.0119C30.8271 52.0844 30.0752 51.332 29.1475 51.332Z" fill="#6444F4"/>
<path id="Vector_7" d="M29.2536 27.85C25.695 27.7798 22.6279 30.3793 22.131 33.9144C22.0889 34.2273 22.0684 34.5451 22.0684 34.8857C22.0684 35.8133 22.8204 36.5654 23.748 36.5654C24.6757 36.5654 25.4277 35.8133 25.4277 34.8857C25.4277 34.6964 25.4383 34.5253 25.459 34.3719C25.7178 32.53 27.3192 31.1708 29.187 31.2086C31.1054 31.2447 32.6852 32.7722 32.7833 34.6879C32.8368 35.7096 32.4799 36.6795 31.7783 37.4189C31.0757 38.1593 30.1277 38.5671 29.1091 38.5671C28.1814 38.5671 27.4294 39.3193 27.4294 40.2468V45.8556C27.4294 46.7831 28.1814 47.5353 29.1091 47.5353C30.0368 47.5353 30.7888 46.7831 30.7888 45.8556V41.721C32.0862 41.4002 33.2836 40.7131 34.2152 39.7315C35.5574 38.317 36.2402 36.4635 36.1381 34.514C35.9503 30.8464 32.9247 27.9192 29.2536 27.85Z" fill="#6444F4"/>
<path id="Vector_8" d="M77.2117 26.1597H57.8906C56.9629 26.1597 56.2109 26.9118 56.2109 27.8394V35.8572C56.2109 36.7847 56.9629 37.5369 57.8906 37.5369H77.2117C78.1394 37.5369 78.8914 36.7847 78.8914 35.8572V27.8394C78.8914 26.9118 78.1394 26.1597 77.2117 26.1597ZM75.5321 34.1775H59.5703V29.519H75.5321V34.1775Z" fill="#6444F4"/>
<path id="Vector_9" d="M77.2117 41.3716H57.8906C56.9629 41.3716 56.2109 42.1237 56.2109 43.0513C56.2109 43.9788 56.9629 44.731 57.8906 44.731H77.2117C78.1394 44.731 78.8914 43.9788 78.8914 43.0513C78.8914 42.1237 78.1394 41.3716 77.2117 41.3716Z" fill="#6444F4"/>
<path id="Vector_10" d="M77.2117 49.3896H57.8906C56.9629 49.3896 56.2109 50.1418 56.2109 51.0693C56.2109 51.9969 56.9629 52.749 57.8906 52.749H77.2117C78.1394 52.749 78.8914 51.9969 78.8914 51.0693C78.8914 50.1418 78.1394 49.3896 77.2117 49.3896Z" fill="#6444F4"/>
<path id="Vector_11" d="M55.915 57.4072H50.3301C49.4024 57.4072 48.6504 58.1594 48.6504 59.0869C48.6504 60.0144 49.4024 60.7666 50.3301 60.7666H55.915C56.8427 60.7666 57.5947 60.0144 57.5947 59.0869C57.5947 58.1594 56.8427 57.4072 55.915 57.4072Z" fill="#6444F4"/>
<path id="Vector_12" d="M77.2116 57.4072H64.3135C63.3858 57.4072 62.6338 58.1594 62.6338 59.0869C62.6338 60.0144 63.3858 60.7666 64.3135 60.7666H77.2116C78.1393 60.7666 78.8913 60.0144 78.8913 59.0869C78.8913 58.1594 78.1393 57.4072 77.2116 57.4072Z" fill="#6444F4"/>
</g>
</svg>
