<svg width="56" height="56" viewBox="0 0 56 56" fill="none" xmlns="http://www.w3.org/2000/svg">
  <g clip-path="url(#clip0_2860_4991)">
    <path
      d="M45.8003 18.8751H36.7804C36.4041 18.8751 36.0431 18.7256 35.777 18.4594C35.5108 18.1933 35.3613 17.8323 35.3613 17.456C35.3613 17.0796 35.5108 16.7186 35.777 16.4525C36.0431 16.1864 36.4041 16.0369 36.7804 16.0369H45.8003C46.1767 16.0369 46.5376 16.1864 46.8038 16.4525C47.0699 16.7186 47.2194 17.0796 47.2194 17.456C47.2194 17.8323 47.0699 18.1933 46.8038 18.4594C46.5376 18.7256 46.1767 18.8751 45.8003 18.8751Z"
      fill="#FEFDFF" />
    <path
      d="M47.9195 23.7437C47.6432 23.7439 47.3728 23.6634 47.1416 23.5122C46.9103 23.3609 46.7283 23.1454 46.6177 22.8922L41.2904 10.6519L35.9621 22.8903C35.8876 23.0611 35.7801 23.2156 35.6459 23.3449C35.5116 23.4742 35.3532 23.5758 35.1797 23.6439C35.0062 23.712 34.821 23.7452 34.6346 23.7417C34.4483 23.7382 34.2644 23.698 34.0936 23.6235C33.9228 23.549 33.7683 23.4415 33.639 23.3072C33.5097 23.173 33.4081 23.0146 33.34 22.8411C33.2719 22.6676 33.2387 22.4824 33.2422 22.296C33.2457 22.1097 33.2859 21.9258 33.3604 21.755L39.9886 6.52321C40.0989 6.26973 40.2807 6.05398 40.5119 5.90244C40.7431 5.75089 41.0135 5.67017 41.2899 5.67017C41.5663 5.67017 41.8367 5.75089 42.0679 5.90244C42.2991 6.05398 42.481 6.26973 42.5912 6.52321L49.2204 21.755C49.3146 21.971 49.3536 22.207 49.3338 22.4419C49.314 22.6767 49.2361 22.9029 49.107 23.1C48.9779 23.2972 48.8018 23.4591 48.5944 23.5711C48.3871 23.6831 48.1552 23.7418 47.9195 23.7418V23.7437Z"
      fill="#FEFDFF" />
    <path
      d="M15.405 31.7077C15.1287 31.7079 14.8583 31.6275 14.6271 31.4762C14.3958 31.3249 14.2137 31.1095 14.1032 30.8562L12.7134 27.6632C12.6389 27.4924 12.5987 27.3086 12.5952 27.1222C12.5917 26.9358 12.625 26.7506 12.6931 26.5771C12.7611 26.4036 12.8627 26.2452 12.992 26.111C13.1213 25.9767 13.2758 25.8693 13.4466 25.7947C13.6175 25.7202 13.8013 25.68 13.9877 25.6765C14.174 25.673 14.3592 25.7063 14.5327 25.7744C14.7062 25.8424 14.8646 25.944 14.9989 26.0733C15.1331 26.2026 15.2406 26.3571 15.3151 26.5279L16.7059 29.7209C16.8001 29.9369 16.8391 30.173 16.8193 30.4078C16.7995 30.6426 16.7216 30.8688 16.5925 31.0659C16.4634 31.2631 16.2872 31.425 16.0799 31.537C15.8726 31.6491 15.6407 31.7077 15.405 31.7077Z"
      fill="#FEFDFF" />
    <path
      d="M22.3245 43.7427C22.2185 43.7428 22.1128 43.7308 22.0095 43.7068C21.6736 43.6311 13.7096 41.7266 8.29142 31.8345C8.11611 31.5049 8.07776 31.1194 8.18469 30.7617C8.29162 30.404 8.53521 30.1028 8.86266 29.9235C9.19011 29.7441 9.57506 29.7011 9.93405 29.8036C10.2931 29.9061 10.5972 30.146 10.7805 30.4712C15.5913 39.2536 22.5667 40.9234 22.6358 40.9395C22.9762 41.0165 23.2763 41.2163 23.4787 41.5006C23.681 41.7849 23.7716 42.1339 23.733 42.4807C23.6943 42.8275 23.5292 43.148 23.2692 43.3808C23.0093 43.6136 22.6726 43.7425 22.3236 43.7427H22.3245Z"
      fill="#FEFDFF" />
    <path
      d="M7.09361 43.7427C6.74461 43.7424 6.40795 43.6136 6.14796 43.3808C5.88797 43.148 5.72289 42.8275 5.68426 42.4807C5.64563 42.1338 5.73616 41.7849 5.93856 41.5006C6.14095 41.2163 6.44102 41.0165 6.7814 40.9395C6.7937 40.9395 8.56759 40.5071 10.9053 39.0066C13.0548 37.6263 16.1409 35.0246 18.6338 30.4712C18.7204 30.3025 18.8399 30.1529 18.9852 30.0311C19.1306 29.9094 19.2988 29.818 19.4801 29.7624C19.6614 29.7068 19.8519 29.688 20.0405 29.7073C20.2292 29.7266 20.412 29.7834 20.5783 29.8745C20.7446 29.9656 20.8909 30.0891 21.0086 30.2377C21.1264 30.3863 21.2132 30.557 21.2639 30.7397C21.3145 30.9224 21.3281 31.1134 21.3037 31.3015C21.2794 31.4895 21.2176 31.6707 21.122 31.8345C15.7086 41.7266 7.74545 43.6282 7.40865 43.7067C7.30536 43.7308 7.19965 43.7428 7.09361 43.7427Z"
      fill="#FEFDFF" />
    <path
      d="M22.3235 31.7076H7.09172C6.71535 31.7076 6.35439 31.5581 6.08826 31.292C5.82212 31.0258 5.67261 30.6649 5.67261 30.2885C5.67261 29.9121 5.82212 29.5512 6.08826 29.285C6.35439 29.0189 6.71535 28.8694 7.09172 28.8694H22.3235C22.6999 28.8694 23.0608 29.0189 23.327 29.285C23.5931 29.5512 23.7426 29.9121 23.7426 30.2885C23.7426 30.6649 23.5931 31.0258 23.327 31.292C23.0608 31.5581 22.6999 31.7076 22.3235 31.7076Z"
      fill="#FEFDFF" />
    <path
      d="M8.04352 55.9999C7.17343 55.9999 6.33894 55.6544 5.72352 55.0393C5.10809 54.4243 4.76209 53.59 4.76159 52.7199V49.4191H4.20814C3.09229 49.4178 2.02252 48.9739 1.23358 48.1848C0.444649 47.3957 0.00100163 46.3258 0 45.21V24.2071C0.00100163 23.0913 0.444649 22.0214 1.23358 21.2323C2.02252 20.4432 3.09229 19.9993 4.20814 19.998H22.7966C23.173 19.998 23.5339 20.1476 23.8001 20.4137C24.0662 20.6798 24.2157 21.0408 24.2157 21.4172C24.2157 21.7935 24.0662 22.1545 23.8001 22.4206C23.5339 22.6868 23.173 22.8363 22.7966 22.8363H4.20814C3.8448 22.8368 3.49651 22.9814 3.23968 23.2384C2.98285 23.4954 2.83847 23.8438 2.83822 24.2071V45.21C2.83847 45.5733 2.98285 45.9217 3.23968 46.1787C3.49651 46.4357 3.8448 46.5803 4.20814 46.5808H6.1807C6.55708 46.5808 6.91803 46.7303 7.18417 46.9965C7.4503 47.2626 7.59982 47.6236 7.59982 47.9999V52.7199C7.59905 52.8079 7.62466 52.8942 7.67334 52.9675C7.72203 53.0409 7.79156 53.098 7.87299 53.1315C7.95441 53.165 8.04399 53.1733 8.1302 53.1554C8.2164 53.1375 8.29528 53.0943 8.35668 53.0312L14.3917 46.9962C14.6577 46.7303 15.0184 46.5809 15.3945 46.5808H25.2148C25.5782 46.5803 25.9266 46.4357 26.1836 46.1788C26.4405 45.9218 26.5851 45.5734 26.5856 45.21V32.7218C26.5856 32.3454 26.7351 31.9845 27.0013 31.7183C27.2674 31.4522 27.6284 31.3027 28.0047 31.3027C28.3811 31.3027 28.7421 31.4522 29.0082 31.7183C29.2743 31.9845 29.4239 32.3454 29.4239 32.7218V45.21C29.4226 46.3259 28.9787 47.3958 28.1897 48.1849C27.4006 48.9739 26.3307 49.4178 25.2148 49.4191H15.9782L10.3586 55.0378C10.055 55.3427 9.69426 55.5846 9.29699 55.7497C8.89971 55.9148 8.47374 55.9999 8.04352 55.9999Z"
      fill="#FEFDFF" />
    <path
      d="M47.9555 36.0009C47.5252 36.0008 47.0993 35.9157 46.702 35.7506C46.3048 35.5855 45.944 35.3436 45.6404 35.0388L40.0207 29.4191H30.7889C29.6733 29.4178 28.6036 28.9741 27.8147 28.1852C27.0258 27.3963 26.5821 26.3266 26.5808 25.2109V4.20811C26.5818 3.09226 27.0255 2.02239 27.8144 1.23328C28.6033 0.444164 29.6731 0.000275904 30.7889 -0.000976562H51.7918C52.9077 0.000275468 53.9776 0.444134 54.7667 1.23322C55.5558 2.0223 55.9996 3.09217 56.0009 4.20811V25.2109C55.9996 26.3268 55.5557 27.3966 54.7666 28.1855C53.9775 28.9744 52.9076 29.4181 51.7918 29.4191H51.2383V32.7209C51.2371 33.5907 50.8908 34.4246 50.2756 35.0395C49.6603 35.6544 48.8263 36.0002 47.9564 36.0009H47.9555ZM30.7889 2.83819C30.4256 2.83869 30.0773 2.98331 29.8205 3.24032C29.5637 3.49732 29.4193 3.84572 29.419 4.20905V25.2119C29.4193 25.5751 29.5637 25.9234 29.8205 26.1803C30.0774 26.4371 30.4257 26.5816 30.7889 26.5818H40.6111C40.9873 26.5821 41.348 26.7319 41.6139 26.9981L47.648 33.0321C47.7095 33.0937 47.7879 33.1357 47.8733 33.1527C47.9587 33.1697 48.0472 33.161 48.1276 33.1277C48.2081 33.0943 48.2768 33.0379 48.3251 32.9655C48.3735 32.8931 48.3992 32.8079 48.3992 32.7209V28C48.3992 27.6236 48.5487 27.2626 48.8148 26.9965C49.0809 26.7304 49.4419 26.5809 49.8183 26.5809H51.7908C52.1542 26.5806 52.5026 26.4362 52.7596 26.1794C53.0166 25.9226 53.1612 25.5743 53.1617 25.2109V4.20811C53.1612 3.84468 53.0166 3.49629 52.7596 3.23931C52.5027 2.98234 52.1543 2.83775 51.7908 2.83724L30.7889 2.83819Z"
      fill="#FEFDFF" />
  </g>
  <defs>
    <clipPath id="clip0_2860_4991">
      <rect width="56" height="56" fill="white" />
    </clipPath>
  </defs>
</svg>