<svg width="97" height="96" viewBox="0 0 97 96" fill="none" xmlns="http://www.w3.org/2000/svg">
<g id="lesson-plan 1">
<path id="Vector" d="M85.2996 9.59998H11.6996C10.8196 9.59998 10.0996 10.32 10.0996 11.2V62.4C10.0996 63.28 10.8196 64 11.6996 64H38.2276L30.9956 84.256C30.6916 85.088 31.1396 86 31.9716 86.304C32.1316 86.368 32.3236 86.4 32.4996 86.4C33.1556 86.4 33.7796 86 34.0036 85.344L38.7716 72H58.2276L62.9956 85.344C63.2196 86 63.8436 86.4 64.4996 86.4C64.6756 86.4 64.8676 86.368 65.0436 86.304C65.8756 86 66.3076 85.088 66.0196 84.256L58.7716 64H85.2996C86.1796 64 86.8996 63.28 86.8996 62.4V11.2C86.8996 10.32 86.1796 9.59998 85.2996 9.59998ZM57.0916 68.8H39.9076L41.6196 64H55.3636L57.0916 68.8ZM83.6996 60.8H13.2996V12.8H83.6996V60.8Z" fill="#6444F4"/>
<path id="Vector_2" d="M24.5002 27.2C26.5802 27.2 28.3402 25.856 29.0122 24H54.9002C55.7802 24 56.5002 23.28 56.5002 22.4C56.5002 21.52 55.7802 20.8 54.9002 20.8H29.0122C28.3562 18.944 26.5962 17.6 24.5002 17.6C21.8602 17.6 19.7002 19.76 19.7002 22.4C19.7002 25.04 21.8602 27.2 24.5002 27.2ZM24.5002 20.8C25.3802 20.8 26.1002 21.52 26.1002 22.4C26.1002 23.28 25.3802 24 24.5002 24C23.6202 24 22.9002 23.28 22.9002 22.4C22.9002 21.52 23.6202 20.8 24.5002 20.8Z" fill="#6444F4"/>
<path id="Vector_3" d="M24.5002 41.6C26.5802 41.6 28.3402 40.256 29.0122 38.4H59.7002C60.5802 38.4 61.3002 37.68 61.3002 36.8C61.3002 35.92 60.5802 35.2 59.7002 35.2H29.0122C28.3562 33.344 26.5962 32 24.5002 32C21.8602 32 19.7002 34.16 19.7002 36.8C19.7002 39.44 21.8602 41.6 24.5002 41.6ZM24.5002 35.2C25.3802 35.2 26.1002 35.92 26.1002 36.8C26.1002 37.68 25.3802 38.4 24.5002 38.4C23.6202 38.4 22.9002 37.68 22.9002 36.8C22.9002 35.92 23.6202 35.2 24.5002 35.2Z" fill="#6444F4"/>
<path id="Vector_4" d="M24.5002 56C26.5802 56 28.3402 54.656 29.0122 52.8H67.7002C68.5802 52.8 69.3002 52.08 69.3002 51.2C69.3002 50.32 68.5802 49.6 67.7002 49.6H29.0122C28.3562 47.744 26.5962 46.4 24.5002 46.4C21.8602 46.4 19.7002 48.56 19.7002 51.2C19.7002 53.84 21.8602 56 24.5002 56ZM24.5002 49.6C25.3802 49.6 26.1002 50.32 26.1002 51.2C26.1002 52.08 25.3802 52.8 24.5002 52.8C23.6202 52.8 22.9002 52.08 22.9002 51.2C22.9002 50.32 23.6202 49.6 24.5002 49.6Z" fill="#6444F4"/>
</g>
</svg>
