<svg xmlns="http://www.w3.org/2000/svg" width="20" height="20" viewBox="0 0 20 20" fill="none">
  <path d="M17.1296 8.7227L15.5962 10.2559C15.2702 10.5817 14.7433 10.5817 14.4172 10.2559C14.0912 9.93007 14.0912 9.40355 14.4172 9.07772L15.9506 7.54431C16.912 6.58264 16.912 5.01845 15.9506 4.05595C15.0184 3.12345 13.3934 3.12345 12.462 4.05595L9.66122 6.85522C9.56283 6.95356 9.48777 7.04349 9.43857 7.11849C8.68981 8.13849 8.79571 9.47775 9.66204 10.3436C9.98722 10.6694 9.98722 11.1968 9.66204 11.5218C9.49945 11.6843 9.28602 11.7659 9.07256 11.7659C8.85911 11.7659 8.64565 11.6843 8.48222 11.5218C7.02973 10.0693 6.85547 7.81933 8.06699 6.17183C8.15288 6.03767 8.29708 5.86184 8.48135 5.67684L11.283 2.87675C12.0634 2.09592 13.1023 1.66602 14.2063 1.66602C15.3103 1.66602 16.3492 2.09675 17.1305 2.87675C18.7414 4.48925 18.7414 7.11103 17.1296 8.7227ZM10.3491 8.47774C10.0231 8.80358 10.0231 9.33009 10.3491 9.65592C11.0303 10.3368 11.253 11.3194 10.9228 12.2377C10.8135 12.5652 10.6151 12.8793 10.3491 13.1451L7.54836 15.9444C6.617 16.8769 4.99189 16.8769 4.05969 15.9444C3.09831 14.9827 3.09831 13.4185 4.05969 12.456L5.59305 10.9226C5.91907 10.5968 5.91907 10.0703 5.59305 9.74442C5.26704 9.41859 4.74007 9.41859 4.41405 9.74442L2.88069 11.2776C1.26894 12.8893 1.26894 15.5111 2.88069 17.1228C3.66196 17.9036 4.70007 18.3335 5.80486 18.3335C6.90966 18.3335 7.94773 17.9028 8.72818 17.1228L11.5289 14.3235C11.9775 13.8743 12.3152 13.3353 12.4987 12.7828C13.0348 11.2928 12.6546 9.60358 11.5281 8.47774C11.2029 8.15191 10.6743 8.15191 10.3491 8.47774Z" fill="#FEFDFF"/>
</svg>