<svg width="180" height="67" viewBox="0 0 180 67" fill="none" xmlns="http://www.w3.org/2000/svg">
<path fill-rule="evenodd" clip-rule="evenodd" d="M136.972 14.9118C137.212 14.6482 137.404 14.2313 137.404 13.7123C137.404 13.1932 137.212 12.7763 136.972 12.5128C136.735 12.2538 136.49 12.1712 136.291 12.1712C136.093 12.1712 135.847 12.2538 135.611 12.5128C135.371 12.7763 135.179 13.1932 135.179 13.7123C135.179 14.2313 135.371 14.6482 135.611 14.9118C135.847 15.1708 136.093 15.2534 136.291 15.2534C136.49 15.2534 136.735 15.1708 136.972 14.9118ZM139.947 13.7123C139.947 15.3688 139.03 16.7905 137.722 17.4008V24.8082H138.284C139.299 20.3987 143.358 17.1027 148.212 17.1027H154.02C156 17.1027 151.826 18.9278 155.205 19.8767C155.523 20.339 161.156 24.2221 161.744 24.3459C164.554 24.9369 169.161 22.4403 171.417 22.1883C173.705 21.9327 173.642 23.5753 173.878 24.8082H177.457C178.861 24.8082 180 25.9121 180 27.2739V37.137C180 38.4988 178.861 39.6027 177.457 39.6027H173.64C172.511 43.8567 168.528 47 163.788 47H148.212C143.472 47 139.489 43.8567 138.36 39.6027H134.543C133.139 39.6027 132 38.4988 132 37.137V27.2739C132 25.9121 133.139 24.8082 134.543 24.8082H135.179L135.179 17.5302C133.704 17.0143 132.636 15.5 132.636 13.7123C132.636 11.4994 134.272 9.70542 136.291 9.70542C138.31 9.70542 139.947 11.4994 139.947 13.7123ZM155.205 19.8767H148.212C144.174 19.8767 140.901 23.0506 140.901 26.9657V37.137C140.901 41.0521 144.174 44.226 148.212 44.226H163.788C167.826 44.226 171.099 41.0521 171.099 37.137V26.9657C171.099 25.9477 171.258 23.7294 169.828 22.9589C168.018 22.4349 165.052 23.6614 162.517 23.7294C160.554 23.7821 158.817 23.3903 157.43 22.6507C155.852 22.3634 156.685 20.2921 155.205 19.8767ZM173.96 36.8288H177.139V27.5822H173.96V36.8288ZM134.861 27.5822H138.04V36.8288H134.861V27.5822ZM147.842 30.8182C147.768 30.9031 147.702 30.9942 147.643 31.0903C147.545 31.2494 147.434 31.4088 147.309 31.5553C146.998 31.9203 146.602 32.2055 146.127 32.2055C145.461 32.2055 144.907 31.6754 145.058 31.0467C145.158 30.6319 145.311 30.234 145.512 29.8645C145.586 29.7293 145.666 29.5979 145.752 29.4709C145.831 29.3549 145.916 29.2425 146.005 29.1342C146.061 29.0666 146.118 29.0006 146.178 28.9363C146.983 28.0693 148.074 27.5822 149.213 27.5822C150.351 27.5822 151.442 28.0693 152.247 28.9363C152.307 29.0006 152.365 29.0666 152.42 29.1342C152.51 29.2425 152.594 29.3549 152.673 29.4709C152.759 29.5979 152.84 29.7293 152.913 29.8645C153.115 30.234 153.267 30.6319 153.367 31.0467C153.518 31.6754 152.964 32.2055 152.299 32.2055C151.823 32.2055 151.427 31.9203 151.116 31.5553C150.991 31.4088 150.88 31.2494 150.783 31.0903C150.724 30.9942 150.657 30.9031 150.583 30.8182C150.57 30.8029 150.556 30.7878 150.542 30.773C150.482 30.7076 150.417 30.6472 150.35 30.592C150.025 30.326 149.626 30.1796 149.213 30.1796C148.8 30.1796 148.401 30.326 148.076 30.592C148.008 30.6472 147.944 30.7076 147.883 30.773C147.869 30.7878 147.856 30.8029 147.842 30.8182ZM158.475 36.9449C158.644 36.8108 158.818 36.6802 158.997 36.5673C159.325 36.36 159.671 36.2123 160.041 36.2123C160.879 36.2123 161.585 36.9026 161.213 37.6311C160.957 38.1316 160.567 38.5934 160.059 38.9862C160.042 38.9986 160.026 39.011 160.01 39.0234C160 39.0308 159.99 39.0382 159.98 39.0456C159.794 39.1834 159.596 39.3101 159.388 39.4252C158.461 39.9376 157.329 40.2192 156.159 40.2192C154.989 40.2192 153.857 39.9376 152.93 39.4252C152.722 39.3101 152.524 39.1834 152.338 39.0456C152.311 39.026 152.285 39.0062 152.259 38.9862C151.751 38.5934 151.361 38.1316 151.105 37.6311C150.733 36.9026 151.439 36.2123 152.277 36.2123C152.647 36.2123 152.993 36.36 153.321 36.5673C153.5 36.6802 153.673 36.8108 153.843 36.9449C153.874 36.9696 153.905 36.9944 153.936 37.0192C153.981 37.0552 154.025 37.0912 154.07 37.1271C154.21 37.2411 154.349 37.353 154.485 37.4538C154.929 37.7831 155.531 37.968 156.159 37.968C156.787 37.968 157.389 37.7831 157.833 37.4538C157.969 37.353 158.107 37.2412 158.248 37.1272L158.322 37.0678L158.345 37.0487L158.382 37.0192C158.413 36.9944 158.444 36.9696 158.475 36.9449ZM161.312 31.0903C161.37 30.9942 161.437 30.9031 161.511 30.8182C161.524 30.8029 161.538 30.7878 161.552 30.773C161.612 30.7076 161.677 30.6472 161.744 30.592C162.07 30.326 162.469 30.1796 162.882 30.1796C163.294 30.1796 163.693 30.326 164.019 30.592C164.086 30.6472 164.151 30.7076 164.211 30.773C164.225 30.7878 164.239 30.8029 164.252 30.8182C164.326 30.9031 164.393 30.9942 164.451 31.0903C164.549 31.2494 164.66 31.4088 164.785 31.5553C165.096 31.9203 165.492 32.2055 165.967 32.2055C166.633 32.2055 167.187 31.6754 167.036 31.0467C166.936 30.6319 166.783 30.234 166.582 29.8645C166.508 29.7293 166.428 29.5979 166.342 29.4709C166.263 29.3549 166.178 29.2425 166.089 29.1342C166.033 29.0666 165.976 29.0006 165.916 28.9363C165.111 28.0693 164.02 27.5822 162.882 27.5822C161.743 27.5822 160.652 28.0693 159.847 28.9363C159.787 29.0006 159.73 29.0666 159.674 29.1342C159.585 29.2425 159.5 29.3549 159.421 29.4709C159.335 29.5979 159.255 29.7293 159.181 29.8645C158.98 30.234 158.827 30.6319 158.727 31.0467C158.576 31.6754 159.13 32.2055 159.796 32.2055C160.271 32.2055 160.667 31.9203 160.978 31.5553C161.103 31.4088 161.214 31.2494 161.312 31.0903Z" fill="#6444F4"/>
<path fill-rule="evenodd" clip-rule="evenodd" d="M157.429 4.67124C156.699 4.67124 155.998 4.95267 155.481 5.45362C154.965 5.95458 154.674 6.63402 154.674 7.34247V18.0274C154.674 18.7359 154.965 19.4153 155.481 19.9163C155.998 20.4172 156.699 20.6987 157.429 20.6987H160.184C160.945 20.6987 161.562 21.2966 161.562 22.0343V23.6822L166.363 20.889C166.577 20.7644 166.822 20.6987 167.072 20.6987H173.959C174.69 20.6987 175.391 20.4172 175.907 19.9163C176.424 19.4153 176.714 18.7359 176.714 18.0274V7.34247C176.714 6.63402 176.424 5.95458 175.907 5.45362C175.391 4.95267 174.69 4.67124 173.959 4.67124H157.429ZM153.533 3.56477C154.567 2.56287 155.968 2 157.429 2H173.959C175.42 2 176.822 2.56287 177.855 3.56477C178.889 4.56668 179.469 5.92556 179.469 7.34247V18.0274C179.469 19.4443 178.889 20.8032 177.855 21.8051C176.822 22.807 175.42 23.3699 173.959 23.3699H167.453L160.893 27.1864C160.467 27.434 159.937 27.4405 159.506 27.2034C159.074 26.9663 158.807 26.5223 158.807 26.0411V23.3699H157.429C155.968 23.3699 154.567 22.807 153.533 21.8051C152.5 20.8032 151.919 19.4443 151.919 18.0274V7.34247C151.919 5.92556 152.5 4.56668 153.533 3.56477ZM158.807 10.0137C158.807 9.27607 159.424 8.67809 160.184 8.67809H171.204C171.965 8.67809 172.582 9.27607 172.582 10.0137C172.582 10.7514 171.965 11.3493 171.204 11.3493H160.184C159.424 11.3493 158.807 10.7514 158.807 10.0137ZM158.807 15.3562C158.807 14.6185 159.424 14.0206 160.184 14.0206H168.449C169.21 14.0206 169.827 14.6185 169.827 15.3562C169.827 16.0938 169.21 16.6918 168.449 16.6918H160.184C159.424 16.6918 158.807 16.0938 158.807 15.3562Z" fill="#6444F4"/>
<path d="M87.5378 44.4022C86.6506 44.4022 85.965 44.1764 85.481 43.7249C84.997 43.2546 84.7551 42.5962 84.7551 41.7496V26.6526C84.7551 25.7872 84.997 25.1288 85.481 24.6772C85.965 24.2257 86.6506 24 87.5378 24C88.4452 24 89.1309 24.2257 89.5947 24.6772C90.0786 25.1288 90.3206 25.7872 90.3206 26.6526V41.7496C90.3206 42.5962 90.0887 43.2546 89.6249 43.7249C89.1611 44.1764 88.4654 44.4022 87.5378 44.4022Z" fill="#6444F4"/>
<path d="M96.0835 44.4022C95.1962 44.4022 94.5005 44.1764 93.9964 43.7249C93.5124 43.2546 93.2704 42.5868 93.2704 41.7214V26.9348C93.2704 26.0694 93.5124 25.4109 93.9964 24.9594C94.5005 24.4891 95.2264 24.254 96.1742 24.254H106.247C106.973 24.254 107.517 24.4233 107.88 24.7619C108.243 25.1005 108.424 25.5897 108.424 26.2293C108.424 26.8877 108.243 27.3957 107.88 27.7531C107.517 28.0917 106.973 28.261 106.247 28.261H98.836V32.2681H105.581C106.287 32.2681 106.821 32.4374 107.184 32.776C107.567 33.1147 107.759 33.6038 107.759 34.2434C107.759 34.9018 107.567 35.4004 107.184 35.739C106.821 36.0776 106.287 36.2469 105.581 36.2469H98.836V41.7214C98.836 43.5086 97.9185 44.4022 96.0835 44.4022Z" fill="#6444F4"/>
<path d="M117.89 44.4022C117.003 44.4022 116.317 44.1764 115.833 43.7249C115.349 43.2546 115.107 42.5868 115.107 41.7214V35.1698L109.3 27.4991C108.957 27.0476 108.806 26.5491 108.846 26.0035C108.906 25.4392 109.148 24.9688 109.572 24.5926C110.016 24.1975 110.641 24 111.447 24C112.012 24 112.526 24.1317 112.99 24.3951C113.454 24.6396 113.887 25.0629 114.291 25.6649L117.89 30.8521L121.671 25.6367C122.094 25.0347 122.528 24.6114 122.972 24.3668C123.415 24.1223 123.939 24 124.544 24C125.311 24 125.906 24.1787 126.329 24.5362C126.753 24.8936 126.974 25.3451 126.994 25.8907C127.035 26.4362 126.853 26.9912 126.45 27.5556L120.673 35.3329V41.7214C120.673 43.5086 119.745 44.4022 117.89 44.4022Z" fill="#6444F4"/>
<path d="M2.78277 44.4022C1.89551 44.4022 1.2099 44.1764 0.72594 43.7249C0.24198 43.2546 0 42.5962 0 41.7496V26.6526C0 25.7872 0.24198 25.1288 0.72594 24.6772C1.2099 24.2257 1.89551 24 2.78277 24C3.69019 24 4.3758 24.2257 4.8396 24.6772C5.32356 25.1288 5.56554 25.7872 5.56554 26.6526V31.9295H14.3676V26.6526C14.3676 25.7872 14.5995 25.1288 15.0633 24.6772C15.5472 24.2257 16.2429 24 17.1503 24C18.0376 24 18.7131 24.2257 19.1769 24.6772C19.6609 25.1288 19.9029 25.7872 19.9029 26.6526V41.7496C19.9029 42.5962 19.6609 43.2546 19.1769 43.7249C18.7131 44.1764 18.0376 44.4022 17.1503 44.4022C16.2429 44.4022 15.5472 44.1764 15.0633 43.7249C14.5995 43.2546 14.3676 42.5962 14.3676 41.7496V36.1905H5.56554V41.7496C5.56554 42.5962 5.33364 43.2546 4.86985 43.7249C4.40605 44.1764 3.71036 44.4022 2.78277 44.4022Z" fill="#6444F4"/>
<path d="M25.7749 44.1482C24.8271 44.1482 24.1012 43.9224 23.5971 43.4709C23.1131 43.0006 22.8711 42.3328 22.8711 41.4674V26.9348C22.8711 26.0694 23.1131 25.4109 23.5971 24.9594C24.1012 24.4891 24.8271 24.254 25.7749 24.254H36.0288C36.7547 24.254 37.2992 24.4233 37.6622 24.7619C38.0251 25.1005 38.2066 25.5897 38.2066 26.2293C38.2066 26.8877 38.0251 27.3957 37.6622 27.7531C37.2992 28.0917 36.7547 28.261 36.0288 28.261H28.1947V32.0423H35.3633C36.0691 32.0423 36.6035 32.2117 36.9665 32.5503C37.3496 32.8889 37.5412 33.3874 37.5412 34.0459C37.5412 34.7043 37.3496 35.2028 36.9665 35.5415C36.6035 35.8801 36.0691 36.0494 35.3633 36.0494H28.1947V40.1411H36.0288C36.7547 40.1411 37.2992 40.3199 37.6622 40.6773C38.0251 41.0159 38.2066 41.505 38.2066 42.1447C38.2066 42.8031 38.0251 43.3016 37.6622 43.6403C37.2992 43.9789 36.7547 44.1482 36.0288 44.1482H25.7749Z" fill="#6444F4"/>
<path d="M41.2167 44.4022C40.5916 44.4022 40.0673 44.2705 39.6438 44.0071C39.2204 43.7249 38.9582 43.3487 38.8574 42.8784C38.7566 42.3892 38.8473 41.8437 39.1296 41.2417L46.6613 26.1164C47.0242 25.3827 47.4678 24.8466 47.9921 24.5079C48.5366 24.1693 49.1516 24 49.8372 24C50.5229 24 51.1177 24.1693 51.6218 24.5079C52.1461 24.8466 52.5998 25.3827 52.983 26.1164L60.5146 41.2417C60.8372 41.8437 60.9482 42.3892 60.8473 42.8784C60.7667 43.3675 60.5146 43.7437 60.0911 44.0071C59.6878 44.2705 59.1837 44.4022 58.5788 44.4022C57.7722 44.4022 57.1471 44.2329 56.7034 43.8942C56.28 43.5556 55.8968 43.01 55.554 42.2575L54.5766 40.1129H45.0677L44.0902 42.2575C43.7272 43.01 43.3542 43.5556 42.9711 43.8942C42.5879 44.2329 42.0031 44.4022 41.2167 44.4022ZM49.7767 29.672L47.0129 36.1039L46.876 36.1341H52.763L49.8372 29.672H49.7767Z" fill="#6444F4"/>
<path fill-rule="evenodd" clip-rule="evenodd" d="M64.0558 43.7249C64.5398 44.1764 65.2254 44.4022 66.1126 44.4022C67.0402 44.4022 67.7359 44.1764 68.1997 43.7249C68.6635 43.2546 68.8954 42.6056 68.8954 41.7778V36.7266H70.559C71.043 36.7266 71.4665 36.8113 71.8294 36.9806C72.2126 37.1311 72.5251 37.4133 72.7671 37.8272L75.5196 42.5397C75.9028 43.1793 89.5935 65.7532 90.0208 66.0365C90.0489 66.0717 90.0796 66.106 90.1127 66.1392C90.832 67.0055 92.1447 67.2646 93.1903 66.7014C94.3315 66.0867 94.7225 64.7253 94.0636 63.6607L91.04 58.7748C87.0951 51.9726 80.9706 41.413 80.7524 41.0441L79.2401 38.5044C78.7964 37.7143 78.2419 37.1311 77.5765 36.7549C77.2622 36.5683 76.9254 36.4258 76.5662 36.3273C76.9695 36.2215 77.3466 36.0913 77.6974 35.9365C78.8267 35.4286 79.6837 34.7137 80.2685 33.7919C80.8734 32.8513 81.1759 31.7507 81.1759 30.4903C81.1759 28.5338 80.5105 27.01 79.1796 25.9189C77.8689 24.8089 76.0036 24.254 73.5838 24.254H66.1429C65.2556 24.254 64.5599 24.4797 64.0558 24.9312C63.5719 25.3827 63.3299 26.0317 63.3299 26.8783V41.7778C63.3299 42.6056 63.5719 43.2546 64.0558 43.7249ZM72.5856 33.0582H68.8954V28.2328H72.5856C73.6544 28.2328 74.471 28.4397 75.0357 28.8536C75.6003 29.2487 75.8826 29.8413 75.8826 30.6314C75.8826 31.4591 75.6003 32.0706 75.0357 32.4656C74.471 32.8607 73.6544 33.0582 72.5856 33.0582Z" fill="#6444F4"/>
</svg>
