<svg width="541" height="204" viewBox="0 0 541 204" fill="none" xmlns="http://www.w3.org/2000/svg">
<g clip-path="url(#clip0_3494_2688)">
<path d="M9.18164 130.152C6.52318 130.152 4.46892 129.427 3.01885 127.977C1.56878 126.466 0.84375 124.352 0.84375 121.633V73.1461C0.84375 70.3668 1.56878 68.2521 3.01885 66.8021C4.46892 65.352 6.52318 64.627 9.18164 64.627C11.9005 64.627 13.9548 65.352 15.3444 66.8021C16.7945 68.2521 17.5195 70.3668 17.5195 73.1461V90.0938H43.8926V73.1461C43.8926 70.3668 44.5874 68.2521 45.9771 66.8021C47.4272 65.352 49.5116 64.627 52.2305 64.627C54.889 64.627 56.913 65.352 58.3027 66.8021C59.7527 68.2521 60.4778 70.3668 60.4778 73.1461V121.633C60.4778 124.352 59.7527 126.466 58.3027 127.977C56.913 129.427 54.889 130.152 52.2305 130.152C49.5116 130.152 47.4272 129.427 45.9771 127.977C44.5874 126.466 43.8926 124.352 43.8926 121.633V103.779H17.5195V121.633C17.5195 124.352 16.8247 126.466 15.4351 127.977C14.0454 129.427 11.9609 130.152 9.18164 130.152Z" fill="#6542F7"/>
<path d="M78.0719 129.336C75.2322 129.336 73.0571 128.611 71.5466 127.161C70.0965 125.651 69.3715 123.506 69.3715 120.726V74.0524C69.3715 71.2731 70.0965 69.1584 71.5466 67.7083C73.0571 66.1979 75.2322 65.4426 78.0719 65.4426H108.795C110.97 65.4426 112.602 65.9864 113.689 67.0739C114.777 68.1615 115.32 69.7324 115.32 71.7867C115.32 73.9013 114.777 75.5327 113.689 76.6806C112.602 77.7682 110.97 78.312 108.795 78.312H85.3222V90.4563H106.801C108.916 90.4563 110.517 91.0001 111.605 92.0876C112.753 93.1752 113.327 94.7763 113.327 96.891C113.327 99.0056 112.753 100.607 111.605 101.694C110.517 102.782 108.916 103.326 106.801 103.326H85.3222V116.467H108.795C110.97 116.467 112.602 117.041 113.689 118.189C114.777 119.276 115.32 120.847 115.32 122.902C115.32 125.016 114.777 126.617 113.689 127.705C112.602 128.792 110.97 129.336 108.795 129.336H78.0719Z" fill="#6542F7"/>
<path d="M124.339 130.152C122.466 130.152 120.896 129.729 119.627 128.883C118.358 127.977 117.573 126.768 117.27 125.258C116.968 123.687 117.24 121.935 118.086 120.001L140.653 71.4241C141.74 69.0678 143.07 67.3458 144.64 66.2583C146.272 65.1707 148.115 64.627 150.169 64.627C152.223 64.627 154.005 65.1707 155.516 66.2583C157.087 67.3458 158.446 69.0678 159.594 71.4241L182.161 120.001C183.128 121.935 183.46 123.687 183.158 125.258C182.916 126.829 182.161 128.037 180.892 128.883C179.684 129.729 178.173 130.152 176.361 130.152C173.944 130.152 172.071 129.608 170.742 128.521C169.473 127.433 168.325 125.681 167.298 123.264L162.404 111.754L168.748 116.376H131.409L137.843 111.754L132.949 123.264C131.862 125.681 130.744 127.433 129.596 128.521C128.448 129.608 126.696 130.152 124.339 130.152ZM149.988 82.8434L139.475 107.948L136.937 103.598H163.31L160.772 107.948L150.169 82.8434H149.988Z" fill="#6542F7"/>
<path d="M263.129 130.152C260.471 130.152 258.417 129.427 256.967 127.977C255.517 126.466 254.792 124.352 254.792 121.633V73.1461C254.792 70.3668 255.517 68.2521 256.967 66.8021C258.417 65.352 260.471 64.627 263.129 64.627C265.848 64.627 267.903 65.352 269.292 66.8021C270.742 68.2521 271.467 70.3668 271.467 73.1461V121.633C271.467 124.352 270.772 126.466 269.383 127.977C267.993 129.427 265.909 130.152 263.129 130.152Z" fill="#6542F7"/>
<path d="M288.734 130.152C286.076 130.152 283.991 129.427 282.481 127.977C281.031 126.466 280.306 124.321 280.306 121.542V74.0524C280.306 71.2731 281.031 69.1584 282.481 67.7083C283.991 66.1979 286.166 65.4426 289.006 65.4426H319.186C321.361 65.4426 322.992 65.9864 324.08 67.0739C325.167 68.1615 325.711 69.7324 325.711 71.7867C325.711 73.9013 325.167 75.5327 324.08 76.6806C322.992 77.7682 321.361 78.312 319.186 78.312H296.982V91.1813H317.192C319.307 91.1813 320.908 91.7251 321.995 92.8126C323.143 93.9002 323.717 95.4711 323.717 97.5254C323.717 99.64 323.143 101.241 321.995 102.329C320.908 103.416 319.307 103.96 317.192 103.96H296.982V121.542C296.982 127.282 294.232 130.152 288.734 130.152Z" fill="#6542F7"/>
<path d="M354.072 130.152C351.414 130.152 349.36 129.427 347.909 127.977C346.459 126.466 345.734 124.321 345.734 121.542V96.7097L349.178 105.863L328.334 75.865C327.306 74.4149 326.853 72.8138 326.974 71.0616C327.155 69.249 327.88 67.7386 329.149 66.5302C330.478 65.2614 332.351 64.627 334.768 64.627C336.46 64.627 338.001 65.0499 339.39 65.8958C340.78 66.6812 342.079 68.0407 343.287 69.9741L355.975 88.6437H352.713L365.401 69.8835C366.67 67.95 367.969 66.5906 369.298 65.8051C370.627 65.0197 372.198 64.627 374.011 64.627C376.307 64.627 378.089 65.2009 379.358 66.3489C380.627 67.4969 381.291 68.9469 381.352 70.6991C381.472 72.4513 380.929 74.2337 379.72 76.0462L359.057 105.863L362.41 96.7097V121.542C362.41 127.282 359.631 130.152 354.072 130.152Z" fill="#6542F7"/>
<path fill-rule="evenodd" clip-rule="evenodd" d="M412.917 39.5483C413.631 38.741 414.201 37.4641 414.201 35.8743C414.201 34.2844 413.631 33.0076 412.917 32.2002C412.215 31.407 411.487 31.154 410.897 31.154C410.307 31.154 409.579 31.407 408.877 32.2002C408.163 33.0076 407.593 34.2844 407.593 35.8743C407.593 37.4641 408.163 38.741 408.877 39.5483C409.579 40.3415 410.307 40.5945 410.897 40.5945C411.487 40.5945 412.215 40.3415 412.917 39.5483ZM421.754 35.8743C421.754 40.9481 419.03 45.3027 415.145 47.1718V69.8602H416.814C419.828 56.3542 431.885 46.2589 446.299 46.2589H463.548C469.428 46.2589 457.031 51.849 467.068 54.7554C468.012 56.1714 484.741 68.0652 486.488 68.4441C494.834 70.2544 508.516 62.6076 515.215 61.8358C522.009 61.0529 521.823 66.084 522.522 69.8602H533.152C537.323 69.8602 540.705 73.2416 540.705 77.4127V107.622C540.705 111.793 537.323 115.175 533.152 115.175H521.823L521.816 115.175C518.462 128.204 506.634 137.832 492.558 137.832H446.299C432.223 137.832 420.395 128.204 417.041 115.175L417.033 115.175H405.705C401.534 115.175 398.152 111.793 398.152 107.622V77.4127C398.152 73.2416 401.534 69.8602 405.705 69.8602H407.593L407.593 47.5682C403.213 45.988 400.04 41.3499 400.04 35.8743C400.04 29.0962 404.901 23.6016 410.897 23.6016C416.893 23.6016 421.754 29.0962 421.754 35.8743ZM467.068 54.7554H446.299C434.307 54.7554 424.586 64.4767 424.586 76.4686V77.4127V107.622C424.586 119.614 434.307 129.336 446.299 129.336H492.558C504.55 129.336 514.271 119.614 514.271 107.622V77.4127V76.4686C514.271 73.3506 514.743 66.556 510.495 64.1959C505.121 62.591 496.312 66.3477 488.782 66.556C482.953 66.7173 477.796 65.5173 473.677 63.2518C468.989 62.372 471.462 56.0277 467.068 54.7554ZM522.767 106.678H532.208V78.3567H522.767V106.678ZM406.649 78.3567H416.089V106.678H406.649V78.3567ZM445.201 88.2685C444.981 88.5285 444.783 88.8076 444.609 89.102C444.32 89.5891 443.989 90.0773 443.618 90.5261C442.693 91.6442 441.517 92.5175 440.106 92.5175C438.129 92.5175 436.484 90.894 436.933 88.9683C437.229 87.6978 437.683 86.479 438.281 85.3473C438.5 84.9332 438.738 84.5308 438.995 84.1419C439.229 83.7864 439.48 83.4421 439.745 83.1103C439.91 82.9033 440.082 82.7012 440.259 82.5043C442.649 79.8487 445.891 78.3567 449.271 78.3567C452.651 78.3567 455.893 79.8487 458.283 82.5043C458.46 82.7012 458.632 82.9033 458.797 83.1103C459.063 83.4421 459.313 83.7864 459.548 84.1419C459.804 84.5308 460.042 84.9332 460.261 85.3473C460.859 86.479 461.313 87.6978 461.609 88.9683C462.058 90.894 460.413 92.5175 458.436 92.5175C457.025 92.5175 455.849 91.6442 454.924 90.5261C454.553 90.0773 454.222 89.5891 453.933 89.102C453.759 88.8076 453.561 88.5286 453.341 88.2685C453.301 88.2217 453.261 88.1755 453.22 88.1299C453.04 87.9298 452.849 87.7448 452.648 87.5756C451.682 86.7608 450.497 86.3125 449.271 86.3125C448.045 86.3125 446.86 86.7608 445.894 87.5756C445.693 87.7448 445.502 87.9298 445.322 88.1299C445.281 88.1755 445.241 88.2217 445.201 88.2685ZM476.779 107.034C477.282 106.623 477.797 106.223 478.329 105.877C479.303 105.243 480.33 104.79 481.428 104.79C483.918 104.79 486.014 106.905 484.91 109.136C484.151 110.669 482.991 112.083 481.482 113.286C481.434 113.325 481.386 113.363 481.337 113.4C481.308 113.423 481.278 113.446 481.249 113.468C480.697 113.89 480.109 114.279 479.49 114.631C476.736 116.201 473.376 117.063 469.9 117.063C466.425 117.063 463.065 116.201 460.31 114.631C459.692 114.279 459.104 113.89 458.552 113.468C458.474 113.408 458.396 113.348 458.319 113.286C456.81 112.083 455.65 110.669 454.891 109.136C453.787 106.905 455.883 104.79 458.373 104.79C459.471 104.79 460.498 105.243 461.472 105.877C462.003 106.223 462.519 106.623 463.022 107.034C463.114 107.11 463.207 107.186 463.298 107.262C463.432 107.372 463.564 107.482 463.695 107.592C464.113 107.941 464.524 108.284 464.928 108.593C466.247 109.601 468.035 110.168 469.9 110.168C471.766 110.168 473.554 109.601 474.873 108.593C475.277 108.284 475.687 107.942 476.105 107.592L476.323 107.411L476.394 107.352L476.502 107.262C476.594 107.186 476.686 107.11 476.779 107.034ZM485.203 89.102C485.378 88.8076 485.576 88.5285 485.796 88.2685C485.835 88.2217 485.876 88.1755 485.917 88.1299C486.097 87.9298 486.288 87.7448 486.488 87.5756C487.454 86.7608 488.639 86.3125 489.865 86.3125C491.092 86.3125 492.277 86.7608 493.242 87.5756C493.443 87.7448 493.634 87.9298 493.814 88.1299C493.855 88.1755 493.896 88.2217 493.935 88.2685C494.155 88.5286 494.353 88.8076 494.528 89.102C494.817 89.5891 495.147 90.0773 495.518 90.5261C496.443 91.6442 497.619 92.5175 499.03 92.5175C501.007 92.5175 502.652 90.894 502.203 88.9683C501.907 87.6978 501.454 86.479 500.856 85.3473C500.637 84.9332 500.399 84.5308 500.142 84.1419C499.907 83.7864 499.657 83.4421 499.392 83.1103C499.226 82.9033 499.054 82.7012 498.877 82.5043C496.487 79.8487 493.245 78.3567 489.865 78.3567C486.485 78.3567 483.244 79.8487 480.853 82.5043C480.676 82.7012 480.505 82.9033 480.339 83.1103C480.074 83.4421 479.824 83.7864 479.589 84.1419C479.332 84.5308 479.094 84.9332 478.875 85.3473C478.277 86.479 477.823 87.6978 477.527 88.9683C477.079 90.894 478.724 92.5175 480.701 92.5175C482.112 92.5175 483.288 91.6442 484.212 90.5261C484.583 90.0773 484.914 89.5891 485.203 89.102Z" fill="#6542F7"/>
<path fill-rule="evenodd" clip-rule="evenodd" d="M473.674 8.18083C471.504 8.18083 469.423 9.04284 467.888 10.5772C466.354 12.1116 465.492 14.1927 465.492 16.3626V49.0898C465.492 51.2598 466.354 53.3409 467.888 54.8753C469.423 56.4096 471.504 57.2716 473.674 57.2716H481.855C484.115 57.2716 485.946 59.1032 485.946 61.3626V66.4099L500.205 57.8546C500.841 57.4732 501.569 57.2716 502.31 57.2716H522.764C524.934 57.2716 527.016 56.4096 528.55 54.8753C530.084 53.3409 530.946 51.2598 530.946 49.0898V16.3626C530.946 14.1927 530.084 12.1116 528.55 10.5772C527.016 9.04284 524.934 8.18083 522.764 8.18083H473.674ZM462.103 4.79181C465.172 1.72304 469.334 -0.000976562 473.674 -0.000976562H522.764C527.104 -0.000976562 531.267 1.72304 534.335 4.79181C537.404 7.86059 539.128 12.0227 539.128 16.3626V49.0898C539.128 53.4297 537.404 57.5919 534.335 60.6607C531.267 63.7294 527.104 65.4535 522.764 65.4535H503.443L483.96 77.1432C482.696 77.9015 481.122 77.9213 479.84 77.1952C478.557 76.469 477.765 75.1091 477.765 73.6353V65.4535H473.674C469.334 65.4535 465.172 63.7294 462.103 60.6607C459.034 57.5919 457.31 53.4297 457.31 49.0898V16.3626C457.31 12.0227 459.034 7.86058 462.103 4.79181ZM477.765 24.5444C477.765 22.2851 479.596 20.4535 481.855 20.4535H514.583C516.842 20.4535 518.674 22.2851 518.674 24.5444C518.674 26.8038 516.842 28.6353 514.583 28.6353H481.855C479.596 28.6353 477.765 26.8038 477.765 24.5444ZM477.765 40.908C477.765 38.6487 479.596 36.8171 481.855 36.8171H506.401C508.66 36.8171 510.492 38.6487 510.492 40.908C510.492 43.1674 508.66 44.9989 506.401 44.9989H481.855C479.596 44.9989 477.765 43.1674 477.765 40.908Z" fill="#00FF99"/>
<path fill-rule="evenodd" clip-rule="evenodd" d="M192.771 127.976C194.221 129.426 196.276 130.151 198.934 130.151C201.713 130.151 203.798 129.426 205.187 127.976C206.577 126.465 207.272 124.381 207.272 121.722V105.5H212.257C213.707 105.5 214.975 105.771 216.063 106.315C217.211 106.799 218.147 107.705 218.873 109.034L227.12 124.169C228.268 126.223 269.289 198.723 270.569 199.633C270.653 199.746 270.745 199.856 270.844 199.963C273 202.745 276.933 203.577 280.066 201.768C283.485 199.794 284.657 195.422 282.682 192.003L273.623 176.311C261.803 154.464 243.452 120.55 242.799 119.366L238.267 111.209C236.938 108.672 235.276 106.799 233.283 105.59C232.341 104.991 231.332 104.533 230.255 104.217C231.464 103.877 232.594 103.459 233.645 102.962C237.029 101.331 239.596 99.0346 241.349 96.0741C243.161 93.0531 244.067 89.5186 244.067 85.4705C244.067 79.1868 242.074 74.2929 238.086 70.7885C234.159 67.2238 228.57 65.4414 221.319 65.4414H199.025C196.366 65.4414 194.282 66.1664 192.771 67.6165C191.321 69.0666 190.596 71.151 190.596 73.8699V121.722C190.596 124.381 191.321 126.465 192.771 127.976ZM218.329 93.7177H207.272V78.2201H218.329C221.531 78.2201 223.978 78.8847 225.67 80.214C227.361 81.4828 228.207 83.386 228.207 85.9236C228.207 88.5821 227.361 90.5457 225.67 91.8145C223.978 93.0833 221.531 93.7177 218.329 93.7177Z" fill="#00FF99"/>
</g>
<defs>
<clipPath id="clip0_3494_2688">
<rect width="539.999" height="204" fill="white" transform="translate(0.706543 0.000488281)"/>
</clipPath>
</defs>
</svg>
