<svg width="56" height="56" viewBox="0 0 56 56" fill="none" xmlns="http://www.w3.org/2000/svg">
<g clip-path="url(#clip0_2859_4509)">
<path d="M19.8334 0H5.83334C4.28624 0 2.80251 0.614582 1.70855 1.70855C0.614582 2.80251 0 4.28624 0 5.83334L0 19.8334C0 21.3805 0.614582 22.8642 1.70855 23.9581C2.80251 25.0521 4.28624 25.6667 5.83334 25.6667H19.8334C21.3805 25.6667 22.8642 25.0521 23.9581 23.9581C25.0521 22.8642 25.6667 21.3805 25.6667 19.8334V5.83334C25.6667 4.28624 25.0521 2.80251 23.9581 1.70855C22.8642 0.614582 21.3805 0 19.8334 0ZM23.3334 19.8334C23.3334 20.7616 22.9646 21.6519 22.3082 22.3082C21.6519 22.9646 20.7616 23.3334 19.8334 23.3334H5.83334C4.90508 23.3334 4.01484 22.9646 3.35846 22.3082C2.70209 21.6519 2.33334 20.7616 2.33334 19.8334V5.83334C2.33334 4.90508 2.70209 4.01484 3.35846 3.35846C4.01484 2.70209 4.90508 2.33334 5.83334 2.33334H19.8334C20.7616 2.33334 21.6519 2.70209 22.3082 3.35846C22.9646 4.01484 23.3334 4.90508 23.3334 5.83334V19.8334Z" fill="#FEFDFF"/>
<path d="M50.1666 0H36.1666C34.6195 0 33.1358 0.614582 32.0418 1.70855C30.9478 2.80251 30.3333 4.28624 30.3333 5.83334V19.8334C30.3333 21.3805 30.9478 22.8642 32.0418 23.9581C33.1358 25.0521 34.6195 25.6667 36.1666 25.6667H50.1666C50.9326 25.6667 51.6912 25.5158 52.3989 25.2227C53.1067 24.9295 53.7497 24.4998 54.2914 23.9581C54.8331 23.4165 55.2628 22.7734 55.5559 22.0657C55.8491 21.3579 55.9999 20.5994 55.9999 19.8334V5.83334C55.9999 5.06729 55.8491 4.30875 55.5559 3.60102C55.2628 2.89328 54.8331 2.25022 54.2914 1.70855C53.7497 1.16687 53.1067 0.737189 52.3989 0.444036C51.6912 0.150884 50.9326 0 50.1666 0ZM53.6666 19.8334C53.6666 20.7616 53.2979 21.6519 52.6415 22.3082C51.9851 22.9646 51.0949 23.3334 50.1666 23.3334H36.1666C35.2383 23.3334 34.3481 22.9646 33.6917 22.3082C33.0353 21.6519 32.6666 20.7616 32.6666 19.8334V5.83334C32.6666 4.90508 33.0353 4.01484 33.6917 3.35846C34.3481 2.70209 35.2383 2.33334 36.1666 2.33334H50.1666C51.0949 2.33334 51.9851 2.70209 52.6415 3.35846C53.2979 4.01484 53.6666 4.90508 53.6666 5.83334V19.8334Z" fill="#FEFDFF"/>
<path d="M19.8334 30.3333H5.83334C4.28624 30.3333 2.80251 30.9478 1.70855 32.0418C0.614582 33.1358 0 34.6195 0 36.1666L0 50.1666C0 50.9326 0.150884 51.6912 0.444036 52.3989C0.737189 53.1067 1.16687 53.7497 1.70855 54.2914C2.25022 54.8331 2.89328 55.2628 3.60102 55.5559C4.30875 55.8491 5.06729 55.9999 5.83334 55.9999H19.8334C20.5994 55.9999 21.3579 55.8491 22.0657 55.5559C22.7734 55.2628 23.4165 54.8331 23.9581 54.2914C24.4998 53.7497 24.9295 53.1067 25.2227 52.3989C25.5158 51.6912 25.6667 50.9326 25.6667 50.1666V36.1666C25.6667 34.6195 25.0521 33.1358 23.9581 32.0418C22.8642 30.9478 21.3805 30.3333 19.8334 30.3333ZM23.3334 50.1666C23.3334 51.0949 22.9646 51.9851 22.3082 52.6415C21.6519 53.2979 20.7616 53.6666 19.8334 53.6666H5.83334C4.90508 53.6666 4.01484 53.2979 3.35846 52.6415C2.70209 51.9851 2.33334 51.0949 2.33334 50.1666V36.1666C2.33334 35.2383 2.70209 34.3481 3.35846 33.6917C4.01484 33.0353 4.90508 32.6666 5.83334 32.6666H19.8334C20.7616 32.6666 21.6519 33.0353 22.3082 33.6917C22.9646 34.3481 23.3334 35.2383 23.3334 36.1666V50.1666Z" fill="#FEFDFF"/>
<path d="M50.1666 30.3333H36.1666C34.6195 30.3333 33.1358 30.9478 32.0418 32.0418C30.9478 33.1358 30.3333 34.6195 30.3333 36.1666V50.1666C30.3333 50.9326 30.4841 51.6912 30.7773 52.3989C31.0704 53.1067 31.5001 53.7497 32.0418 54.2914C32.5835 54.8331 33.2265 55.2628 33.9343 55.5559C34.642 55.8491 35.4005 55.9999 36.1666 55.9999H50.1666C50.9326 55.9999 51.6912 55.8491 52.3989 55.5559C53.1067 55.2628 53.7497 54.8331 54.2914 54.2914C54.8331 53.7497 55.2628 53.1067 55.5559 52.3989C55.8491 51.6912 55.9999 50.9326 55.9999 50.1666V36.1666C55.9999 35.4005 55.8491 34.642 55.5559 33.9343C55.2628 33.2265 54.8331 32.5835 54.2914 32.0418C53.7497 31.5001 53.1067 31.0704 52.3989 30.7773C51.6912 30.4841 50.9326 30.3333 50.1666 30.3333ZM53.6666 50.1666C53.6666 51.0949 53.2979 51.9851 52.6415 52.6415C51.9851 53.2979 51.0949 53.6666 50.1666 53.6666H36.1666C35.2383 53.6666 34.3481 53.2979 33.6917 52.6415C33.0353 51.9851 32.6666 51.0949 32.6666 50.1666V36.1666C32.6666 35.2383 33.0353 34.3481 33.6917 33.6917C34.3481 33.0353 35.2383 32.6666 36.1666 32.6666H50.1666C51.0949 32.6666 51.9851 33.0353 52.6415 33.6917C53.2979 34.3481 53.6666 35.2383 53.6666 36.1666V50.1666Z" fill="#FEFDFF"/>
<path d="M18.6668 9.3333H16.3334V6.99996C16.3334 6.38112 16.0876 5.78763 15.65 5.35004C15.2124 4.91246 14.6189 4.66663 14.0001 4.66663H11.6668C11.0479 4.66663 10.4544 4.91246 10.0168 5.35004C9.57925 5.78763 9.33342 6.38112 9.33342 6.99996V9.3333H7.00008C6.38124 9.3333 5.78775 9.57913 5.35017 10.0167C4.91258 10.4543 4.66675 11.0478 4.66675 11.6666V14C4.66675 14.6188 4.91258 15.2123 5.35017 15.6499C5.78775 16.0875 6.38124 16.3333 7.00008 16.3333H9.33342V18.6666C9.33342 19.2855 9.57925 19.879 10.0168 20.3166C10.4544 20.7541 11.0479 21 11.6668 21H14.0001C14.6189 21 15.2124 20.7541 15.65 20.3166C16.0876 19.879 16.3334 19.2855 16.3334 18.6666V16.3333H18.6668C19.2856 16.3333 19.8791 16.0875 20.3167 15.6499C20.7543 15.2123 21.0001 14.6188 21.0001 14V11.6666C21.0001 11.0478 20.7543 10.4543 20.3167 10.0167C19.8791 9.57913 19.2856 9.3333 18.6668 9.3333ZM18.6668 14H15.1668C14.8573 14 14.5606 14.1229 14.3418 14.3417C14.123 14.5605 14.0001 14.8572 14.0001 15.1666V18.6666H11.6668V15.1666C11.6668 14.8572 11.5438 14.5605 11.325 14.3417C11.1063 14.1229 10.8095 14 10.5001 14H7.00008V11.6666H10.5001C10.8095 11.6666 11.1063 11.5437 11.325 11.3249C11.5438 11.1061 11.6668 10.8094 11.6668 10.5V6.99996H14.0001V10.5C14.0001 10.8094 14.123 11.1061 14.3418 11.3249C14.5606 11.5437 14.8573 11.6666 15.1668 11.6666H18.6668V14Z" fill="#FEFDFF"/>
<path d="M19.4367 38.22L17.78 36.5634C17.5633 36.3464 17.306 36.1743 17.0227 36.0569C16.7394 35.9395 16.4358 35.879 16.1292 35.879C15.8225 35.879 15.5189 35.9395 15.2356 36.0569C14.9524 36.1743 14.695 36.3464 14.4783 36.5634L12.8333 38.22L11.1883 36.5634C10.9716 36.3464 10.7143 36.1743 10.431 36.0569C10.1478 35.9395 9.84413 35.879 9.53749 35.879C9.23086 35.879 8.92723 35.9395 8.64396 36.0569C8.3607 36.1743 8.10336 36.3464 7.88666 36.5634L6.22999 38.22C6.01305 38.4367 5.84094 38.6941 5.72352 38.9773C5.60609 39.2606 5.54565 39.5642 5.54565 39.8709C5.54565 40.1775 5.60609 40.4811 5.72352 40.7644C5.84094 41.0477 6.01305 41.305 6.22999 41.5217L7.88666 43.1667L6.22999 44.8234C5.7954 45.2605 5.55147 45.8519 5.55147 46.4684C5.55147 47.0848 5.7954 47.6762 6.22999 48.1134L7.88666 49.77C8.10336 49.987 8.3607 50.1591 8.64396 50.2765C8.92723 50.3939 9.23086 50.4544 9.53749 50.4544C9.84413 50.4544 10.1478 50.3939 10.431 50.2765C10.7143 50.1591 10.9716 49.987 11.1883 49.77L12.8333 48.1134L14.4783 49.77C14.695 49.987 14.9524 50.1591 15.2356 50.2765C15.5189 50.3939 15.8225 50.4544 16.1292 50.4544C16.4358 50.4544 16.7394 50.3939 17.0227 50.2765C17.306 50.1591 17.5633 49.987 17.78 49.77L19.4367 48.1134C19.6536 47.8967 19.8257 47.6393 19.9431 47.3561C20.0606 47.0728 20.121 46.7692 20.121 46.4625C20.121 46.1559 20.0606 45.8523 19.9431 45.569C19.8257 45.2857 19.6536 45.0284 19.4367 44.8117L17.78 43.1667L19.4367 41.5217C19.6536 41.305 19.8257 41.0477 19.9431 40.7644C20.0606 40.4811 20.121 40.1775 20.121 39.8709C20.121 39.5642 20.0606 39.2606 19.9431 38.9773C19.8257 38.6941 19.6536 38.4367 19.4367 38.22ZM15.3067 42.3384C15.1973 42.4468 15.1105 42.5759 15.0513 42.718C14.9921 42.8602 14.9616 43.0127 14.9616 43.1667C14.9616 43.3207 14.9921 43.4732 15.0513 43.6154C15.1105 43.7575 15.1973 43.8866 15.3067 43.995L17.78 46.4684L16.135 48.1134L13.6617 45.64C13.5532 45.5307 13.4242 45.4439 13.282 45.3847C13.1398 45.3254 12.9873 45.2949 12.8333 45.2949C12.6793 45.2949 12.5268 45.3254 12.3847 45.3847C12.2425 45.4439 12.1134 45.5307 12.005 45.64L9.53166 48.1134L7.88666 46.4684C11.6667 42.6884 11.6667 43.645 7.88666 39.865L9.53166 38.22L12.005 40.6934C12.1134 40.8027 12.2425 40.8895 12.3847 40.9487C12.5268 41.008 12.6793 41.0385 12.8333 41.0385C12.9873 41.0385 13.1398 41.008 13.282 40.9487C13.4242 40.8895 13.5532 40.8027 13.6617 40.6934L16.135 38.22L17.78 39.865L15.3067 42.3384Z" fill="#FEFDFF"/>
<path d="M49 9.33337H37.3333C36.7145 9.33337 36.121 9.57921 35.6834 10.0168C35.2458 10.4544 35 11.0479 35 11.6667V14C35 14.6189 35.2458 15.2124 35.6834 15.65C36.121 16.0875 36.7145 16.3334 37.3333 16.3334H49C49.6189 16.3334 50.2123 16.0875 50.6499 15.65C51.0875 15.2124 51.3333 14.6189 51.3333 14V11.6667C51.3333 11.0479 51.0875 10.4544 50.6499 10.0168C50.2123 9.57921 49.6189 9.33337 49 9.33337ZM49 14H37.3333V11.6667H49V14Z" fill="#FEFDFF"/>
<path d="M43.1667 35C42.4745 35 41.7978 35.2053 41.2223 35.5899C40.6467 35.9744 40.1981 36.5211 39.9332 37.1606C39.6683 37.8001 39.599 38.5039 39.734 39.1828C39.869 39.8617 40.2024 40.4854 40.6919 40.9749C41.1814 41.4644 41.805 41.7977 42.4839 41.9327C43.1629 42.0678 43.8666 41.9985 44.5061 41.7336C45.1457 41.4687 45.6923 41.0201 46.0769 40.4445C46.4615 39.8689 46.6668 39.1922 46.6668 38.5C46.6668 37.5717 46.298 36.6815 45.6416 36.0251C44.9852 35.3687 44.095 35 43.1667 35ZM43.1667 39.6667C42.8573 39.6667 42.5606 39.5438 42.3418 39.325C42.123 39.1062 42.0001 38.8094 42.0001 38.5C42.0001 38.1906 42.123 37.8938 42.3418 37.675C42.5606 37.4562 42.8573 37.3333 43.1667 37.3333C43.4762 37.3333 43.7729 37.4562 43.9917 37.675C44.2105 37.8938 44.3334 38.1906 44.3334 38.5C44.3334 38.8094 44.2105 39.1062 43.9917 39.325C43.7729 39.5438 43.4762 39.6667 43.1667 39.6667Z" fill="#FEFDFF"/>
<path d="M43.1667 44.3334C42.4745 44.3334 41.7978 44.5386 41.2223 44.9232C40.6467 45.3078 40.1981 45.8544 39.9332 46.494C39.6683 47.1335 39.599 47.8373 39.734 48.5162C39.869 49.1951 40.2024 49.8188 40.6919 50.3082C41.1814 50.7977 41.805 51.1311 42.4839 51.2661C43.1629 51.4012 43.8666 51.3319 44.5061 51.067C45.1457 50.802 45.6923 50.3534 46.0769 49.7779C46.4615 49.2023 46.6668 48.5256 46.6668 47.8334C46.6668 46.9051 46.298 46.0149 45.6416 45.3585C44.9852 44.7021 44.095 44.3334 43.1667 44.3334ZM43.1667 49C42.8573 49 42.5606 48.8771 42.3418 48.6583C42.123 48.4395 42.0001 48.1428 42.0001 47.8334C42.0001 47.524 42.123 47.2272 42.3418 47.0084C42.5606 46.7896 42.8573 46.6667 43.1667 46.6667C43.4762 46.6667 43.7729 46.7896 43.9917 47.0084C44.2105 47.2272 44.3334 47.524 44.3334 47.8334C44.3334 48.1428 44.2105 48.4395 43.9917 48.6583C43.7729 48.8771 43.4762 49 43.1667 49Z" fill="#FEFDFF"/>
</g>
<defs>
<clipPath id="clip0_2859_4509">
<rect width="56" height="56" fill="white"/>
</clipPath>
</defs>
</svg>
