<svg width="250" height="250" viewBox="0 0 250 250" fill="none" xmlns="http://www.w3.org/2000/svg">
<path d="M0 12C0 5.37258 5.37258 0 12 0H238C244.627 0 250 5.37258 250 12V238C250 244.627 244.627 250 238 250H12C5.37258 250 0 244.627 0 238V12Z" fill="#CBD5E1"/>
<g clip-path="url(#clip0_8919_48744)">
<path d="M43.385 165.264C46.3591 165.264 48.77 162.853 48.77 159.879C48.77 156.905 46.3591 154.494 43.385 154.494C40.411 154.494 38 156.905 38 159.879C38 162.853 40.411 165.264 43.385 165.264Z" fill="#F5F4FE"/>
<path d="M192.968 131.758C195.942 131.758 198.353 129.347 198.353 126.373C198.353 123.399 195.942 120.988 192.968 120.988C189.994 120.988 187.583 123.399 187.583 126.373C187.583 129.347 189.994 131.758 192.968 131.758Z" fill="#F5F4FE"/>
<path d="M138.52 55.77C141.494 55.77 143.905 53.3591 143.905 50.385C143.905 47.411 141.494 45 138.52 45C135.546 45 133.135 47.411 133.135 50.385C133.135 53.3591 135.546 55.77 138.52 55.77Z" stroke="#F5F4FE" stroke-width="3" stroke-miterlimit="10"/>
<path d="M59.5398 50.3848C59.2765 50.3848 59.5278 56.2365 55.9498 59.9581C52.8863 63.1412 46.3765 64.7448 46.3765 64.7448C46.3765 64.7448 53.0299 64.5413 55.9498 68.3348C58.6423 71.8171 58.3431 79.1048 58.3431 79.1048C58.3431 79.1048 58.9534 70.2135 63.1298 67.1381C65.8582 65.1277 70.3098 64.7448 70.3098 64.7448C70.3098 64.7448 65.0086 63.596 61.9331 59.9581C58.4748 55.8535 59.7911 50.3848 59.5398 50.3848Z" fill="#F5F4FE"/>
<path d="M200.746 165.266C200.483 165.266 200.734 171.117 197.156 174.839C194.093 178.022 187.583 179.626 187.583 179.626C187.583 179.626 194.236 179.422 197.156 183.216C199.849 186.698 199.55 193.986 199.55 193.986C199.55 193.986 200.16 185.094 204.336 182.019C207.065 180.009 211.516 179.626 211.516 179.626C211.516 179.626 206.215 178.477 203.14 174.839C199.681 170.734 200.998 165.266 200.746 165.266Z" fill="#F5F4FE"/>
<path d="M160.491 68.8379L88.5352 67.1387V179.781H177.902V91.2635L160.491 68.8379Z" stroke="#F5F4FE" stroke-width="6" stroke-miterlimit="10"/>
<path d="M158.684 87.0517L160.239 71.2916C160.323 70.4061 161.448 70.083 161.998 70.789L176.347 89.2656C176.897 89.9716 176.287 90.9888 175.401 90.8332L159.486 88.1168C158.983 88.033 158.624 87.5663 158.672 87.0517H158.684Z" stroke="#F5F4FE" stroke-width="6" stroke-miterlimit="10"/>
<path d="M101.794 91.7539H143.45" stroke="#F5F4FE" stroke-width="3" stroke-miterlimit="10" stroke-linecap="round"/>
<path d="M101.794 106.904L140.315 107.227" stroke="#F5F4FE" stroke-width="3" stroke-miterlimit="10" stroke-linecap="round"/>
<path d="M102.021 126.373H145.101" stroke="#F5F4FE" stroke-width="3" stroke-miterlimit="10" stroke-linecap="round"/>
<path d="M102.021 144.324L146.298 145.521" stroke="#F5F4FE" stroke-width="3" stroke-miterlimit="10" stroke-linecap="round"/>
<path d="M99.6284 163.471L143.45 163.698" stroke="#F5F4FE" stroke-width="3" stroke-miterlimit="10" stroke-linecap="round"/>
<path d="M82.8629 95.5352L60.1382 99.3286L79.0695 205.353L168.245 197.683V186.554" stroke="#F5F4FE" stroke-width="6" stroke-miterlimit="10"/>
<path d="M149.039 100.921L154.136 109.083L162.286 99.9043" stroke="#F5F4FE" stroke-width="3" stroke-linecap="round" stroke-linejoin="round"/>
<path d="M150.235 122.46L155.333 130.622L163.482 121.443" stroke="#F5F4FE" stroke-width="3" stroke-linecap="round" stroke-linejoin="round"/>
<path d="M152.282 141.93L161.855 151.503" stroke="#F5F4FE" stroke-width="3" stroke-linecap="round" stroke-linejoin="round"/>
<path d="M163.052 141.93L152.282 151.503" stroke="#F5F4FE" stroke-width="3" stroke-linecap="round" stroke-linejoin="round"/>
</g>
<defs>
<clipPath id="clip0_8919_48744">
<rect width="174" height="165" fill="white" transform="translate(38 43)"/>
</clipPath>
</defs>
</svg>
