<svg width="56" height="56" viewBox="0 0 56 56" fill="none" xmlns="http://www.w3.org/2000/svg">
  <g clip-path="url(#clip0_2859_4404)">
    <path
      d="M54.7826 9.73913H36.5217V1.21739C36.5217 0.544174 35.9763 0 35.3043 0H1.21739C0.545391 0 0 0.544174 0 1.21739V54.7826C0 55.4558 0.545391 56 1.21739 56H54.7826C55.4546 56 56 55.4558 56 54.7826V10.9565C56 10.2833 55.4546 9.73913 54.7826 9.73913ZM24.3478 53.5652H12.1739V38.9565H24.3478V53.5652ZM34.087 53.5652H26.7826V37.7391C26.7826 37.0659 26.2372 36.5217 25.5652 36.5217H10.9565C10.2845 36.5217 9.73913 37.0659 9.73913 37.7391V53.5652H2.43478V2.43478H34.087V53.5652ZM53.5652 53.5652H48.6956V45.0435C48.6956 44.3703 48.1503 43.8261 47.4783 43.8261C46.8063 43.8261 46.2609 44.3703 46.2609 45.0435V53.5652H36.5217V12.1739H46.2609V37.7391C46.2609 38.4123 46.8063 38.9565 47.4783 38.9565C48.1503 38.9565 48.6956 38.4123 48.6956 37.7391V12.1739H53.5652V53.5652Z"
      fill="#FEFDFF" />
    <path
      d="M28.0001 7.30444H8.52183C7.84983 7.30444 7.30444 7.84862 7.30444 8.52183V15.8262C7.30444 16.4994 7.84983 17.0436 8.52183 17.0436H28.0001C28.6721 17.0436 29.2175 16.4994 29.2175 15.8262V8.52183C29.2175 7.84862 28.6721 7.30444 28.0001 7.30444ZM26.7827 14.6088H9.73923V9.73923H26.7827V14.6088Z"
      fill="#FEFDFF" />
    <path
      d="M28.0001 21.9131H8.52183C7.84983 21.9131 7.30444 22.4573 7.30444 23.1305V30.4348C7.30444 31.108 7.84983 31.6522 8.52183 31.6522H28.0001C28.6721 31.6522 29.2175 31.108 29.2175 30.4348V23.1305C29.2175 22.4573 28.6721 21.9131 28.0001 21.9131ZM26.7827 29.2174H9.73923V24.3479H26.7827V29.2174Z"
      fill="#FEFDFF" />
  </g>
  <defs>
    <clipPath id="clip0_2859_4404">
      <rect width="56" height="56" fill="white" />
    </clipPath>
  </defs>
</svg>