<svg width="56" height="56" viewBox="0 0 56 56" fill="none" xmlns="http://www.w3.org/2000/svg">
  <g clip-path="url(#clip0_2860_4750)">
    <path
      d="M48.1991 55.0275C47.3851 55.0331 46.5771 54.8878 45.8161 54.5989L35.4913 50.6257C34.911 50.4077 34.3823 50.0714 33.9389 49.6382C33.4954 49.205 33.1469 48.6844 32.9153 48.1093C32.6811 47.5201 32.5718 46.8888 32.5942 46.2551C32.6167 45.6215 32.7705 44.9995 33.0459 44.4284C34.1981 41.964 37.1516 40.79 39.6301 41.8098L46.2342 44.5277C46.5823 44.671 46.8593 44.9467 47.0041 45.2941C47.149 45.6416 47.1499 46.0324 47.0066 46.3805C46.8633 46.7286 46.5877 47.0055 46.2402 47.1504C45.8927 47.2953 45.502 47.2962 45.1539 47.1529L38.5498 44.4341C37.4704 43.9904 36.128 44.5381 35.6171 45.6308C35.5082 45.8497 35.4458 46.0888 35.4339 46.333C35.422 46.5773 35.4609 46.8213 35.5481 47.0498C35.6358 47.2626 35.7668 47.4549 35.9328 47.6145C36.0987 47.7741 36.296 47.8975 36.5121 47.9769L46.8406 51.9501C47.2758 52.1142 47.7377 52.1964 48.2028 52.1923C49.4629 52.1923 50.7949 51.637 51.7655 50.7071C53.0473 49.4772 53.5052 47.8151 52.9007 46.5702L45.3497 30.9326C44.4956 29.1471 43.1678 27.6302 41.5111 26.5473C39.8543 25.4644 37.9321 24.8569 35.9539 24.7911L31.485 27.8638C30.4578 28.5641 29.2435 28.9386 28.0003 28.9386C26.7572 28.9386 25.5429 28.5641 24.5157 27.8638L20.0468 24.7911C18.0686 24.8568 16.1463 25.4642 14.4895 26.5472C12.8328 27.6301 11.505 29.147 10.651 30.9326L3.09996 46.5673C2.4983 47.8123 2.95617 49.4744 4.23518 50.7042C5.20578 51.6341 6.53776 52.1895 7.79784 52.1895C8.26344 52.1946 8.72596 52.1134 9.16199 51.9501L19.4943 47.9769C19.7099 47.8975 19.9067 47.7741 20.0721 47.6147C20.2376 47.4553 20.3681 47.2632 20.4554 47.0507C20.5428 46.8224 20.5819 46.5783 20.5702 46.3341C20.5585 46.0898 20.4962 45.8507 20.3873 45.6317C19.8765 44.54 18.5332 43.9923 17.4547 44.436L10.8506 47.1548C10.5025 47.2981 10.1117 47.2972 9.76426 47.1523C9.4168 47.0074 9.14112 46.7305 8.99786 46.3824C8.8546 46.0343 8.85549 45.6435 9.00035 45.296C9.1452 44.9486 9.42215 44.6729 9.77027 44.5296L16.3744 41.8117C18.8529 40.7919 21.8063 41.9659 22.9586 44.4303C23.234 45.0014 23.3878 45.6234 23.4102 46.257C23.4327 46.8907 23.3234 47.522 23.0891 48.1112C22.8577 48.6858 22.5093 49.206 22.0662 49.6389C21.6231 50.0717 21.0949 50.4078 20.515 50.6257L10.1827 54.5989C9.42289 54.8888 8.61582 55.0351 7.80257 55.0303C5.79798 55.0303 3.78298 54.2016 2.27504 52.7599C0.0992231 50.6787 -0.593255 47.6959 0.543848 45.3403L8.09584 29.7056C10.405 24.9236 15.1493 21.9484 20.4763 21.9484C20.7634 21.9483 21.0438 22.0354 21.2804 22.1981L26.1258 25.5252C26.6789 25.9025 27.3328 26.1042 28.0022 26.1042C28.6717 26.1042 29.3256 25.9025 29.8786 25.5252L34.7222 22.1943C34.9588 22.0316 35.2392 21.9446 35.5263 21.9446C40.8533 21.9446 45.5966 24.916 47.9067 29.7019L55.4521 45.3337C56.5873 47.6883 55.8939 50.6692 53.7219 52.7523C52.2177 54.1988 50.2027 55.0275 48.1991 55.0275Z"
      fill="#FEFDFF" />
    <path
      d="M14.4246 55.9982C14.0483 55.9982 13.6874 55.8487 13.4212 55.5825C13.1551 55.3164 13.0056 54.9555 13.0056 54.5791V51.4365C13.0056 51.0602 13.1551 50.6992 13.4212 50.4331C13.6874 50.167 14.0483 50.0175 14.4246 50.0175C14.801 50.0175 15.1619 50.167 15.428 50.4331C15.6941 50.6992 15.8436 51.0602 15.8436 51.4365V54.5791C15.8436 54.9555 15.6941 55.3164 15.428 55.5825C15.1619 55.8487 14.801 55.9982 14.4246 55.9982Z"
      fill="#FEFDFF" />
    <path
      d="M41.5762 56.0001C41.1999 56.0001 40.839 55.8506 40.5728 55.5844C40.3067 55.3183 40.1572 54.9574 40.1572 54.581V51.4365C40.1572 51.0602 40.3067 50.6992 40.5728 50.4331C40.839 50.167 41.1999 50.0175 41.5762 50.0175C41.9526 50.0175 42.3135 50.167 42.5796 50.4331C42.8457 50.6992 42.9953 51.0602 42.9953 51.4365V54.581C42.9953 54.9574 42.8457 55.3183 42.5796 55.5844C42.3135 55.8506 41.9526 56.0001 41.5762 56.0001Z"
      fill="#FEFDFF" />
    <path
      d="M16.9146 44.5391C16.5383 44.5391 16.1773 44.3896 15.9112 44.1235C15.6451 43.8574 15.4956 43.4965 15.4956 43.1201V34.2598C15.4956 33.8834 15.6451 33.5225 15.9112 33.2564C16.1773 32.9903 16.5383 32.8408 16.9146 32.8408C17.291 32.8408 17.6519 32.9903 17.918 33.2564C18.1841 33.5225 18.3336 33.8834 18.3336 34.2598V43.1163C18.3341 43.303 18.2978 43.4879 18.2267 43.6605C18.1556 43.8331 18.0512 43.99 17.9194 44.1222C17.7875 44.2543 17.6309 44.3592 17.4585 44.4307C17.2861 44.5023 17.1013 44.5391 16.9146 44.5391Z"
      fill="#FEFDFF" />
    <path
      d="M39.0863 44.5391C38.7099 44.5391 38.349 44.3896 38.0829 44.1235C37.8167 43.8574 37.6672 43.4965 37.6672 43.1201V34.2598C37.6672 33.8834 37.8167 33.5225 38.0829 33.2564C38.349 32.9903 38.7099 32.8408 39.0863 32.8408C39.4626 32.8408 39.8235 32.9903 40.0896 33.2564C40.3558 33.5225 40.5053 33.8834 40.5053 34.2598V43.1163C40.5058 43.303 40.4694 43.4879 40.3983 43.6605C40.3272 43.8331 40.2228 43.99 40.091 44.1222C39.9592 44.2543 39.8026 44.3592 39.6302 44.4307C39.4578 44.5023 39.2729 44.5391 39.0863 44.5391Z"
      fill="#FEFDFF" />
    <path
      d="M27.9999 55.9972C27.8319 55.9969 27.6654 55.9668 27.508 55.9082L16.4217 51.8063C16.0687 51.6757 15.782 51.4103 15.6247 51.0683C15.4674 50.7264 15.4524 50.3359 15.583 49.9829C15.7136 49.6299 15.9791 49.3432 16.3211 49.1859C16.663 49.0287 17.0535 49.0137 17.4065 49.1443L28.0018 53.0645L38.5971 49.1443C38.9501 49.0135 39.3406 49.0284 39.6826 49.1856C40.0247 49.3428 40.2903 49.6294 40.421 49.9824C40.5517 50.3354 40.5369 50.7259 40.3797 51.068C40.2225 51.41 39.9359 51.6756 39.5828 51.8063L28.4909 55.9082C28.3337 55.9667 28.1675 55.9968 27.9999 55.9972Z"
      fill="#FEFDFF" />
    <path
      d="M28.0076 39.7939H27.9962C27.8036 39.7937 27.6131 39.7536 27.4368 39.6761C27.2604 39.5986 27.1021 39.4854 26.9717 39.3436C26.8846 39.2575 25.4268 37.8433 22.0884 36.6144C18.9296 35.4517 17.1313 35.6684 17.1133 35.6684H17.1303L16.698 32.8635C16.944 32.8256 19.2125 32.5342 23.0684 33.9542C25.4817 34.8425 27.071 35.8235 28 36.5141C28.9299 35.8235 30.5192 34.8425 32.9325 33.9542C36.7884 32.5352 39.057 32.8256 39.302 32.8635L38.8706 35.6684H38.8867C38.8696 35.6684 37.0713 35.4517 33.9125 36.6144C30.4672 37.883 29.0472 39.3247 29.033 39.3389C28.9024 39.4809 28.7439 39.5946 28.5675 39.6728C28.3911 39.7511 28.2005 39.7923 28.0076 39.7939Z"
      fill="#FEFDFF" />
    <path
      d="M28.0001 21.0392C25.9194 21.0394 23.8855 20.4226 22.1554 19.2668C20.4254 18.111 19.0769 16.4682 18.2805 14.546C17.4842 12.6238 17.2757 10.5086 17.6815 8.46793C18.0873 6.42726 19.0891 4.55275 20.5603 3.08146C22.0314 1.61017 23.9059 0.608179 25.9465 0.202201C27.9871 -0.203778 30.1023 0.00449064 32.0246 0.800668C33.9469 1.59685 35.5898 2.94517 36.7458 4.67514C37.9018 6.4051 38.5187 8.439 38.5187 10.5196C38.5157 13.3085 37.4066 15.9823 35.4346 17.9545C33.4627 19.9266 30.789 21.036 28.0001 21.0392ZM28.0001 2.83803C26.4808 2.83803 24.9956 3.28855 23.7324 4.13261C22.4692 4.97667 21.4846 6.17638 20.9032 7.58C20.3218 8.98363 20.1697 10.5281 20.4661 12.0182C20.7625 13.5083 21.4941 14.877 22.5684 15.9513C23.6427 17.0256 25.0114 17.7572 26.5015 18.0536C27.9915 18.35 29.5361 18.1979 30.9397 17.6165C32.3433 17.0351 33.543 16.0505 34.3871 14.7873C35.2311 13.5241 35.6817 12.0389 35.6817 10.5196C35.6794 8.48303 34.8694 6.53049 33.4293 5.0904C31.9892 3.65031 30.0367 2.84028 28.0001 2.83803Z"
      fill="#FEFDFF" />
  </g>
  <defs>
    <clipPath id="clip0_2860_4750">
      <rect width="56" height="56" fill="white" />
    </clipPath>
  </defs>
</svg>