<svg width="56" height="56" viewBox="0 0 56 56" fill="none" xmlns="http://www.w3.org/2000/svg">
  <g clip-path="url(#clip0_2859_4665)">
    <path
      d="M10.9483 42.0882C10.6027 42.0878 10.269 41.9614 10.01 41.7325C9.751 41.5036 9.58442 41.188 9.54156 40.8451C9.45229 40.1441 9.11065 39.4998 8.58058 39.0326C8.05051 38.5654 7.36834 38.3073 6.66176 38.3068C6.2854 38.3068 5.92445 38.1573 5.65832 37.8911C5.39219 37.625 5.24268 37.2641 5.24268 36.8877V10.9837C5.24268 10.6073 5.39219 10.2464 5.65832 9.98024C5.92445 9.71411 6.2854 9.5646 6.66176 9.5646C7.4315 9.5636 8.16942 9.25738 8.71371 8.7131C9.25799 8.16881 9.56421 7.43089 9.56521 6.66115C9.56521 6.28479 9.71472 5.92384 9.98085 5.65771C10.247 5.39158 10.6079 5.24207 10.9843 5.24207H45.0168C45.3932 5.24207 45.7541 5.39158 46.0203 5.65771C46.2864 5.92384 46.4359 6.28479 46.4359 6.66115C46.4367 7.4308 46.7427 8.16873 47.2868 8.71304C47.8309 9.25735 48.5688 9.5636 49.3384 9.5646C49.7148 9.5646 50.0757 9.71411 50.3419 9.98024C50.608 10.2464 50.7575 10.6073 50.7575 10.9837V36.8877C50.7575 37.2641 50.608 37.625 50.3419 37.8911C50.0757 38.1573 49.7148 38.3068 49.3384 38.3068C48.6317 38.3071 47.9493 38.565 47.419 39.0322C46.8887 39.4995 46.547 40.144 46.4577 40.8451C46.4108 41.2185 46.2174 41.5581 45.9201 41.789C45.6229 42.0199 45.246 42.1233 44.8726 42.0763C44.4991 42.0294 44.1595 41.8361 43.9286 41.5388C43.6977 41.2415 43.5943 40.8647 43.6413 40.4912C43.7865 39.3477 44.272 38.2741 45.0349 37.4099C45.7977 36.5457 46.8027 35.9306 47.9193 35.6446V12.2249C46.9209 11.9679 46.0097 11.4478 45.2808 10.7188C44.5518 9.98983 44.0317 9.07864 43.7747 8.08024H12.2265C11.9697 9.07889 11.4495 9.9903 10.7203 10.7193C9.99109 11.4484 9.07956 11.9683 8.08085 12.2249V35.6474C9.19714 35.9331 10.2018 36.5477 10.9645 37.4114C11.7272 38.2752 12.2127 39.3482 12.358 40.4912C12.3829 40.691 12.3651 40.8938 12.3057 41.0862C12.2462 41.2785 12.1465 41.4561 12.0132 41.6069C11.8799 41.7578 11.716 41.8786 11.5324 41.9612C11.3488 42.0439 11.1497 42.0865 10.9483 42.0863V42.0882Z"
      fill="#FEFDFF" />
    <path
      d="M40.0074 21.748H15.9889C15.6125 21.748 15.2516 21.5985 14.9855 21.3323C14.7193 21.0662 14.5698 20.7052 14.5698 20.3289C14.5698 19.9525 14.7193 19.5916 14.9855 19.3254C15.2516 19.0593 15.6125 18.9098 15.9889 18.9098H40.0074C40.3838 18.9098 40.7447 19.0593 41.0109 19.3254C41.277 19.5916 41.4265 19.9525 41.4265 20.3289C41.4265 20.7052 41.277 21.0662 41.0109 21.3323C40.7447 21.5985 40.3838 21.748 40.0074 21.748Z"
      fill="#FEFDFF" />
    <path
      d="M36.085 14.9136H19.9149C19.5386 14.9136 19.1776 14.7641 18.9115 14.498C18.6454 14.2318 18.4958 13.8709 18.4958 13.4945C18.4958 13.1182 18.6454 12.7572 18.9115 12.4911C19.1776 12.225 19.5386 12.0754 19.9149 12.0754H36.085C36.4613 12.0754 36.8223 12.225 37.0884 12.4911C37.3545 12.7572 37.5041 13.1182 37.5041 13.4945C37.5041 13.8709 37.3545 14.2318 37.0884 14.498C36.8223 14.7641 36.4613 14.9136 36.085 14.9136Z"
      fill="#FEFDFF" />
    <path
      d="M18.4258 56C18.1953 55.9998 17.9656 55.9718 17.7418 55.9167C17.2691 55.803 16.834 55.5684 16.4792 55.2358C16.1245 54.9033 15.8622 54.4843 15.7182 54.0199L14.9727 51.6425L12.5962 50.8979C12.1318 50.7523 11.7128 50.4893 11.3799 50.1342C11.0469 49.7792 10.8113 49.3442 10.6958 48.8714C10.5802 48.3986 10.5888 47.904 10.7205 47.4354C10.8522 46.9669 11.1027 46.5403 11.4477 46.1969L17.2347 40.4099C17.3656 40.2744 17.5222 40.1663 17.6953 40.0919C17.8685 40.0175 18.0547 39.9784 18.2431 39.9767C18.4315 39.9751 18.6184 40.011 18.7928 40.0824C18.9672 40.1537 19.1256 40.2591 19.2589 40.3923C19.3921 40.5256 19.4975 40.684 19.5689 40.8584C19.6402 41.0328 19.6761 41.2197 19.6745 41.4081C19.6728 41.5965 19.6337 41.7827 19.5593 41.9559C19.4849 42.129 19.3768 42.2856 19.2413 42.4165L13.4703 48.1875L16.5384 49.1496C16.7568 49.2182 16.9553 49.3386 17.1171 49.5005C17.2789 49.6625 17.3991 49.8611 17.4674 50.0796L18.4296 53.1467L24.2176 47.3597C24.4852 47.1012 24.8437 46.9581 25.2158 46.9614C25.5878 46.9646 25.9438 47.1138 26.2069 47.3769C26.47 47.64 26.6192 47.996 26.6225 48.3681C26.6257 48.7401 26.4827 49.0986 26.2242 49.3662L20.4239 55.1665C20.1627 55.4309 19.8515 55.6407 19.5085 55.7838C19.1655 55.9269 18.7975 56.0004 18.4258 56Z"
      fill="#FEFDFF" />
    <path
      d="M37.5741 56C37.2046 55.9995 36.8388 55.9259 36.4979 55.7835C36.1569 55.6411 35.8475 55.4327 35.5874 55.1703L29.7871 49.37C29.643 49.2416 29.5266 49.0851 29.4451 48.9101C29.3635 48.7351 29.3185 48.5454 29.3129 48.3524C29.3072 48.1595 29.341 47.9674 29.4121 47.7879C29.4832 47.6085 29.5902 47.4454 29.7265 47.3087C29.8628 47.172 30.0255 47.0646 30.2048 46.9929C30.3841 46.9213 30.5761 46.887 30.769 46.8921C30.962 46.8973 31.1519 46.9417 31.3271 47.0227C31.5023 47.1038 31.6591 47.2197 31.788 47.3635L37.576 53.1505L38.5381 50.0834C38.6065 49.8649 38.7267 49.6663 38.8884 49.5043C39.0502 49.3424 39.2488 49.222 39.4671 49.1534L42.5352 48.1913L36.7642 42.4203C36.4982 42.1541 36.3487 41.7931 36.3488 41.4167C36.3489 41.0403 36.4985 40.6793 36.7647 40.4132C37.0309 40.1472 37.392 39.9977 37.7684 39.9978C38.1447 39.9979 38.5057 40.1475 38.7718 40.4137L44.5598 46.197C44.9046 46.5408 45.1548 46.968 45.2861 47.437C45.4173 47.906 45.4252 48.4009 45.3089 48.8738C45.1926 49.3467 44.956 49.7816 44.6223 50.1362C44.2885 50.4909 43.8687 50.7532 43.4037 50.8979L41.0272 51.6434L40.2817 54.0199C40.1382 54.4849 39.8762 54.9046 39.5214 55.2377C39.1666 55.5708 38.7312 55.8058 38.2581 55.9196C38.0341 55.9738 37.8045 56.0007 37.5741 56Z"
      fill="#FEFDFF" />
    <path
      d="M28.0039 43.758C27.0122 43.758 26.0427 43.4639 25.2182 42.9129C24.3936 42.362 23.7509 41.5789 23.3714 40.6627C22.9919 39.7465 22.8926 38.7383 23.0861 37.7656C23.2796 36.793 23.7571 35.8996 24.4583 35.1983C25.1596 34.4971 26.053 34.0196 27.0257 33.8261C27.9983 33.6326 29.0065 33.7319 29.9227 34.1114C30.8389 34.4909 31.622 35.1336 32.1729 35.9582C32.7239 36.7827 33.018 37.7521 33.018 38.7438C33.018 40.0737 32.4897 41.349 31.5494 42.2894C30.609 43.2297 29.3337 43.758 28.0039 43.758ZM28.0039 36.5679C27.5735 36.5679 27.1528 36.6955 26.795 36.9346C26.4371 37.1737 26.1582 37.5136 25.9936 37.9112C25.8289 38.3088 25.7858 38.7463 25.8697 39.1684C25.9537 39.5904 26.1609 39.9782 26.4652 40.2825C26.7695 40.5868 27.1573 40.794 27.5794 40.878C28.0014 40.9619 28.4389 40.9188 28.8365 40.7541C29.2341 40.5895 29.574 40.3106 29.8131 39.9527C30.0522 39.5949 30.1798 39.1742 30.1798 38.7438C30.1788 38.1674 29.9491 37.6149 29.5411 37.2077C29.1332 36.8004 28.5803 36.5717 28.0039 36.5717V36.5679Z"
      fill="#FEFDFF" />
    <path
      d="M54.5807 47.8706C54.2043 47.8706 53.8434 47.7211 53.5772 47.4549C53.3111 47.1888 53.1616 46.8279 53.1616 46.4515V2.83818H2.8389V46.4515C2.8389 46.8279 2.68939 47.1888 2.42326 47.4549C2.15713 47.7211 1.79618 47.8706 1.41982 47.8706C1.04345 47.8706 0.682503 47.7211 0.416373 47.4549C0.150243 47.1888 0.000732422 46.8279 0.000732422 46.4515L0.000732422 1.41909C0.000732422 1.04272 0.150243 0.681772 0.416373 0.415641C0.682503 0.149511 1.04345 0 1.41982 0L54.5807 0C54.957 0 55.318 0.149511 55.5841 0.415641C55.8502 0.681772 55.9998 1.04272 55.9998 1.41909V46.4515C55.9998 46.8279 55.8502 47.1888 55.5841 47.4549C55.318 47.7211 54.957 47.8706 54.5807 47.8706Z"
      fill="#FEFDFF" />
    <path
      d="M6.56708 47.8705H1.41958C1.04321 47.8705 0.68226 47.721 0.416129 47.4549C0.149999 47.1888 0.000488281 46.8278 0.000488281 46.4514C0.000488281 46.0751 0.149999 45.7141 0.416129 45.448C0.68226 45.1819 1.04321 45.0323 1.41958 45.0323H6.56708C6.94345 45.0323 7.3044 45.1819 7.57053 45.448C7.83666 45.7141 7.98617 46.0751 7.98617 46.4514C7.98617 46.8278 7.83666 47.1888 7.57053 47.4549C7.3044 47.721 6.94345 47.8705 6.56708 47.8705Z"
      fill="#FEFDFF" />
    <path
      d="M54.5805 47.8705H49.433C49.0566 47.8705 48.6957 47.721 48.4296 47.4549C48.1634 47.1888 48.0139 46.8278 48.0139 46.4514C48.0139 46.0751 48.1634 45.7141 48.4296 45.448C48.6957 45.1819 49.0566 45.0323 49.433 45.0323H54.5805C54.9569 45.0323 55.3178 45.1819 55.584 45.448C55.8501 45.7141 55.9996 46.0751 55.9996 46.4514C55.9996 46.8278 55.8501 47.1888 55.584 47.4549C55.3178 47.721 54.9569 47.8705 54.5805 47.8705Z"
      fill="#FEFDFF" />
    <path
      d="M28.0037 51.7494C27.4136 51.751 26.8309 51.6194 26.2988 51.3643C25.7668 51.1093 25.2992 50.7374 24.9309 50.2764L23.8079 48.8781L22.0255 49.073C21.4382 49.138 20.8438 49.0701 20.2862 48.8744C19.7287 48.6787 19.2222 48.3601 18.8044 47.9423C18.3866 47.5245 18.068 47.018 17.8723 46.4605C17.6765 45.9029 17.6087 45.3085 17.6737 44.7212L17.8685 42.9388L16.4712 41.8158C16.011 41.4463 15.6397 40.9782 15.3845 40.4461C15.1293 39.9139 14.9968 39.3313 14.9968 38.7411C14.9968 38.151 15.1293 37.5683 15.3845 37.0362C15.6397 36.504 16.011 36.0359 16.4712 35.6664L17.8695 34.5444L17.6746 32.7611C17.6105 32.1742 17.6791 31.5804 17.8752 31.0236C18.0714 30.4668 18.3901 29.9611 18.8078 29.5439C19.2255 29.1267 19.7316 28.8087 20.2887 28.6133C20.8458 28.4179 21.4397 28.3501 22.0265 28.4149L23.8088 28.6098L24.9318 27.2115C25.3012 26.7512 25.7693 26.3797 26.3014 26.1244C26.8336 25.8691 27.4163 25.7366 28.0065 25.7366C28.5967 25.7366 29.1794 25.8691 29.7116 26.1244C30.2437 26.3797 30.7118 26.7512 31.0812 27.2115L32.2032 28.6098L33.9865 28.4149C34.5729 28.351 35.1661 28.4195 35.7225 28.6153C36.2789 28.8111 36.7842 29.1293 37.2013 29.5464C37.6184 29.9634 37.9365 30.4688 38.1324 31.0251C38.3282 31.5815 38.3966 32.1747 38.3327 32.7611L38.1265 34.5501L39.5248 35.6721C39.9851 36.0415 40.3566 36.5096 40.6119 37.0417C40.8672 37.5739 40.9997 38.1566 40.9997 38.7468C40.9997 39.337 40.8672 39.9197 40.6119 40.4519C40.3566 40.9841 39.9851 41.4521 39.5248 41.8215L38.1265 42.9416L38.3214 44.724C38.3862 45.3108 38.3184 45.9047 38.123 46.4618C37.9276 47.0189 37.6096 47.525 37.1924 47.9427C36.7752 48.3604 36.2695 48.6791 35.7127 48.8752C35.1559 49.0714 34.5621 49.1399 33.9752 49.0759L32.1919 48.881L31.0698 50.2793C30.7018 50.7387 30.2351 51.1094 29.7044 51.3639C29.1736 51.6184 28.5923 51.7502 28.0037 51.7494ZM24.4276 45.9633C24.6399 45.9634 24.8494 46.0112 25.0408 46.103C25.2323 46.1949 25.4006 46.3285 25.5335 46.4941L27.1418 48.4988C27.2452 48.6274 27.3761 48.7313 27.5249 48.8026C27.6738 48.874 27.8367 48.911 28.0018 48.911C28.1668 48.911 28.3298 48.874 28.4786 48.8026C28.6274 48.7313 28.7584 48.6274 28.8617 48.4988L30.47 46.4941C30.6194 46.308 30.8133 46.1627 31.0337 46.0714C31.2541 45.9801 31.494 45.9459 31.7311 45.9718L34.2855 46.2509C34.45 46.2693 34.6165 46.2504 34.7727 46.1956C34.9288 46.1409 35.0707 46.0517 35.1877 45.9346C35.3047 45.8176 35.3939 45.6758 35.4487 45.5196C35.5034 45.3634 35.5224 45.1969 35.504 45.0324L35.2202 42.4781C35.1942 42.2409 35.2285 42.001 35.3197 41.7806C35.411 41.5602 35.5564 41.3663 35.7424 41.217L37.7481 39.6087C37.8767 39.5053 37.9806 39.3744 38.0519 39.2255C38.1233 39.0767 38.1603 38.9138 38.1603 38.7487C38.1603 38.5836 38.1233 38.4207 38.0519 38.2719C37.9806 38.123 37.8767 37.9921 37.7481 37.8887L35.7424 36.2804C35.5564 36.1311 35.411 35.9372 35.3197 35.7168C35.2285 35.4964 35.1942 35.2565 35.2202 35.0193L35.504 32.465C35.522 32.3008 35.5029 32.1347 35.4481 31.9789C35.3933 31.8232 35.3042 31.6817 35.1875 31.5649C35.0707 31.4481 34.9292 31.3591 34.7734 31.3043C34.6176 31.2495 34.4515 31.2304 34.2874 31.2484L31.733 31.5274C31.4959 31.5534 31.256 31.5192 31.0356 31.4279C30.8151 31.3366 30.6213 31.1913 30.4719 31.0052L28.8636 29.0005C28.7605 28.8715 28.6296 28.7674 28.4807 28.6959C28.3319 28.6243 28.1688 28.5872 28.0037 28.5872C27.8385 28.5872 27.6754 28.6243 27.5266 28.6959C27.3777 28.7674 27.2469 28.8715 27.1437 29.0005L25.5354 31.0052C25.3861 31.1911 25.1924 31.3364 24.9722 31.4277C24.7519 31.5189 24.5123 31.5533 24.2753 31.5274L21.7209 31.2484C21.5567 31.2302 21.3905 31.2492 21.2347 31.3039C21.0788 31.3586 20.9372 31.4477 20.8204 31.5645C20.7036 31.6813 20.6145 31.8229 20.5598 31.9787C20.5051 32.1346 20.4861 32.3008 20.5043 32.465L20.7833 35.0193C20.8093 35.2565 20.7751 35.4964 20.6838 35.7168C20.5925 35.9372 20.4472 36.1311 20.2611 36.2804L18.2564 37.8887C18.1278 37.9921 18.0239 38.123 17.9526 38.2719C17.8812 38.4207 17.8442 38.5836 17.8442 38.7487C17.8442 38.9138 17.8812 39.0767 17.9526 39.2255C18.0239 39.3744 18.1278 39.5053 18.2564 39.6087L20.2611 41.217C20.4458 41.3671 20.5897 41.5614 20.6796 41.7817C20.7696 42.0021 20.8026 42.2416 20.7758 42.4781L20.4967 45.0324C20.4785 45.1966 20.4975 45.3628 20.5522 45.5187C20.607 45.6745 20.696 45.8161 20.8128 45.9329C20.9296 46.0497 21.0712 46.1388 21.2271 46.1935C21.383 46.2482 21.5491 46.2672 21.7133 46.249L24.2677 45.97C24.3195 45.9642 24.3716 45.9614 24.4238 45.9614L24.4276 45.9633Z"
      fill="#FEFDFF" />
  </g>
  <defs>
    <clipPath id="clip0_2859_4665">
      <rect width="56" height="56" fill="white" />
    </clipPath>
  </defs>
</svg>