<svg width="25" height="24" viewBox="0 0 25 24" fill="none" xmlns="http://www.w3.org/2000/svg">
    <path d="M6.125 1.5C5.08947 1.5 4.25 2.33947 4.25 3.375V20.625C4.25 21.6605 5.08947 22.5 6.125 22.5H18.875C19.9105 22.5 20.75 21.6605 20.75 20.625V12.75C20.75 10.6789 19.0711 9 17 9H15.125C14.0895 9 13.25 8.16053 13.25 7.125V5.25C13.25 3.17893 11.5711 1.5 9.5 1.5H6.125Z"
          fill="#FEFDFF"/>
    <path d="M13.4712 1.8159C14.268 2.73648 14.75 3.93695 14.75 5.25V7.125C14.75 7.33211 14.9179 7.5 15.125 7.5H17C18.3131 7.5 19.5135 7.98204 20.4341 8.77881C19.5462 5.37988 16.8701 2.70377 13.4712 1.8159Z"
          fill="#FEFDFF"/>
</svg>
