<svg width="100" height="100" viewBox="0 0 100 100" fill="none" xmlns="http://www.w3.org/2000/svg">
<path d="M90.5465 9.45352C86.2751 5.18216 79.3499 5.18216 75.0785 9.45352L70.2571 14.275L85.725 29.7429L90.5465 24.9215C94.8178 20.6501 94.8178 13.7249 90.5465 9.45352Z" fill="#6444F4"/>
<path d="M81.3056 34.1623L65.8377 18.6944L30.8341 53.6979C28.2642 56.2679 26.3751 59.4376 25.3375 62.9208L22.0051 74.1078C21.6775 75.2075 21.9789 76.3983 22.7903 77.2097C23.6017 78.021 24.7925 78.3225 25.8922 77.9949L37.0792 74.6625C40.5624 73.6249 43.7322 71.7358 46.3021 69.1658L81.3056 34.1623Z" fill="#6444F4"/>
<path d="M21.875 21.875C14.9714 21.875 9.375 27.4714 9.375 34.375V78.125C9.375 85.0285 14.9714 90.625 21.875 90.625H65.625C72.5286 90.625 78.125 85.0285 78.125 78.125V56.25C78.125 54.5241 76.7259 53.125 75 53.125C73.2741 53.125 71.875 54.5241 71.875 56.25V78.125C71.875 81.5768 69.0768 84.375 65.625 84.375H21.875C18.4232 84.375 15.625 81.5768 15.625 78.125V34.375C15.625 30.9232 18.4232 28.125 21.875 28.125H43.75C45.4759 28.125 46.875 26.7259 46.875 25C46.875 23.2741 45.4759 21.875 43.75 21.875H21.875Z" fill="#6444F4"/>
</svg>
