<svg width="56" height="56" viewBox="0 0 56 56" fill="none" xmlns="http://www.w3.org/2000/svg">
  <g clip-path="url(#clip0_2617_3177)">
    <path
      d="M9.14569 30.283C6.7203 30.2802 4.39508 29.3153 2.68042 27.5999C0.965756 25.8845 0.0017527 23.5589 0 21.1335C0.00425548 18.2149 1.1657 15.417 3.22969 13.3534C5.29367 11.2897 8.09175 10.1288 11.0104 10.125C11.3868 10.125 11.7477 10.2745 12.0139 10.5406C12.28 10.8068 12.4295 11.1677 12.4295 11.5441C12.4295 11.9205 12.28 12.2814 12.0139 12.5476C11.7477 12.8137 11.3868 12.9632 11.0104 12.9632C8.84328 12.9657 6.76562 13.8277 5.23323 15.3601C3.70083 16.8925 2.83883 18.9702 2.83633 21.1373C2.83833 22.8095 3.50351 24.4127 4.68596 25.5951C5.8684 26.7776 7.47157 27.4428 9.1438 27.4448C10.4175 27.4433 11.6386 26.9366 12.5392 26.036C13.4398 25.1354 13.9465 23.9143 13.948 22.6406C13.949 22.1474 13.8405 21.66 13.6305 21.2137C13.4204 20.7674 13.114 20.3733 12.7332 20.0597C12.4008 19.7863 12.0096 19.5936 11.5902 19.4966C11.1708 19.3996 10.7347 19.4009 10.316 19.5006C9.47682 19.6832 8.94891 20.3038 8.86187 20.8251C8.78808 21.265 9.01892 21.652 9.54872 21.9746C9.84554 22.1807 10.0525 22.4924 10.1274 22.8459C10.2024 23.1994 10.1396 23.5682 9.95193 23.8771C9.76426 24.1859 9.46584 24.4115 9.11753 24.5079C8.76923 24.6042 8.39729 24.5641 8.07758 24.3956C6.54967 23.4656 5.79849 21.9538 6.06812 20.3511C6.36329 18.5933 7.83065 17.1345 9.71807 16.7277C10.551 16.5369 11.4165 16.5388 12.2485 16.7332C13.0806 16.9277 13.8573 17.3095 14.5194 17.8497C15.2285 18.4307 15.8 19.1618 16.1926 19.9902C16.5853 20.8186 16.7893 21.7238 16.79 22.6406C16.7877 24.6671 15.9816 26.61 14.5484 28.0428C13.1153 29.4756 11.1722 30.2812 9.14569 30.283Z"
      fill="#FEFDFF" />
    <path
      d="M46.8543 30.2829C44.8281 30.2806 42.8855 29.4747 41.4528 28.042C40.0201 26.6093 39.2142 24.6667 39.2119 22.6405C39.2124 21.7237 39.4163 20.8184 39.809 19.9899C40.2016 19.1615 40.7732 18.4305 41.4825 17.8496C42.1445 17.3095 42.921 16.9277 43.7529 16.7332C44.5848 16.5388 45.4501 16.5368 46.2829 16.7275C48.175 17.1372 49.6386 18.5932 49.9338 20.351C50.2034 21.9536 49.4522 23.4655 47.9243 24.3955C47.7651 24.4924 47.5885 24.5571 47.4043 24.5858C47.2202 24.6145 47.0322 24.6066 46.8511 24.5626C46.67 24.5187 46.4993 24.4395 46.3488 24.3295C46.1983 24.2196 46.0709 24.0811 45.974 23.922C45.877 23.7628 45.8123 23.5861 45.7836 23.402C45.755 23.2178 45.7628 23.0298 45.8068 22.8487C45.8508 22.6676 45.93 22.4969 46.0399 22.3465C46.1498 22.196 46.2883 22.0686 46.4475 21.9716C46.9773 21.649 47.2043 21.2621 47.1353 20.8221C47.0473 20.3037 46.5203 19.6869 45.6812 19.4976C45.2624 19.398 44.8263 19.3966 44.407 19.4936C43.9876 19.5906 43.5964 19.7834 43.2639 20.0568C42.8832 20.3703 42.5768 20.7645 42.3667 21.2108C42.1566 21.6571 42.0482 22.1444 42.0492 22.6377C42.0507 23.9113 42.5573 25.1324 43.4579 26.0331C44.3586 26.9337 45.5797 27.4403 46.8533 27.4418C48.5259 27.4401 50.1295 26.7749 51.3121 25.5922C52.4948 24.4095 53.16 22.806 53.1618 21.1334C53.1593 18.9663 52.2973 16.8886 50.7649 15.3562C49.2325 13.8238 47.1548 12.9618 44.9877 12.9593C44.6113 12.9593 44.2504 12.8098 43.9842 12.5437C43.7181 12.2775 43.5686 11.9166 43.5686 11.5402C43.5686 11.1638 43.7181 10.8029 43.9842 10.5367C44.2504 10.2706 44.6113 10.1211 44.9877 10.1211C47.9073 10.1246 50.7062 11.2859 52.7707 13.3504C54.8351 15.4148 55.9965 18.2138 56 21.1334C55.9982 23.5588 55.0342 25.8844 53.3196 27.5998C51.6049 29.3152 49.2797 30.2801 46.8543 30.2829Z"
      fill="#FEFDFF" />
    <path
      d="M44.9877 12.9632H11.0104C10.634 12.9632 10.2731 12.8137 10.0069 12.5476C9.74081 12.2814 9.59129 11.9205 9.59129 11.5441C9.59129 11.1677 9.74081 10.8068 10.0069 10.5406C10.2731 10.2745 10.634 10.125 11.0104 10.125H44.9877C45.3641 10.125 45.725 10.2745 45.9911 10.5406C46.2573 10.8068 46.4068 11.1677 46.4068 11.5441C46.4068 11.9205 46.2573 12.2814 45.9911 12.5476C45.725 12.8137 45.3641 12.9632 44.9877 12.9632Z"
      fill="#FEFDFF" />
    <path
      d="M7.57994 8.13718C7.35826 8.13628 7.13988 8.08347 6.94229 7.98297C6.18343 7.60374 5.54557 7.02009 5.1006 6.29781C4.65563 5.57553 4.42124 4.74332 4.42384 3.89498V1.41911C4.42384 1.04274 4.57335 0.681783 4.83949 0.415648C5.10562 0.149513 5.46658 0 5.84295 0H50.052C50.4284 0 50.7893 0.149513 51.0555 0.415648C51.3216 0.681783 51.4711 1.04274 51.4711 1.41911V3.89688C51.4734 4.7449 51.2388 5.5767 50.7939 6.29862C50.3489 7.02053 49.7112 7.60388 48.9527 7.98297C48.7858 8.07093 48.6031 8.12475 48.4153 8.1413C48.2274 8.15784 48.0381 8.13677 47.8585 8.07932C47.6789 8.02187 47.5125 7.92918 47.3691 7.80669C47.2257 7.68419 47.1081 7.53434 47.0233 7.3659C46.9385 7.19745 46.8881 7.01379 46.8751 6.82564C46.8621 6.63749 46.8867 6.44864 46.9475 6.27011C47.0083 6.09158 47.1041 5.92697 47.2292 5.78589C47.3544 5.64481 47.5064 5.53009 47.6764 5.44844C47.9648 5.30437 48.2071 5.08258 48.3761 4.80809C48.5452 4.53359 48.6341 4.21733 48.6329 3.89498V2.83822H7.26206V3.89688C7.26107 4.2193 7.35019 4.53559 7.51935 4.81007C7.68852 5.08455 7.93102 5.30631 8.21949 5.45033C8.50494 5.59393 8.73358 5.82967 8.86839 6.11938C9.0032 6.40909 9.03628 6.73582 8.96229 7.04668C8.8883 7.35753 8.71156 7.63432 8.46068 7.83223C8.20981 8.03014 7.89948 8.13759 7.57994 8.13718Z"
      fill="#FEFDFF" />
    <path
      d="M11.0104 56.0001C10.634 56.0001 10.2731 55.8506 10.0069 55.5844C9.74081 55.3183 9.59129 54.9573 9.59129 54.581V33.914C9.59129 33.5376 9.74081 33.1767 10.0069 32.9105C10.2731 32.6444 10.634 32.4949 11.0104 32.4949C11.3868 32.4949 11.7477 32.6444 12.0139 32.9105C12.28 33.1767 12.4295 33.5376 12.4295 33.914V54.581C12.4295 54.9573 12.28 55.3183 12.0139 55.5844C11.7477 55.8506 11.3868 56.0001 11.0104 56.0001Z"
      fill="#FEFDFF" />
    <path
      d="M44.9877 56.0001C44.6114 56.0001 44.2504 55.8506 43.9843 55.5844C43.7181 55.3183 43.5686 54.9573 43.5686 54.581V33.914C43.5686 33.5376 43.7181 33.1767 43.9843 32.9105C44.2504 32.6444 44.6114 32.4949 44.9877 32.4949C45.3641 32.4949 45.7251 32.6444 45.9912 32.9105C46.2573 33.1767 46.4068 33.5376 46.4068 33.914V54.581C46.4068 54.9573 46.2573 55.3183 45.9912 55.5844C45.7251 55.8506 45.3641 56.0001 44.9877 56.0001Z"
      fill="#FEFDFF" />
    <path
      d="M38.1921 56C37.8157 56 37.4547 55.8505 37.1886 55.5844C36.9225 55.3183 36.773 54.9573 36.773 54.5809V30.6708C36.773 30.4845 36.8097 30.2999 36.881 30.1278C36.9523 29.9556 37.0568 29.7991 37.1886 29.6674C37.3204 29.5356 37.4768 29.4311 37.649 29.3597C37.8212 29.2884 38.0057 29.2517 38.1921 29.2517C38.3784 29.2517 38.563 29.2884 38.7351 29.3597C38.9073 29.4311 39.0638 29.5356 39.1955 29.6674C39.3273 29.7991 39.4318 29.9556 39.5032 30.1278C39.5745 30.2999 39.6112 30.4845 39.6112 30.6708V54.5809C39.6112 54.9573 39.4617 55.3183 39.1955 55.5844C38.9294 55.8505 38.5684 56 38.1921 56Z"
      fill="#FEFDFF" />
    <path
      d="M31.3974 56C31.021 56 30.66 55.8505 30.3939 55.5844C30.1278 55.3183 29.9783 54.9573 29.9783 54.5809V30.6708C29.9783 30.2944 30.1278 29.9335 30.3939 29.6674C30.66 29.4012 31.021 29.2517 31.3974 29.2517C31.7737 29.2517 32.1347 29.4012 32.4008 29.6674C32.667 29.9335 32.8165 30.2944 32.8165 30.6708V54.5809C32.8165 54.9573 32.667 55.3183 32.4008 55.5844C32.1347 55.8505 31.7737 56 31.3974 56Z"
      fill="#FEFDFF" />
    <path
      d="M24.6027 56C24.2263 56 23.8653 55.8505 23.5992 55.5844C23.3331 55.3183 23.1835 54.9573 23.1835 54.5809V30.6708C23.1835 30.2944 23.3331 29.9335 23.5992 29.6674C23.8653 29.4012 24.2263 29.2517 24.6027 29.2517C24.979 29.2517 25.34 29.4012 25.6061 29.6674C25.8723 29.9335 26.0218 30.2944 26.0218 30.6708V54.5809C26.0218 54.9573 25.8723 55.3183 25.6061 55.5844C25.34 55.8505 24.979 56 24.6027 56Z"
      fill="#FEFDFF" />
    <path
      d="M17.807 56C17.4306 56 17.0697 55.8505 16.8035 55.5844C16.5374 55.3183 16.3879 54.9573 16.3879 54.5809V30.6708C16.3879 30.2944 16.5374 29.9335 16.8035 29.6674C17.0697 29.4012 17.4306 29.2517 17.807 29.2517C18.1834 29.2517 18.5443 29.4012 18.8105 29.6674C19.0766 29.9335 19.2261 30.2944 19.2261 30.6708V54.5809C19.2261 54.9573 19.0766 55.3183 18.8105 55.5844C18.5443 55.8505 18.1834 56 17.807 56Z"
      fill="#FEFDFF" />
    <path
      d="M35.2838 25.7142H20.7143C20.3379 25.7142 19.977 25.5647 19.7108 25.2985C19.4447 25.0324 19.2952 24.6715 19.2952 24.2951C19.2952 23.9187 19.4447 23.5578 19.7108 23.2916C19.977 23.0255 20.3379 22.876 20.7143 22.876H35.2838C35.6602 22.876 36.0212 23.0255 36.2873 23.2916C36.5534 23.5578 36.7029 23.9187 36.7029 24.2951C36.7029 24.6715 36.5534 25.0324 36.2873 25.2985C36.0212 25.5647 35.6602 25.7142 35.2838 25.7142Z"
      fill="#FEFDFF" />
    <path
      d="M36.3254 19.3358H19.6745C19.2982 19.3358 18.9372 19.1863 18.6711 18.9201C18.4049 18.654 18.2554 18.293 18.2554 17.9167C18.2554 17.5403 18.4049 17.1793 18.6711 16.9132C18.9372 16.6471 19.2982 16.4976 19.6745 16.4976H36.3254C36.7018 16.4976 37.0628 16.6471 37.3289 16.9132C37.595 17.1793 37.7445 17.5403 37.7445 17.9167C37.7445 18.293 37.595 18.654 37.3289 18.9201C37.0628 19.1863 36.7018 19.3358 36.3254 19.3358Z"
      fill="#FEFDFF" />
    <path
      d="M44.9877 56.0001H11.0104C10.634 56.0001 10.2731 55.8506 10.0069 55.5844C9.74081 55.3183 9.59129 54.9573 9.59129 54.581C9.59129 54.2046 9.74081 53.8437 10.0069 53.5775C10.2731 53.3114 10.634 53.1619 11.0104 53.1619H44.9877C45.3641 53.1619 45.725 53.3114 45.9911 53.5775C46.2573 53.8437 46.4068 54.2046 46.4068 54.581C46.4068 54.9573 46.2573 55.3183 45.9911 55.5844C45.725 55.8506 45.3641 56.0001 44.9877 56.0001Z"
      fill="#FEFDFF" />
  </g>
  <defs>
    <clipPath id="clip0_2617_3177">
      <rect width="56" height="56" fill="white" />
    </clipPath>
  </defs>
</svg>