<svg width="25" height="24" viewBox="0 0 25 24" fill="none" xmlns="http://www.w3.org/2000/svg">
<path d="M10.3789 7.51884C11.5505 6.49372 13.45 6.49372 14.6215 7.51884C15.7931 8.54397 15.7931 10.206 14.6215 11.2312C14.4176 11.4096 14.1917 11.5569 13.9513 11.6733C13.2056 12.0341 12.5002 12.6716 12.5002 13.5V14.25M21.5 12C21.5 16.9706 17.4706 21 12.5 21C7.52944 21 3.5 16.9706 3.5 12C3.5 7.02944 7.52944 3 12.5 3C17.4706 3 21.5 7.02944 21.5 12ZM12.5 17.25H12.5075V17.2575H12.5V17.25Z" stroke="#6444F4" stroke-width="1.5" stroke-linecap="round" stroke-linejoin="round"/>
</svg>
