<svg width="97" height="96" viewBox="0 0 97 96" fill="none" xmlns="http://www.w3.org/2000/svg">
<g id="quiz 1">
<g id="Group">
<path id="Vector" d="M24.5391 41.1344C24.5391 40.304 23.8658 39.6305 23.0352 39.6305C22.2046 39.6305 21.5312 40.304 21.5312 41.1344V41.143C21.5312 41.9735 22.2046 42.6427 23.0352 42.6427C23.8658 42.6427 24.5391 41.9649 24.5391 41.1344Z" fill="#6444F4"/>
<path id="Vector_2" d="M23.1328 17.5228C19.8114 17.4612 16.9663 19.8806 16.5127 23.1459C16.468 23.4481 16.4453 23.7603 16.4453 24.0738C16.4453 24.9043 17.1186 25.5778 17.9492 25.5778C18.7799 25.5778 19.4532 24.9043 19.4532 24.0738C19.4532 23.9072 19.4649 23.7433 19.49 23.5732C19.7359 21.8029 21.2741 20.4945 23.0739 20.5302C24.918 20.5662 26.4377 22.0392 26.5336 23.885C26.5854 24.8655 26.2428 25.7967 25.5689 26.5073C24.8924 27.2205 23.9789 27.6133 22.9966 27.6133C22.1659 27.6133 21.4926 28.2868 21.4926 29.1173V34.395C21.4926 35.2254 22.1659 35.8989 22.9966 35.8989C23.8272 35.8989 24.5005 35.2254 24.5005 34.395V30.4446C25.7319 30.1523 26.8698 29.5066 27.7512 28.5773C28.9989 27.262 29.6332 25.5393 29.5373 23.7275C29.36 20.3148 26.5467 17.5894 23.1328 17.5228Z" fill="#6444F4"/>
<path id="Vector_3" d="M25.2305 68.5253H17.9492C17.1186 68.5253 16.4453 69.1987 16.4453 70.0292V77.3104C16.4453 78.1409 17.1186 78.8144 17.9492 78.8144H25.2305C26.0611 78.8144 26.7344 78.1409 26.7344 77.3104V70.0292C26.7344 69.1986 26.0611 68.5253 25.2305 68.5253ZM23.7266 75.8065H19.4532V71.5331H23.7266V75.8065Z" fill="#6444F4"/>
<path id="Vector_4" d="M33.3008 61.1823H49.901C50.7316 61.1823 51.4049 60.5088 51.4049 59.6784C51.4049 58.8479 50.7316 58.1744 49.901 58.1744H33.3008C32.4702 58.1744 31.7969 58.8479 31.7969 59.6784C31.7969 60.5088 32.4702 61.1823 33.3008 61.1823Z" fill="#6444F4"/>
<path id="Vector_5" d="M33.3008 53.9013H55.7754C56.6061 53.9013 57.2794 53.2278 57.2794 52.3974C57.2794 51.5669 56.6061 50.8934 55.7754 50.8934H33.3008C32.4702 50.8934 31.7969 51.5669 31.7969 52.3974C31.7969 53.2278 32.4702 53.9013 33.3008 53.9013Z" fill="#6444F4"/>
<path id="Vector_6" d="M25.2305 50.8934H17.9492C17.1186 50.8934 16.4453 51.5669 16.4453 52.3974V59.6785C16.4453 60.5089 17.1186 61.1824 17.9492 61.1824H25.2305C26.0611 61.1824 26.7344 60.5089 26.7344 59.6785V52.3974C26.7344 51.5669 26.0611 50.8934 25.2305 50.8934ZM23.7266 58.1745H19.4532V53.9013H23.7266V58.1745Z" fill="#6444F4"/>
<path id="Vector_7" d="M86.8735 34.7325C86.6176 33.7637 86.0016 32.9546 85.1425 32.4562L80.3811 29.6771C79.5188 29.1732 78.5102 29.0362 77.5414 29.291C76.573 29.5456 75.7624 30.1607 75.2586 31.0234L71.1638 38.0392V24.4448C71.1638 24.0176 70.9823 23.6108 70.6645 23.3255L55.6886 9.88422C55.4125 9.63652 55.0549 9.49951 54.684 9.49951H11.5039C10.6733 9.49951 10 10.173 10 11.0034V84.9965C10 85.827 10.6733 86.5004 11.5039 86.5004H69.6599C70.4905 86.5004 71.1638 85.827 71.1638 84.9965V63.8423L86.4887 37.5787C86.9934 36.7145 87.1301 35.7037 86.8735 34.7325ZM56.1879 14.374L65.7327 22.9408H56.1879V14.374ZM56.7262 78.4756L67.7758 69.4593C67.8054 69.4351 67.8336 69.4092 67.8612 69.3829C67.8691 69.3754 67.8769 69.3682 67.8845 69.3605C67.9229 69.3225 67.9585 69.2819 67.9925 69.2399C68.0029 69.2271 68.0128 69.2142 68.0229 69.2011C68.0591 69.1533 68.0936 69.1041 68.1238 69.0521L68.1558 68.9972V83.4926H13.0078V12.5074H53.1801V24.4448C53.1801 25.2752 53.8534 25.9487 54.684 25.9487H68.156V43.1927L56.8892 62.4969C56.8507 62.5661 56.8102 62.6505 56.7749 62.749C56.7418 62.8413 56.7202 62.9266 56.7059 63.0007L54.5076 75.8063H33.3008C32.4701 75.8063 31.7968 76.4798 31.7968 77.3103C31.7968 78.1407 32.4701 78.8142 33.3008 78.8142H55.7754H55.7764C55.9123 78.8064 56.1043 78.78 56.3189 78.6972C56.4926 78.6301 56.6286 78.5465 56.7262 78.4756ZM59.3035 65.647L64.1938 68.5001L57.9374 73.6052L59.3035 65.647ZM68.3452 62.7047C68.3423 62.71 68.339 62.715 68.3362 62.7204L66.2841 66.2373L60.2454 62.7142L73.8444 39.4139L79.88 42.9369L68.3452 62.7047ZM83.8911 36.0623L81.3958 40.3387L75.3605 36.8159L77.8562 32.5398C77.9891 32.3119 78.1953 32.2291 78.3063 32.1999C78.4173 32.171 78.637 32.1415 78.8642 32.2742C78.8642 32.2743 78.8644 32.2743 78.8645 32.2745L83.6299 35.056C83.8541 35.1859 83.9364 35.3906 83.9656 35.5009C83.9949 35.6126 84.0245 35.8338 83.8911 36.0623Z" fill="#6444F4"/>
<path id="Vector_8" d="M33.7227 43.4781H59.9146C60.7452 43.4781 61.4185 42.8046 61.4185 41.9741C61.4185 41.1437 60.7452 40.4702 59.9146 40.4702H33.7227C32.8921 40.4702 32.2188 41.1437 32.2188 41.9741C32.2188 42.8046 32.8921 43.4781 33.7227 43.4781Z" fill="#6444F4"/>
<path id="Vector_9" d="M45.3066 34.6931C45.3066 35.5236 45.9799 36.1971 46.8106 36.1971H59.915C60.7456 36.1971 61.4189 35.5236 61.4189 34.6931C61.4189 33.8627 60.7456 33.1892 59.915 33.1892H46.8106C45.9799 33.1892 45.3066 33.8625 45.3066 34.6931Z" fill="#6444F4"/>
<path id="Vector_10" d="M33.7227 36.1971H39.482C40.3126 36.1971 40.9859 35.5236 40.9859 34.6931C40.9859 33.8627 40.3126 33.1892 39.482 33.1892H33.7227C32.8921 33.1892 32.2188 33.8627 32.2188 34.6931C32.2188 35.5236 32.8921 36.1971 33.7227 36.1971Z" fill="#6444F4"/>
<path id="Vector_11" d="M34.3838 29.3078H47.0962C47.9268 29.3078 48.6001 28.6343 48.6001 27.8039V20.5186C48.6001 19.6881 47.9268 19.0146 47.0962 19.0146H34.3838C33.5532 19.0146 32.8799 19.6881 32.8799 20.5186V27.8039C32.8799 28.6343 33.5532 29.3078 34.3838 29.3078ZM35.8877 22.0225H45.5923V26.3H35.8877V22.0225Z" fill="#6444F4"/>
<path id="Vector_12" d="M33.3008 71.5331H35.5431C36.3738 71.5331 37.0471 70.8597 37.0471 70.0292C37.0471 69.1987 36.3738 68.5253 35.5431 68.5253H33.3008C32.4702 68.5253 31.7969 69.1987 31.7969 70.0292C31.7969 70.8597 32.4702 71.5331 33.3008 71.5331Z" fill="#6444F4"/>
<path id="Vector_13" d="M49.445 68.5253H42.7393C41.9087 68.5253 41.2354 69.1987 41.2354 70.0292C41.2354 70.8597 41.9087 71.5331 42.7393 71.5331H49.445C50.2756 71.5331 50.9489 70.8597 50.9489 70.0292C50.9489 69.1987 50.2756 68.5253 49.445 68.5253Z" fill="#6444F4"/>
</g>
</g>
</svg>
