<svg width="316" height="252" viewBox="0 0 316 252" fill="none" xmlns="http://www.w3.org/2000/svg">
<path d="M0 0V252H316V0H0ZM93.7137 203.199H44.3387V193.507H93.7137V203.199ZM103.589 183.815H34.4637V174.122H103.589V183.815ZM59.1512 135.353C59.1512 130.003 63.5752 125.661 69.0262 125.661C74.4772 125.661 78.9012 130.003 78.9012 135.353C78.9012 140.703 74.4772 145.045 69.0262 145.045C63.5654 145.045 59.1512 140.703 59.1512 135.353ZM69.0262 115.968C49.9379 115.968 34.4637 100.781 34.4637 82.0454C34.4637 63.3102 49.9379 48.1223 69.0262 48.1223C88.1146 48.1223 103.589 63.3102 103.589 82.0454C103.589 100.781 88.1146 115.968 69.0262 115.968ZM182.589 203.199H133.214V193.507H182.589V203.199ZM192.464 183.815H123.339V174.122H192.464V183.815ZM148.026 135.353C148.026 130.003 152.45 125.661 157.901 125.661C163.352 125.661 167.776 130.003 167.776 135.353C167.776 140.703 163.352 145.045 157.901 145.045C152.44 145.045 148.026 140.703 148.026 135.353ZM157.901 115.968C138.813 115.968 123.339 100.781 123.339 82.0454C123.339 63.3102 138.813 48.1223 157.901 48.1223C176.99 48.1223 192.464 63.3102 192.464 82.0454C192.464 100.781 176.99 115.968 157.901 115.968ZM271.464 203.199H222.089V193.507H271.464V203.199ZM281.339 183.815H212.214V174.122H281.339V183.815ZM236.901 135.353C236.901 130.003 241.325 125.661 246.776 125.661C252.227 125.661 256.651 130.003 256.651 135.353C256.651 140.703 252.227 145.045 246.776 145.045C241.315 145.045 236.901 140.703 236.901 135.353ZM246.776 115.968C227.688 115.968 212.214 100.781 212.214 82.0454C212.214 63.3102 227.688 48.1223 246.776 48.1223C265.865 48.1223 281.339 63.3102 281.339 82.0454C281.339 100.781 265.865 115.968 246.776 115.968Z" fill="#CBD5E1"/>
<path d="M80.6195 63.8047L69.0164 75.1932L57.4133 63.8047L50.4316 70.6571L62.0348 82.0456L50.4316 93.4341L57.4133 100.287L69.0164 88.8981L80.6195 100.287L87.6011 93.4341L75.998 82.0456L87.6011 70.6571L80.6195 63.8047Z" fill="#CBD5E1"/>
<path d="M169.603 63.8047L158 75.1932L146.397 63.8047L139.415 70.6571L151.018 82.0456L139.415 93.4341L146.397 100.287L158 88.8981L169.603 100.287L176.585 93.4341L164.981 82.0456L176.585 70.6571L169.603 63.8047Z" fill="#CBD5E1"/>
<path d="M258.586 63.8047L246.983 75.1932L235.38 63.8047L228.398 70.6571L240.002 82.0456L228.398 93.4341L235.38 100.287L246.983 88.8981L258.586 100.287L265.568 93.4341L253.965 82.0456L265.568 70.6571L258.586 63.8047Z" fill="#CBD5E1"/>
</svg>
