<svg width="56" height="56" viewBox="0 0 56 56" fill="none" xmlns="http://www.w3.org/2000/svg">
  <g clip-path="url(#clip0_2860_4738)">
    <path
      d="M16.2023 56C15.8259 56 15.465 55.8505 15.1989 55.5843C14.9327 55.3182 14.7832 54.9573 14.7832 54.5809V29.9319C14.7832 29.5555 14.9327 29.1946 15.1989 28.9284C15.465 28.6623 15.8259 28.5128 16.2023 28.5128C16.5787 28.5128 16.9396 28.6623 17.2058 28.9284C17.4719 29.1946 17.6214 29.5555 17.6214 29.9319V54.5809C17.6214 54.9573 17.4719 55.3182 17.2058 55.5843C16.9396 55.8505 16.5787 56 16.2023 56Z"
      fill="#FEFDFF" />
    <path
      d="M51.5857 56H4.41252C4.03615 56 3.67519 55.8505 3.40906 55.5844C3.14292 55.3182 2.99341 54.9573 2.99341 54.5809V34.6188C2.99341 34.2424 3.14292 33.8814 3.40906 33.6153C3.67519 33.3492 4.03615 33.1996 4.41252 33.1996C4.78889 33.1996 5.14985 33.3492 5.41598 33.6153C5.68212 33.8814 5.83163 34.2424 5.83163 34.6188V53.1618H50.1666V34.6188C50.1666 34.2424 50.3161 33.8814 50.5822 33.6153C50.8483 33.3492 51.2093 33.1996 51.5857 33.1996C51.962 33.1996 52.323 33.3492 52.5891 33.6153C52.8553 33.8814 53.0048 34.2424 53.0048 34.6188V54.5809C53.0048 54.9573 52.8553 55.3182 52.5891 55.5844C52.323 55.8505 51.962 56 51.5857 56Z"
      fill="#FEFDFF" />
    <path
      d="M44.0075 25.3907C43.6897 25.3904 43.3812 25.2835 43.1315 25.087L28 13.1939L12.8675 25.087C12.7214 25.2059 12.5531 25.2945 12.3724 25.3477C12.1917 25.4009 12.0022 25.4175 11.815 25.3967C11.6278 25.3759 11.4466 25.318 11.282 25.2265C11.1174 25.1349 10.9727 25.0115 10.8563 24.8634C10.7398 24.7153 10.6541 24.5456 10.6039 24.364C10.5538 24.1825 10.5403 23.9927 10.5642 23.8059C10.5882 23.6191 10.6491 23.4389 10.7434 23.2758C10.8377 23.1128 10.9635 22.9701 11.1135 22.8562L27.123 10.2734C27.373 10.0768 27.6819 9.96997 28 9.96997C28.318 9.96997 28.6269 10.0768 28.877 10.2734L44.8855 22.8562C45.1174 23.0386 45.2868 23.2889 45.3698 23.572C45.4529 23.8552 45.4457 24.1573 45.3491 24.4361C45.2525 24.715 45.0714 24.9568 44.8309 25.1279C44.5905 25.299 44.3026 25.3909 44.0075 25.3907Z"
      fill="#FEFDFF" />
    <path
      d="M39.7936 56C39.4173 56 39.0563 55.8505 38.7902 55.5843C38.524 55.3182 38.3745 54.9573 38.3745 54.5809V29.9319C38.3745 29.5555 38.524 29.1946 38.7902 28.9284C39.0563 28.6623 39.4173 28.5128 39.7936 28.5128C40.17 28.5128 40.531 28.6623 40.7971 28.9284C41.0632 29.1946 41.2127 29.5555 41.2127 29.9319V54.5809C41.2127 54.9573 41.0632 55.3182 40.7971 55.5843C40.531 55.8505 40.17 56 39.7936 56Z"
      fill="#FEFDFF" />
    <path
      d="M10.3092 31.351H1.41616C1.17048 31.3511 0.928981 31.2875 0.715289 31.1663C0.501596 31.045 0.323032 30.8704 0.197067 30.6595C0.0711028 30.4486 0.00205407 30.2086 -0.0033222 29.9629C-0.00869846 29.7173 0.0497816 29.4745 0.166396 29.2583L6.94122 16.6991C7.06276 16.4738 7.24301 16.2855 7.46286 16.1542C7.68272 16.023 7.93399 15.9537 8.19004 15.9536H11.9876C12.3639 15.9536 12.7249 16.1032 12.991 16.3693C13.2572 16.6354 13.4067 16.9964 13.4067 17.3727C13.4067 17.7491 13.2572 18.1101 12.991 18.3762C12.7249 18.6423 12.3639 18.7919 11.9876 18.7919H9.03961L3.79648 28.5128H10.3092C10.6856 28.5128 11.0466 28.6623 11.3127 28.9284C11.5788 29.1946 11.7284 29.5555 11.7284 29.9319C11.7284 30.3083 11.5788 30.6692 11.3127 30.9353C11.0466 31.2015 10.6856 31.351 10.3092 31.351Z"
      fill="#FEFDFF" />
    <path
      d="M54.5808 31.351H45.6877C45.3114 31.351 44.9504 31.2015 44.6843 30.9353C44.4182 30.6692 44.2686 30.3083 44.2686 29.9319C44.2686 29.5555 44.4182 29.1946 44.6843 28.9284C44.9504 28.6623 45.3114 28.5128 45.6877 28.5128H52.1996L46.9593 18.7919H44.0085C43.6321 18.7919 43.2711 18.6423 43.005 18.3762C42.7389 18.1101 42.5894 17.7491 42.5894 17.3727C42.5894 16.9964 42.7389 16.6354 43.005 16.3693C43.2711 16.1032 43.6321 15.9536 44.0085 15.9536H47.806C48.0622 15.9535 48.3137 16.0227 48.5337 16.154C48.7538 16.2853 48.9342 16.4736 49.0558 16.6991L55.8296 29.2583C55.9462 29.4744 56.0047 29.7172 55.9994 29.9627C55.994 30.2082 55.9251 30.4482 55.7992 30.6591C55.6734 30.87 55.4949 31.0446 55.2814 31.1659C55.0678 31.2872 54.8264 31.351 54.5808 31.351Z"
      fill="#FEFDFF" />
    <path
      d="M27.9999 12.8079C27.6235 12.8079 27.2626 12.6584 26.9965 12.3923C26.7303 12.1262 26.5808 11.7652 26.5808 11.3888V1.41911C26.5808 1.04274 26.7303 0.681782 26.9965 0.415648C27.2626 0.149513 27.6235 0 27.9999 0C28.3763 0 28.7372 0.149513 29.0034 0.415648C29.2695 0.681782 29.419 1.04274 29.419 1.41911V11.3888C29.419 11.7652 29.2695 12.1262 29.0034 12.3923C28.7372 12.6584 28.3763 12.8079 27.9999 12.8079Z"
      fill="#FEFDFF" />
    <path
      d="M31.5476 56C31.1712 56 30.8103 55.8505 30.5442 55.5844C30.278 55.3182 30.1285 54.9573 30.1285 54.5809V46.9792H25.8712V54.5809C25.8712 54.9573 25.7217 55.3182 25.4555 55.5844C25.1894 55.8505 24.8284 56 24.4521 56C24.0757 56 23.7147 55.8505 23.4486 55.5844C23.1825 55.3182 23.033 54.9573 23.033 54.5809V45.5601C23.033 45.1837 23.1825 44.8228 23.4486 44.5566C23.7147 44.2905 24.0757 44.141 24.4521 44.141H31.5476C31.924 44.141 32.2849 44.2905 32.5511 44.5566C32.8172 44.8228 32.9667 45.1837 32.9667 45.5601V54.5809C32.9667 54.9573 32.8172 55.3182 32.5511 55.5844C32.2849 55.8505 31.924 56 31.5476 56Z"
      fill="#FEFDFF" />
    <path
      d="M27.9998 28.9385C27.0175 28.9385 26.0572 28.6472 25.2404 28.1014C24.4236 27.5557 23.787 26.7799 23.411 25.8723C23.0351 24.9648 22.9368 23.9661 23.1284 23.0026C23.32 22.0391 23.7931 21.1541 24.4877 20.4595C25.1824 19.7649 26.0674 19.2918 27.0309 19.1002C27.9943 18.9085 28.993 19.0069 29.9006 19.3828C30.8082 19.7587 31.5839 20.3953 32.1297 21.2121C32.6754 22.0289 32.9667 22.9892 32.9667 23.9716C32.9652 25.2884 32.4415 26.5509 31.5103 27.4821C30.5792 28.4132 29.3167 28.937 27.9998 28.9385ZM27.9998 21.8429C27.5788 21.8429 27.1673 21.9678 26.8172 22.2017C26.4672 22.4356 26.1943 22.768 26.0332 23.157C25.8721 23.546 25.8299 23.974 25.9121 24.3869C25.9942 24.7998 26.197 25.1791 26.4947 25.4768C26.7924 25.7745 27.1716 25.9772 27.5846 26.0594C27.9975 26.1415 28.4255 26.0993 28.8145 25.9382C29.2034 25.7771 29.5359 25.5043 29.7698 25.1542C30.0037 24.8042 30.1285 24.3926 30.1285 23.9716C30.128 23.4072 29.9036 22.8661 29.5045 22.467C29.1054 22.0679 28.5643 21.8434 27.9998 21.8429Z"
      fill="#FEFDFF" />
    <path
      d="M37.2781 9.02365H27.9999C27.6235 9.02365 27.2626 8.87414 26.9965 8.60801C26.7303 8.34187 26.5808 7.98091 26.5808 7.60454V1.41911C26.5808 1.04274 26.7303 0.681783 26.9965 0.415648C27.2626 0.149513 27.6235 0 27.9999 0H37.2781C37.6544 0 38.0154 0.149513 38.2815 0.415648C38.5477 0.681783 38.6972 1.04274 38.6972 1.41911V7.60454C38.6972 7.98091 38.5477 8.34187 38.2815 8.60801C38.0154 8.87414 37.6544 9.02365 37.2781 9.02365ZM29.419 6.18543H35.859V2.83822H29.419V6.18543Z"
      fill="#FEFDFF" />
    <path
      d="M10.3092 40.3718C9.93288 40.3718 9.57192 40.2223 9.30578 39.9562C9.03965 39.69 8.89014 39.3291 8.89014 38.9527V36.5402C8.89014 36.1638 9.03965 35.8029 9.30578 35.5367C9.57192 35.2706 9.93288 35.1211 10.3092 35.1211C10.6856 35.1211 11.0466 35.2706 11.3127 35.5367C11.5788 35.8029 11.7284 36.1638 11.7284 36.5402V38.9527C11.7284 39.3291 11.5788 39.69 11.3127 39.9562C11.0466 40.2223 10.6856 40.3718 10.3092 40.3718Z"
      fill="#FEFDFF" />
    <path
      d="M10.3092 49.3917C9.93288 49.3917 9.57192 49.2422 9.30578 48.976C9.03965 48.7099 8.89014 48.3489 8.89014 47.9726V45.5601C8.89014 45.1837 9.03965 44.8228 9.30578 44.5566C9.57192 44.2905 9.93288 44.141 10.3092 44.141C10.6856 44.141 11.0466 44.2905 11.3127 44.5566C11.5788 44.8228 11.7284 45.1837 11.7284 45.5601V47.9726C11.7284 48.3489 11.5788 48.7099 11.3127 48.976C11.0466 49.2422 10.6856 49.3917 10.3092 49.3917Z"
      fill="#FEFDFF" />
    <path
      d="M45.6906 40.3718C45.3142 40.3718 44.9533 40.2223 44.6871 39.9562C44.421 39.69 44.2715 39.3291 44.2715 38.9527V36.5402C44.2715 36.1638 44.421 35.8029 44.6871 35.5367C44.9533 35.2706 45.3142 35.1211 45.6906 35.1211C46.067 35.1211 46.4279 35.2706 46.6941 35.5367C46.9602 35.8029 47.1097 36.1638 47.1097 36.5402V38.9527C47.1097 39.3291 46.9602 39.69 46.6941 39.9562C46.4279 40.2223 46.067 40.3718 45.6906 40.3718Z"
      fill="#FEFDFF" />
    <path
      d="M33.894 40.3718C33.5176 40.3718 33.1566 40.2223 32.8905 39.9562C32.6244 39.69 32.4749 39.3291 32.4749 38.9527V36.5402C32.4749 36.1638 32.6244 35.8029 32.8905 35.5367C33.1566 35.2706 33.5176 35.1211 33.894 35.1211C34.2703 35.1211 34.6313 35.2706 34.8974 35.5367C35.1636 35.8029 35.3131 36.1638 35.3131 36.5402V38.9527C35.3131 39.3291 35.1636 39.69 34.8974 39.9562C34.6313 40.2223 34.2703 40.3718 33.894 40.3718Z"
      fill="#FEFDFF" />
    <path
      d="M27.9999 40.3718C27.6235 40.3718 27.2626 40.2223 26.9965 39.9562C26.7303 39.69 26.5808 39.3291 26.5808 38.9527V36.5402C26.5808 36.1638 26.7303 35.8029 26.9965 35.5367C27.2626 35.2706 27.6235 35.1211 27.9999 35.1211C28.3763 35.1211 28.7372 35.2706 29.0034 35.5367C29.2695 35.8029 29.419 36.1638 29.419 36.5402V38.9527C29.419 39.3291 29.2695 39.69 29.0034 39.9562C28.7372 40.2223 28.3763 40.3718 27.9999 40.3718Z"
      fill="#FEFDFF" />
    <path
      d="M22.1022 40.3718C21.7258 40.3718 21.3649 40.2223 21.0988 39.9562C20.8326 39.69 20.6831 39.3291 20.6831 38.9527V36.5402C20.6831 36.1638 20.8326 35.8029 21.0988 35.5367C21.3649 35.2706 21.7258 35.1211 22.1022 35.1211C22.4786 35.1211 22.8395 35.2706 23.1057 35.5367C23.3718 35.8029 23.5213 36.1638 23.5213 36.5402V38.9527C23.5213 39.3291 23.3718 39.69 23.1057 39.9562C22.8395 40.2223 22.4786 40.3718 22.1022 40.3718Z"
      fill="#FEFDFF" />
    <path
      d="M45.6906 49.3917C45.3142 49.3917 44.9533 49.2422 44.6871 48.976C44.421 48.7099 44.2715 48.3489 44.2715 47.9726V45.5601C44.2715 45.1837 44.421 44.8228 44.6871 44.5566C44.9533 44.2905 45.3142 44.141 45.6906 44.141C46.067 44.141 46.4279 44.2905 46.6941 44.5566C46.9602 44.8228 47.1097 45.1837 47.1097 45.5601V47.9726C47.1097 48.3489 46.9602 48.7099 46.6941 48.976C46.4279 49.2422 46.067 49.3917 45.6906 49.3917Z"
      fill="#FEFDFF" />
  </g>
  <defs>
    <clipPath id="clip0_2860_4738">
      <rect width="56" height="56" fill="white" />
    </clipPath>
  </defs>
</svg>