<svg width="56" height="56" viewBox="0 0 56 56" fill="none" xmlns="http://www.w3.org/2000/svg">
  <g clip-path="url(#clip0_2859_4559)">
    <path
      d="M27.9998 32.9669C27.0175 32.9669 26.0572 32.6756 25.2404 32.1298C24.4236 31.584 23.787 30.8083 23.411 29.9007C23.0351 28.9931 22.9368 27.9945 23.1284 27.031C23.32 26.0675 23.7931 25.1825 24.4877 24.4879C25.1824 23.7932 26.0674 23.3202 27.0309 23.1285C27.9943 22.9369 28.993 23.0352 29.9006 23.4112C30.8082 23.7871 31.5839 24.4237 32.1297 25.2405C32.6754 26.0573 32.9667 27.0176 32.9667 28C32.9652 29.3168 32.4414 30.5793 31.5103 31.5104C30.5792 32.4416 29.3167 32.9654 27.9998 32.9669ZM27.9998 25.8713C27.5788 25.8713 27.1673 25.9961 26.8172 26.23C26.4672 26.464 26.1943 26.7964 26.0332 27.1854C25.8721 27.5743 25.8299 28.0023 25.9121 28.4153C25.9942 28.8282 26.197 29.2075 26.4947 29.5052C26.7923 29.8029 27.1716 30.0056 27.5846 30.0877C27.9975 30.1699 28.4255 30.1277 28.8144 29.9666C29.2034 29.8055 29.5359 29.5326 29.7698 29.1826C30.0037 28.8325 30.1285 28.421 30.1285 28C30.1278 27.4356 29.9032 26.8946 29.5042 26.4956C29.1052 26.0966 28.5642 25.8721 27.9998 25.8713Z"
      fill="#FEFDFF" />
    <path
      d="M38.9923 28.7711C38.6184 28.7711 38.2596 28.6236 37.9938 28.3605C37.7281 28.0974 37.577 27.7401 37.5732 27.3662C37.5501 24.1714 37.2653 20.9838 36.7217 17.8354C36.6825 17.6494 36.681 17.4574 36.7174 17.2707C36.7538 17.0841 36.8273 16.9067 36.9336 16.7491C37.0399 16.5914 37.1768 16.4567 37.3362 16.353C37.4956 16.2493 37.6741 16.1787 37.8613 16.1453C38.0485 16.1119 38.2405 16.1165 38.4259 16.1588C38.6113 16.2011 38.7863 16.2802 38.9405 16.3915C39.0947 16.5027 39.225 16.6438 39.3236 16.8064C39.4222 16.9689 39.4871 17.1497 39.5146 17.3378C40.0863 20.641 40.3862 23.9856 40.4114 27.3378C40.4132 27.5242 40.3782 27.7091 40.3085 27.8819C40.2388 28.0547 40.1357 28.2122 40.0052 28.3452C39.8746 28.4782 39.7192 28.5842 39.5476 28.6571C39.3761 28.73 39.1919 28.7684 39.0056 28.7702L38.9923 28.7711Z"
      fill="#FEFDFF" />
    <path
      d="M17.0112 28.7711H16.997C16.8107 28.7692 16.6265 28.7307 16.455 28.6576C16.2836 28.5846 16.1282 28.4785 15.9977 28.3454C15.8672 28.2123 15.7643 28.0548 15.6947 27.8819C15.6251 27.709 15.5902 27.5241 15.5921 27.3378C15.6631 20.194 16.8769 13.4825 19.0093 8.43993C21.3111 2.99716 24.5041 0 27.997 0C29.6725 0 31.2771 0.677389 32.7662 2.01325C34.0822 3.19205 35.2808 4.86944 36.33 6.99811C36.4767 7.33241 36.4888 7.71035 36.364 8.05338C36.2392 8.3964 35.9869 8.67814 35.6598 8.84002C35.3326 9.0019 34.9556 9.03148 34.6072 8.92262C34.2588 8.81375 33.9657 8.5748 33.7889 8.25544C32.068 4.76348 30.0122 2.84106 28.0018 2.84106C25.752 2.84106 23.4284 5.28572 21.6252 9.54778C19.6337 14.2573 18.5032 20.5866 18.4322 27.369C18.4277 27.7427 18.276 28.0996 18.0099 28.3621C17.7439 28.6246 17.385 28.7716 17.0112 28.7711Z"
      fill="#FEFDFF" />
    <path
      d="M27.9999 55.9999C23.2998 55.9999 19.2128 50.5752 17.0671 41.4881C17.0242 41.3067 17.0175 41.1187 17.0473 40.9347C17.0771 40.7507 17.1429 40.5744 17.2409 40.4158C17.3388 40.2573 17.467 40.1195 17.6182 40.0105C17.7694 39.9015 17.9406 39.8233 18.122 39.7805C18.3034 39.7376 18.4914 39.7309 18.6754 39.7607C18.8594 39.7905 19.0357 39.8563 19.1943 39.9542C19.3528 40.0522 19.4906 40.1804 19.5996 40.3316C19.7086 40.4828 19.7868 40.654 19.8296 40.8353C21.5978 48.3235 24.805 53.1617 27.9999 53.1617C30.0103 53.1617 32.068 51.2393 33.7871 47.7483C33.8665 47.5764 33.9795 47.4222 34.1195 47.2947C34.2595 47.1672 34.4236 47.0689 34.6021 47.0058C34.7806 46.9427 34.9699 46.9159 35.1589 46.9271C35.348 46.9383 35.5328 46.9871 35.7027 47.0709C35.8725 47.1546 36.0239 47.2714 36.1478 47.4146C36.2718 47.5577 36.3659 47.7241 36.4245 47.9042C36.4832 48.0842 36.5052 48.2742 36.4893 48.4628C36.4734 48.6515 36.4199 48.8351 36.332 49.0028C35.2828 51.1305 34.0841 52.8079 32.7691 53.9867C31.279 55.3226 29.6754 55.9999 27.9999 55.9999Z"
      fill="#FEFDFF" />
    <path
      d="M43.5194 45.7673C42.4118 45.7624 41.3057 45.685 40.2082 45.5355C34.6424 44.7994 28.1041 42.3888 21.7976 38.7484C15.4911 35.1079 10.1344 30.65 6.71437 26.1978C3.03131 21.404 1.984 17.0719 3.75411 14C5.88466 10.3103 11.5857 9.26966 19.3974 11.14C19.7635 11.2279 20.0797 11.4575 20.2765 11.7785C20.4732 12.0994 20.5344 12.4854 20.4466 12.8515C20.3588 13.2176 20.1291 13.5338 19.8082 13.7305C19.4872 13.9273 19.1013 13.9885 18.7352 13.9007C12.4239 12.387 7.62544 12.9707 6.212 15.4191C5.06631 17.4059 6.06915 20.7011 8.96413 24.4683C12.1628 28.6311 17.2243 32.8307 23.2158 36.2942C29.2073 39.7578 35.3738 42.0369 40.58 42.7275C45.2895 43.351 48.6481 42.5695 49.7929 40.5866C50.7985 38.8449 50.1599 36.1031 47.9953 32.8657C47.7911 32.5527 47.7185 32.1719 47.7933 31.8058C47.8682 31.4397 48.0844 31.1178 48.3951 30.9102C48.7058 30.7025 49.0858 30.6258 49.4527 30.6966C49.8196 30.7675 50.1438 30.9802 50.3548 31.2886C51.6736 33.2611 52.5308 35.1391 52.8912 36.8704C53.3037 38.8278 53.088 40.5601 52.2498 42.0076C50.8184 44.4712 47.7749 45.7673 43.5194 45.7673Z"
      fill="#FEFDFF" />
    <path
      d="M12.4767 45.7691C8.244 45.7691 5.19196 44.4862 3.75109 41.9999C2.91382 40.5486 2.69811 38.8211 3.1106 36.8627C3.47389 35.1333 4.32725 33.2573 5.64608 31.2809C5.74865 31.1238 5.88138 30.9885 6.03657 30.883C6.19177 30.7775 6.36635 30.7038 6.55021 30.6662C6.73407 30.6286 6.92356 30.6279 7.10772 30.664C7.29187 30.7001 7.46703 30.7725 7.62305 30.8767C7.77907 30.981 7.91286 31.1152 8.01667 31.2716C8.12048 31.4279 8.19225 31.6033 8.22783 31.7875C8.2634 31.9718 8.26208 32.1613 8.22393 32.345C8.18578 32.5288 8.11157 32.7031 8.00559 32.858C5.84191 36.0945 5.20426 38.8353 6.20805 40.577C7.62148 43.0255 12.42 43.6045 18.7312 42.0907C19.0973 42.0029 19.4833 42.0641 19.8042 42.2609C20.1252 42.4576 20.3548 42.7738 20.4427 43.1399C20.5305 43.506 20.4693 43.892 20.2725 44.2129C20.0758 44.5339 19.7596 44.7636 19.3935 44.8514C16.8476 45.4692 14.524 45.7691 12.4767 45.7691Z"
      fill="#FEFDFF" />
    <path
      d="M34.0728 38.6054C33.7613 38.6061 33.4583 38.5042 33.2104 38.3155C32.9626 38.1268 32.7837 37.8618 32.7014 37.5613C32.6191 37.2609 32.6379 36.9417 32.7549 36.6531C32.872 36.3644 33.0808 36.1223 33.3491 35.964C39.1816 32.5156 44.0927 28.3699 47.1731 24.2914C49.9612 20.6017 50.9158 17.3661 49.7909 15.4191C48.666 13.4721 45.3869 12.6802 40.7937 13.2497C35.7199 13.8798 29.6717 16.0615 23.7644 19.3992C23.4374 19.5739 23.0551 19.6137 22.6992 19.5102C22.3432 19.4066 22.0419 19.1679 21.8597 18.845C21.6775 18.5222 21.6289 18.1408 21.7243 17.7826C21.8196 17.4244 22.0513 17.1176 22.3699 16.9281C28.5922 13.4172 35.0113 11.1125 40.4446 10.438C46.3103 9.71047 50.5014 10.9763 52.2488 14.0047C53.9962 17.0331 52.9981 21.2895 49.438 26.0075C46.14 30.3737 40.9375 34.7795 34.7881 38.4124C34.5712 38.5396 34.3242 38.6062 34.0728 38.6054Z"
      fill="#FEFDFF" />
  </g>
  <defs>
    <clipPath id="clip0_2859_4559">
      <rect width="56" height="56" fill="white" />
    </clipPath>
  </defs>
</svg>