<svg xmlns="http://www.w3.org/2000/svg" width="36" height="36" viewBox="0 0 36 36" fill="none">
  <path d="M23.4778 17.4375L14.4778 1.68751C14.3787 1.51583 14.236 1.37339 14.0641 1.27461C13.8922 1.17583 13.6973 1.12422 13.4991 1.12501H6.74908C6.55275 1.12619 6.36015 1.17874 6.19042 1.27742C6.02069 1.3761 5.87974 1.51748 5.78158 1.68751C5.68284 1.85853 5.63086 2.05253 5.63086 2.25001C5.63086 2.44749 5.68284 2.64149 5.78158 2.81251L14.7816 18.5625C14.8797 18.7325 15.0207 18.8739 15.1904 18.9726C15.3602 19.0713 15.5528 19.1238 15.7491 19.125H22.4991C22.6954 19.1238 22.888 19.0713 23.0577 18.9726C23.2275 18.8739 23.3684 18.7325 23.4666 18.5625C23.567 18.3925 23.621 18.199 23.6229 18.0015C23.6249 17.804 23.5749 17.6095 23.4778 17.4375Z" fill="#0083FD"/>
  <path d="M17.0203 18.5625L8.02033 2.81251C7.92159 2.64149 7.86961 2.44749 7.86961 2.25001C7.86961 2.05253 7.92159 1.85853 8.02033 1.68751C8.11945 1.51583 8.26217 1.37339 8.43405 1.27461C8.60592 1.17583 8.80084 1.12422 8.99908 1.12501H6.74908C6.55275 1.12619 6.36015 1.17874 6.19042 1.27742C6.02069 1.3761 5.87974 1.51748 5.78158 1.68751C5.68284 1.85853 5.63086 2.05253 5.63086 2.25001C5.63086 2.44749 5.68284 2.64149 5.78158 2.81251L14.7816 18.5625C14.8797 18.7325 15.0207 18.8739 15.1904 18.9726C15.3602 19.0713 15.5528 19.1238 15.7491 19.125H17.9991C17.8008 19.1258 17.6059 19.0742 17.434 18.9754C17.2622 18.8766 17.1194 18.7342 17.0203 18.5625Z" fill="#0072FC"/>
  <path d="M30.2181 1.68751C30.1199 1.51748 29.979 1.3761 29.8092 1.27742C29.6395 1.17874 29.4469 1.12619 29.2506 1.12501H22.5006C22.3023 1.12422 22.1074 1.17583 21.9355 1.27461C21.7637 1.37339 21.6209 1.51583 21.5218 1.68751L12.5218 17.4375C12.4231 17.6085 12.3711 17.8025 12.3711 18C12.3711 18.1975 12.4231 18.3915 12.5218 18.5625C12.6209 18.7342 12.7637 18.8766 12.9355 18.9754C13.1074 19.0742 13.3023 19.1258 13.5006 19.125H20.2506C20.4488 19.1258 20.6437 19.0742 20.8156 18.9754C20.9875 18.8766 21.1302 18.7342 21.2293 18.5625L30.2293 2.81251C30.3264 2.6405 30.3764 2.44598 30.3744 2.2485C30.3724 2.05102 30.3185 1.85754 30.2181 1.68751Z" fill="#0083FD"/>
  <path d="M14.7831 18.5625C14.6843 18.3915 14.6323 18.1975 14.6323 18C14.6323 17.8025 14.6843 17.6085 14.7831 17.4375L23.7831 1.68751C23.8812 1.51748 24.0222 1.3761 24.1919 1.27742C24.3616 1.17874 24.5542 1.12619 24.7506 1.12501H22.5006C22.3023 1.12422 22.1074 1.17583 21.9355 1.27461C21.7637 1.37339 21.6209 1.51583 21.5218 1.68751L12.5218 17.4375C12.4231 17.6085 12.3711 17.8025 12.3711 18C12.3711 18.1975 12.4231 18.3915 12.5218 18.5625C12.6209 18.7342 12.7637 18.8766 12.9355 18.9754C13.1074 19.0742 13.3023 19.1258 13.5006 19.125H15.7506C15.5542 19.1238 15.3616 19.0713 15.1919 18.9726C15.0222 18.8739 14.8812 18.7325 14.7831 18.5625Z" fill="#0072FC"/>
  <path d="M18 34.875C24.8345 34.875 30.375 29.3345 30.375 22.5C30.375 15.6655 24.8345 10.125 18 10.125C11.1655 10.125 5.625 15.6655 5.625 22.5C5.625 29.3345 11.1655 34.875 18 34.875Z" fill="#E0E0E0"/>
  <path d="M7.87422 24.7502C7.87927 22.4423 8.5296 20.1818 9.75174 18.2241C10.9739 16.2664 12.7191 14.6894 14.7903 13.6714C16.8616 12.6533 19.1762 12.2347 21.4728 12.4629C23.7693 12.6911 25.9563 13.557 27.7867 14.9627C26.7229 13.5443 25.3668 12.3711 23.8101 11.5224C22.2534 10.6738 20.5325 10.1695 18.764 10.0438C16.9954 9.91814 15.2205 10.1739 13.5595 10.7939C11.8984 11.4139 10.39 12.3836 9.13627 13.6373C7.88258 14.8909 6.91292 16.3994 6.29294 18.0605C5.67297 19.7215 5.41717 21.4964 5.54285 23.2649C5.66854 25.0335 6.17278 26.7544 7.02143 28.311C7.87008 29.8677 9.04333 31.2239 10.4617 32.2877C8.78408 30.1334 7.87347 27.4807 7.87422 24.7502Z" fill="#CECECE"/>
  <path d="M20.8125 28.1252H15.4575C15.2348 28.1272 15.0164 28.0631 14.8302 27.941C14.6439 27.8188 14.4981 27.6441 14.4113 27.439C14.3223 27.2362 14.2951 27.0117 14.3331 26.7936C14.3711 26.5754 14.4727 26.3734 14.625 26.2127L18 22.8377C18.6368 22.1895 18.9925 21.3164 18.99 20.4077C18.9885 20.2378 18.9536 20.0699 18.8872 19.9135C18.8208 19.7571 18.7243 19.6153 18.6031 19.4962C18.4819 19.3771 18.3385 19.283 18.181 19.2194C18.0234 19.1557 17.8549 19.1237 17.685 19.1252C17.5094 19.1177 17.334 19.1454 17.1692 19.2068C17.0045 19.2681 16.8537 19.3619 16.7257 19.4824C16.5978 19.603 16.4953 19.748 16.4243 19.9089C16.3534 20.0697 16.3153 20.2432 16.3125 20.419C16.3125 20.7173 16.194 21.0035 15.983 21.2145C15.772 21.4254 15.4859 21.544 15.1875 21.544C14.8891 21.544 14.603 21.4254 14.392 21.2145C14.181 21.0035 14.0625 20.7173 14.0625 20.419C14.1137 19.5063 14.5124 18.6479 15.1766 18.0199C15.8409 17.3919 16.7203 17.042 17.6344 17.042C18.5485 17.042 19.4279 17.3919 20.0921 18.0199C20.7564 18.6479 21.155 19.5063 21.2063 20.419C21.2105 21.1619 21.0676 21.8984 20.7857 22.5858C20.5038 23.2732 20.0885 23.8979 19.5637 24.424L18.135 25.8752H20.8125C21.1109 25.8752 21.397 25.9937 21.608 26.2047C21.819 26.4157 21.9375 26.7018 21.9375 27.0002C21.9375 27.2986 21.819 27.5847 21.608 27.7957C21.397 28.0067 21.1109 28.1252 20.8125 28.1252Z" fill="#FFF5F5"/>
</svg>