<svg xmlns="http://www.w3.org/2000/svg" width="21" height="20" viewBox="0 0 21 20" fill="none">
  <path d="M18.3507 4.72411L15.6174 15.6575C15.2257 17.2159 13.8924 17.9158 12.7257 17.9158C12.7174 17.9158 12.7091 17.9158 12.7091 17.9158C11.5341 17.9075 10.1924 17.1908 9.82573 15.6158L9.10907 12.5742L13.5924 8.09081C13.9174 7.76581 13.9174 7.23254 13.5924 6.90754C13.2674 6.58254 12.734 6.58254 12.409 6.90754L7.9257 11.3908L4.88407 10.6742C3.30907 10.3076 2.59239 8.96593 2.58406 7.79926C2.57572 6.62426 3.27574 5.27426 4.84241 4.88259L15.7757 2.14924C16.5007 1.9659 17.2591 2.17417 17.7924 2.7075C18.3257 3.24084 18.534 3.99911 18.3507 4.72411Z" fill="#FEFDFF"/>
</svg>