<svg width="56" height="56" viewBox="0 0 56 56" fill="none" xmlns="http://www.w3.org/2000/svg">
  <g clip-path="url(#clip0_2859_4575)">
    <path
      d="M46.6775 27.0118C45.7349 27.0118 44.8245 26.6689 44.116 26.0471C43.4075 25.4253 42.9494 24.5671 42.827 23.6325C42.6577 22.3401 42.7466 20.8803 43.0919 19.2957L45.8658 19.9002C45.5895 21.1651 45.5138 22.2966 45.6406 23.2635C45.6646 23.4522 45.7399 23.6306 45.8582 23.7795C45.9765 23.9284 46.1334 24.0421 46.3117 24.1081C46.4901 24.1741 46.6831 24.19 46.8699 24.154C47.0566 24.118 47.2299 24.0315 47.371 23.904C47.5089 23.777 47.6706 23.6786 47.8468 23.6145C48.023 23.5503 48.2101 23.5217 48.3974 23.5304C48.5847 23.539 48.7685 23.5846 48.938 23.6647C49.1075 23.7447 49.2595 23.8575 49.3852 23.9967C49.5109 24.1358 49.6078 24.2984 49.6703 24.4752C49.7327 24.652 49.7595 24.8394 49.7491 25.0266C49.7388 25.2138 49.6914 25.3971 49.6097 25.5659C49.5281 25.7346 49.4138 25.8856 49.2735 26.0099C48.5623 26.6541 47.6371 27.0112 46.6775 27.0118Z"
      fill="#FEFDFF" />
    <path
      d="M23.0746 32.9087C22.7087 32.909 22.3567 32.768 22.0923 32.515C21.8279 32.262 21.6714 31.9167 21.6555 31.5511C21.5713 29.6173 22.383 28.0213 23.0794 27.0222C23.1929 26.8564 23.2574 26.6618 23.2652 26.461C23.2731 26.2601 23.2241 26.0612 23.1238 25.8869C22.9471 25.5785 22.6923 25.3219 22.385 25.1431C22.0778 24.9643 21.7289 24.8695 21.3733 24.8683C21.0178 24.867 20.6683 24.9594 20.3598 25.136C20.0512 25.3127 19.7947 25.5674 19.6158 25.8746C17.8504 28.9598 15.4389 29.4139 13.1077 29.8538C12.1144 30.043 11.086 30.2323 9.99611 30.6306C9.64232 30.759 9.25198 30.7417 8.91098 30.5824C8.56997 30.423 8.30622 30.1348 8.17775 29.781C8.04928 29.4272 8.06662 29.0369 8.22595 28.6959C8.38527 28.3548 8.67354 28.0911 9.02733 27.9626C10.3339 27.4896 11.5287 27.2625 12.5827 27.0639C14.7369 26.658 16.0377 26.413 17.1531 24.465C17.5802 23.7236 18.1952 23.108 18.9362 22.6803C19.6773 22.2526 20.518 22.028 21.3736 22.0292C22.2291 22.0303 23.0693 22.2572 23.8091 22.6869C24.549 23.1165 25.1624 23.7338 25.5874 24.4763C25.953 25.1176 26.13 25.849 26.0982 26.5864C26.0664 27.3239 25.827 28.0374 25.4076 28.6447C24.962 29.2843 24.4408 30.2862 24.4909 31.4272C24.499 31.6134 24.4704 31.7994 24.4066 31.9746C24.3428 32.1498 24.2451 32.3107 24.1191 32.4481C23.9931 32.5855 23.8413 32.6967 23.6723 32.7754C23.5033 32.8541 23.3205 32.8988 23.1342 32.9068L23.0746 32.9087Z"
      fill="#FEFDFF" />
    <path
      d="M12.3661 22.8142C11.3959 22.8133 10.4574 22.4687 9.71706 21.8416C9.42851 21.5998 9.24782 21.2534 9.21473 20.8784C9.18164 20.5034 9.29886 20.1306 9.54062 19.8421C9.78238 19.5535 10.1289 19.3728 10.5038 19.3397C10.8788 19.3066 11.2516 19.4239 11.5401 19.6656C11.7146 19.8146 11.9259 19.914 12.1519 19.9535C12.3779 19.9929 12.6103 19.9709 12.8249 19.8898C13.0393 19.8164 13.23 19.6865 13.3768 19.5139C13.5237 19.3412 13.6213 19.1322 13.6594 18.9088C13.893 17.572 13.8107 16.4821 13.4153 15.6704C13.2503 15.3316 13.2266 14.9412 13.3495 14.585C13.4724 14.2289 13.7317 13.9361 14.0704 13.7711C14.4092 13.6061 14.7996 13.5825 15.1557 13.7053C15.5119 13.8282 15.8047 14.0875 15.9697 14.4263C16.6319 15.7877 16.7965 17.4603 16.4578 19.3979C16.3366 20.1122 16.0273 20.7814 15.5617 21.3366C15.0962 21.8918 14.4911 22.313 13.8088 22.5568C13.3468 22.7267 12.8584 22.8138 12.3661 22.8142Z"
      fill="#FEFDFF" />
    <path
      d="M27.1144 21.0175C26.9246 21.0171 26.7367 20.9788 26.5619 20.9049L24.8069 20.1623C23.8647 19.7665 23.0921 19.0513 22.625 18.1424C22.1578 17.2335 22.0259 16.189 22.2525 15.1925C22.5685 13.8065 22.0973 13.0856 21.6631 12.6599C21.3876 12.4616 21.1923 12.171 21.1126 11.841C21.033 11.511 21.0743 11.1634 21.229 10.8612C21.3837 10.5591 21.6417 10.3224 21.956 10.1941C22.2703 10.0659 22.6202 10.0546 22.9422 10.1623C23.1409 10.2252 23.3235 10.3304 23.4777 10.4707C24.9535 11.8084 25.5023 13.711 25.0188 15.8245C24.9424 16.1715 24.9904 16.5344 25.1546 16.8495C25.3187 17.1646 25.5885 17.412 25.9167 17.5483L27.6716 18.2909C27.9736 18.4183 28.2221 18.6463 28.3751 18.9362C28.528 19.2261 28.5759 19.56 28.5106 19.8812C28.4453 20.2023 28.2708 20.491 28.0168 20.6981C27.7628 20.9053 27.445 21.0181 27.1172 21.0175H27.1144Z"
      fill="#FEFDFF" />
    <path
      d="M35.6235 20.0591C34.686 20.0582 33.7827 19.7062 33.0918 19.0724C30.8071 16.991 29.5204 14.5312 29.2669 11.7611C29.2499 11.5755 29.2697 11.3884 29.325 11.2104C29.3804 11.0324 29.4703 10.8671 29.5895 10.7238C29.8304 10.4345 30.1763 10.2528 30.5512 10.2185C30.926 10.1843 31.2992 10.3004 31.5884 10.5412C31.8777 10.7821 32.0595 11.128 32.0937 11.5028C32.283 13.5464 33.2593 15.3865 35.002 16.973C35.1227 17.0841 35.2705 17.1614 35.4307 17.1972C35.5908 17.2329 35.7575 17.2257 35.914 17.1764C36.0618 17.134 36.1958 17.0533 36.3024 16.9425C36.409 16.8317 36.4846 16.6947 36.5214 16.5454C36.8194 15.3448 37.4911 14.2975 38.3189 13.745C38.6319 13.536 39.0151 13.4599 39.3843 13.5335C39.7534 13.607 40.0782 13.8242 40.2872 14.1372C40.4962 14.4502 40.5723 14.8334 40.4988 15.2025C40.4252 15.5717 40.2081 15.8965 39.8951 16.1055C39.79 16.1755 39.4495 16.5331 39.2773 17.2285C39.1239 17.8556 38.8088 18.4316 38.3634 18.8991C37.918 19.3665 37.358 19.7091 36.739 19.8926C36.3774 20.0027 36.0015 20.0588 35.6235 20.0591Z"
      fill="#FEFDFF" />
    <path
      d="M30.0511 34.9314C29.8137 34.9314 29.5801 34.8718 29.3716 34.7582C29.1632 34.6446 28.9866 34.4805 28.858 34.2809C28.7294 34.0813 28.653 33.8527 28.6356 33.6159C28.6183 33.3792 28.6606 33.1419 28.7587 32.9257C30.1996 29.7336 30.1532 28.2474 29.9962 27.1054C29.8979 26.4118 29.9853 25.7044 30.2495 25.0555C30.5137 24.4067 30.9453 23.8394 31.5002 23.4117C32.055 22.9839 32.7134 22.711 33.4082 22.6206C34.1029 22.5303 34.8092 22.6257 35.455 22.8973C36.2838 23.2483 37.14 23.5804 38 23.8869C39.5941 24.4545 40.7701 25.2672 41.4938 26.3041C41.8105 26.7537 42.004 27.2783 42.0553 27.8258C42.1066 28.3733 42.0138 28.9247 41.7862 29.4252C41.5625 29.9338 41.2101 30.3753 40.7636 30.706C40.3171 31.0367 39.792 31.2451 39.2403 31.3107C38.4834 31.4053 38.0662 31.674 37.7918 32.2483C37.6291 32.588 37.3381 32.8492 36.9828 32.9744C36.6275 33.0996 36.2371 33.0785 35.8973 32.9157C35.5576 32.753 35.2964 32.462 35.1712 32.1067C35.0461 31.7514 35.0672 31.361 35.2299 31.0212C35.7124 30.0108 36.7436 28.7507 38.8959 28.4895C38.9609 28.4819 39.0226 28.457 39.0748 28.4176C39.127 28.3782 39.1678 28.3257 39.193 28.2653C39.2192 28.2123 39.2306 28.1532 39.226 28.0942C39.2213 28.0352 39.2008 27.9786 39.1665 27.9304C38.7928 27.3959 38.0596 26.9219 37.0473 26.5615C36.1362 26.2369 35.2289 25.885 34.3491 25.5132C34.1691 25.4344 33.9712 25.4059 33.7763 25.4305C33.5814 25.4552 33.3969 25.5321 33.2422 25.6532C33.0799 25.7753 32.9538 25.9391 32.8771 26.1272C32.8005 26.3153 32.7763 26.5206 32.807 26.7213C33.0331 28.3675 33.0123 30.4006 31.3444 34.096C31.232 34.3449 31.0502 34.5561 30.8208 34.7043C30.5914 34.8525 30.3242 34.9313 30.0511 34.9314Z"
      fill="#FEFDFF" />
    <path
      d="M43.8477 51.7214H36.5118C36.1354 51.7214 35.7745 51.5719 35.5083 51.3057C35.2422 51.0396 35.0927 50.6786 35.0927 50.3023V40.6523H30.527C28.3183 40.6558 26.1721 39.919 24.4314 38.5596C22.75 39.1227 20.9486 39.2255 19.2141 38.8574C17.4796 38.4892 15.8753 37.6635 14.5676 36.4659C11.8413 37.217 8.934 36.9393 6.39921 35.6856C3.86441 34.4319 1.87916 32.2899 0.821442 29.6672C-0.236278 27.0446 -0.2926 24.1246 0.663198 21.4631C1.619 18.8017 3.52016 16.5847 6.00473 15.2342C6.55331 13.1032 7.79537 11.2154 9.53516 9.8682C11.275 8.521 13.4136 7.79101 15.614 7.79329H15.7767C17.1912 6.12232 19.1182 4.96545 21.2579 4.50249C23.3977 4.03953 25.6305 4.29641 27.6093 5.23321C29.5886 4.29706 31.8218 4.04108 33.9616 4.50508C36.1014 4.96907 38.028 6.12705 39.4418 7.79896H39.6036C41.5152 7.80161 43.3856 8.35499 44.991 9.39289C46.5963 10.4308 47.8686 11.9093 48.6556 13.6514C50.3209 14.0998 51.8405 14.9744 53.0648 16.189C54.2891 17.4036 55.1758 18.9162 55.6374 20.5778C56.099 22.2395 56.1197 23.9927 55.6973 25.6648C55.275 27.3368 54.4242 28.8699 53.2289 30.1131C53.3497 30.6464 53.4106 31.1916 53.4106 31.7384C53.4106 35.6419 51.5355 37.3013 49.7209 38.9068C47.5307 40.8463 45.2658 42.851 45.2658 49.9115V50.3032C45.2656 50.6793 45.1161 51.0398 44.8502 51.3057C44.5843 51.5716 44.2237 51.7211 43.8477 51.7214ZM37.9309 48.8832H42.4446C42.6812 41.3486 45.5317 38.8255 47.8373 36.781C49.4825 35.325 50.5695 34.3628 50.5695 31.7375C50.5687 31.2034 50.4726 30.6738 50.2857 30.1736C50.1851 29.9021 50.17 29.6062 50.2423 29.3259C50.3147 29.0455 50.4711 28.7939 50.6906 28.605C51.7037 27.7337 52.4497 26.5938 52.8427 25.3167C53.2357 24.0396 53.2596 22.6774 52.9116 21.3873C52.5636 20.0972 51.858 18.9318 50.8761 18.0255C49.8942 17.1192 48.6761 16.5091 47.3623 16.2654C47.117 16.2207 46.8879 16.1122 46.6979 15.9507C46.5079 15.7893 46.3637 15.5806 46.28 15.3458C45.7479 13.8588 44.7352 12.5916 43.4022 11.7447C42.0691 10.8977 40.4918 10.5193 38.9196 10.6694C38.6719 10.6933 38.4224 10.6517 38.1959 10.5487C37.9694 10.4458 37.7739 10.2851 37.6291 10.0828C36.6055 8.65097 35.0859 7.65119 33.3658 7.27802C31.6458 6.90484 29.8484 7.18496 28.3235 8.06386C28.1078 8.18842 27.8631 8.25399 27.614 8.25399C27.3649 8.25399 27.1202 8.18842 26.9044 8.06386C25.3794 7.1849 23.5819 6.90475 21.8617 7.27792C20.1415 7.6511 18.6217 8.6509 17.5979 10.0828C17.4532 10.2849 17.2579 10.4455 17.0316 10.5485C16.8053 10.6514 16.5559 10.6931 16.3084 10.6694C16.0785 10.6466 15.8467 10.6353 15.6197 10.6353C13.9597 10.6327 12.3516 11.2137 11.0766 12.2768C9.80169 13.3399 8.94105 14.8174 8.64522 16.4508C8.60494 16.674 8.51176 16.8842 8.37349 17.064C8.23522 17.2437 8.05589 17.3877 7.85052 17.4839C5.82595 18.431 4.24444 20.1221 3.435 22.2055C2.62556 24.2889 2.65051 26.6042 3.50466 28.6697C4.35881 30.7352 5.97639 32.3918 8.0209 33.295C10.0654 34.1982 12.3794 34.2784 14.4815 33.5189C14.7462 33.4225 15.0335 33.407 15.3069 33.4744C15.5803 33.5418 15.8275 33.689 16.017 33.8974C16.6806 34.6321 17.4905 35.2198 18.3948 35.6227C19.2991 36.0256 20.2777 36.2349 21.2677 36.237C22.2548 36.2391 23.2313 36.0331 24.1334 35.6325C24.3885 35.5193 24.6713 35.484 24.9465 35.5307C25.2216 35.5775 25.4768 35.7044 25.6802 35.8955C26.9916 37.1303 28.7257 37.8167 30.527 37.8141H36.5118C36.8882 37.8141 37.2491 37.9636 37.5153 38.2297C37.7814 38.4959 37.9309 38.8568 37.9309 39.2332V48.8832Z"
      fill="#FEFDFF" />
  </g>
  <defs>
    <clipPath id="clip0_2859_4575">
      <rect width="56" height="56" fill="white" />
    </clipPath>
  </defs>
</svg>