<svg width="160" height="146" viewBox="0 0 160 146" fill="none" xmlns="http://www.w3.org/2000/svg">
<path d="M117.973 61.8495L71.2128 69.543C70.3556 69.6842 69.6807 70.3592 69.5395 71.2164L61.8463 117.979C61.467 120.243 58.2042 120.243 57.8248 117.979L50.1317 71.2164C49.9904 70.3592 49.3156 69.6826 48.4584 69.543L1.69833 61.8495C-0.566109 61.4701 -0.566109 58.2071 1.69833 57.8278L48.4584 50.1342C49.3156 49.993 49.9921 49.318 50.1317 48.4608L57.8248 1.69841C58.2042 -0.566138 61.467 -0.566138 61.8463 1.69841L69.5395 48.4608C69.6807 49.318 70.3556 49.993 71.2128 50.1342L117.973 57.8278C120.236 58.2071 120.236 61.4701 117.973 61.8495Z" fill="#F0ECFF"/>
<path d="M159.283 29.2634L139.54 32.5116C139.177 32.5707 138.893 32.8565 138.834 33.2178L135.586 52.9616C135.425 53.9173 134.048 53.9173 133.888 52.9616L130.64 33.2178C130.581 32.8549 130.295 32.5707 129.934 32.5116L110.191 29.2634C109.236 29.1025 109.236 27.7264 110.191 27.5654L129.934 24.3172C130.297 24.2581 130.581 23.9724 130.64 23.6111L133.888 3.86726C134.049 2.91152 135.425 2.91152 135.586 3.86726L138.834 23.6111C138.893 23.974 139.179 24.2581 139.54 24.3172L159.283 27.5654C160.239 27.7264 160.239 29.1025 159.283 29.2634Z" fill="#8A70FF"/>
<path d="M145.748 113.876L119.772 118.149C119.295 118.228 118.919 118.602 118.842 119.078L114.569 145.056C114.359 146.314 112.546 146.314 112.335 145.056L108.062 119.078C107.983 118.602 107.609 118.226 107.132 118.149L81.1563 113.876C79.8984 113.666 79.8984 111.853 81.1563 111.641L107.132 107.368C107.609 107.289 107.985 106.915 108.062 106.438L112.335 80.461C112.545 79.2031 114.358 79.2031 114.569 80.461L118.842 106.438C118.921 106.915 119.295 107.291 119.772 107.368L145.748 111.641C147.006 111.851 147.006 113.664 145.748 113.876Z" fill="#CEC3FF"/>
</svg>
