<svg width="56" height="56" viewBox="0 0 56 56" fill="none" xmlns="http://www.w3.org/2000/svg">
  <g clip-path="url(#clip0_2860_4714)">
    <path
      d="M16.4401 47.3897C16.1176 47.3902 15.7981 47.3271 15.5001 47.2039C15.202 47.0807 14.9311 46.9 14.703 46.672C14.4749 46.4439 14.2941 46.1732 14.1708 45.8751C14.0475 45.5771 13.9842 45.2577 13.9846 44.9352V36.5218C13.9846 36.1452 14.1342 35.784 14.4005 35.5177C14.6668 35.2515 15.0279 35.1019 15.4045 35.1019C15.7811 35.1019 16.1423 35.2515 16.4085 35.5177C16.6748 35.784 16.8244 36.1452 16.8244 36.5218V44.264L22.2068 41.1118C22.5311 40.9309 22.9135 40.8843 23.2718 40.9819C23.6301 41.0796 23.9359 41.3137 24.1237 41.6342C24.3114 41.9547 24.3661 42.3359 24.276 42.6962C24.1859 43.0565 23.9583 43.3672 23.6418 43.5616L17.6783 47.0537C17.3027 47.2736 16.8753 47.3895 16.4401 47.3897Z"
      fill="#FEFDFF" />
    <path
      d="M18.4459 36.5975C18.1214 36.5962 17.8071 36.4837 17.5553 36.2789C17.3036 36.074 17.1297 35.7891 17.0625 35.4715C16.9953 35.154 17.0389 34.823 17.1861 34.5337C17.3333 34.2445 17.5751 34.0143 17.8713 33.8817C19.5156 33.1547 19.3859 29.8265 19.3073 28.824C19.2882 28.6358 19.3069 28.4456 19.3623 28.2647C19.4177 28.0839 19.5087 27.9159 19.6299 27.7706C19.7512 27.6254 19.9002 27.5058 20.0683 27.419C20.2364 27.3322 20.4201 27.2798 20.6087 27.265C20.7973 27.2502 20.987 27.2732 21.1666 27.3327C21.3462 27.3922 21.512 27.487 21.6545 27.6115C21.7969 27.736 21.913 27.8877 21.996 28.0578C22.079 28.2278 22.1272 28.4127 22.1377 28.6016C22.4567 32.6511 21.3492 35.4493 19.0196 36.4792C18.8387 36.5581 18.6433 36.5984 18.4459 36.5975Z"
      fill="#FEFDFF" />
    <path
      d="M39.5598 47.3897C39.1236 47.3903 38.6952 47.2743 38.3188 47.0537L32.3553 43.5616C32.0388 43.3672 31.8112 43.0565 31.7211 42.6962C31.631 42.3359 31.6857 41.9547 31.8734 41.6342C32.0612 41.3137 32.367 41.0796 32.7253 40.9819C33.0836 40.8843 33.466 40.9309 33.7903 41.1118L39.1727 44.264V36.5218C39.1727 36.1452 39.3223 35.784 39.5886 35.5177C39.8548 35.2515 40.216 35.1019 40.5926 35.1019C40.9692 35.1019 41.3303 35.2515 41.5966 35.5177C41.8629 35.784 42.0125 36.1452 42.0125 36.5218V44.9352C42.0129 45.2576 41.9496 45.577 41.8264 45.8749C41.7032 46.1729 41.5224 46.4436 41.2944 46.6716C41.0664 46.8996 40.7957 47.0804 40.4977 47.2036C40.1997 47.3268 39.8804 47.3901 39.5579 47.3897H39.5598Z"
      fill="#FEFDFF" />
    <path
      d="M37.5531 36.5975C37.3556 36.5975 37.1602 36.5562 36.9795 36.4763C34.6508 35.4464 33.5433 32.6502 33.8614 28.6025C33.8719 28.4136 33.9201 28.2287 34.003 28.0587C34.086 27.8887 34.2021 27.737 34.3446 27.6125C34.487 27.4879 34.6529 27.3931 34.8325 27.3336C35.0121 27.2741 35.2017 27.2511 35.3903 27.2659C35.5789 27.2808 35.7627 27.3331 35.9308 27.42C36.0988 27.5068 36.2479 27.6263 36.3691 27.7716C36.4904 27.9168 36.5813 28.0848 36.6367 28.2657C36.6921 28.4466 36.7108 28.6367 36.6917 28.825C36.6131 29.8265 36.4844 33.1519 38.1277 33.8789C38.4256 34.0105 38.6692 34.2406 38.8176 34.5305C38.9661 34.8204 39.0103 35.1526 38.943 35.4712C38.8756 35.7899 38.7008 36.0757 38.4477 36.2808C38.1947 36.4858 37.8788 36.5977 37.5531 36.5975Z"
      fill="#FEFDFF" />
    <path
      d="M27.9999 34.7337C25.7281 34.7337 23.3559 33.6261 21.3131 31.6146C19.3044 29.6362 17.7984 26.9412 17.0724 24.0257C16.9813 23.6602 17.0393 23.2734 17.2334 22.9506C17.4275 22.6278 17.7419 22.3953 18.1075 22.3043C18.473 22.2133 18.8597 22.2712 19.1825 22.4653C19.5054 22.6595 19.7379 22.9739 19.8289 23.3394C21.1427 28.6196 25.0939 31.8939 27.9999 31.8939C30.906 31.8939 34.8562 28.6233 36.171 23.3394C36.2642 22.9763 36.4971 22.6648 36.819 22.4728C37.141 22.2808 37.5258 22.2239 37.8895 22.3145C38.2532 22.4051 38.5664 22.6358 38.7606 22.9564C38.9549 23.277 39.0146 23.6613 38.9266 24.0257C38.2005 26.9412 36.6945 29.6362 34.6858 31.6146C32.643 33.6223 30.268 34.7337 27.9999 34.7337Z"
      fill="#FEFDFF" />
    <path
      d="M27.9999 21.1026C21.2866 21.1026 17.3289 18.3253 17.1632 18.2069C16.8709 17.9831 16.677 17.6544 16.6224 17.2902C16.5678 16.9261 16.6568 16.555 16.8706 16.2552C17.0844 15.9554 17.4063 15.7504 17.7684 15.6835C18.1304 15.6165 18.5044 15.6928 18.8112 15.8963C18.8643 15.9332 22.2673 18.2628 27.9999 18.2628C33.8111 18.2628 37.1497 15.9219 37.1819 15.8963C37.3333 15.7839 37.5056 15.7027 37.6886 15.6576C37.8717 15.6124 38.0619 15.6042 38.2482 15.6334C38.4345 15.6626 38.6131 15.7285 38.7736 15.8275C38.9341 15.9264 39.0733 16.0564 39.1831 16.2097C39.2929 16.363 39.371 16.5366 39.4129 16.7205C39.4548 16.9043 39.4597 17.0947 39.4273 17.2804C39.3948 17.4662 39.3257 17.6436 39.224 17.8023C39.1223 17.9611 38.9899 18.098 38.8347 18.2051C38.67 18.3253 34.7132 21.1026 27.9999 21.1026Z"
      fill="#FEFDFF" />
    <path
      d="M17.9942 18.472C17.9379 18.4721 17.8817 18.4689 17.8257 18.4625C17.4518 18.4182 17.1108 18.2271 16.8777 17.9314C16.6446 17.6356 16.5386 17.2594 16.5829 16.8855L17.2654 11.1112C17.3142 10.7412 17.5067 10.4052 17.8014 10.1761C18.096 9.94695 18.469 9.84304 18.8397 9.88683C19.2103 9.93063 19.5489 10.1186 19.782 10.4101C20.0151 10.7016 20.1241 11.0732 20.0853 11.4444L19.4028 17.2187C19.362 17.5637 19.1961 17.8819 18.9366 18.1129C18.677 18.3438 18.3417 18.4716 17.9942 18.472Z"
      fill="#FEFDFF" />
    <path
      d="M38.0074 18.472C37.6604 18.4717 37.3255 18.3443 37.066 18.1139C36.8064 17.8835 36.6403 17.5661 36.5989 17.2215L35.9164 11.4473C35.8776 11.076 35.9866 10.7045 36.2197 10.413C36.4528 10.1215 36.7913 9.93348 37.162 9.88968C37.5326 9.84588 37.9057 9.9498 38.2003 10.1789C38.4949 10.4081 38.6875 10.744 38.7363 11.114L39.4188 16.8883C39.4631 17.2623 39.357 17.6385 39.1239 17.9342C38.8909 18.23 38.5499 18.421 38.1759 18.4654C38.1199 18.4708 38.0637 18.473 38.0074 18.472Z"
      fill="#FEFDFF" />
    <path
      d="M27.9999 15.3065C27.8363 15.3063 27.674 15.2781 27.5199 15.2232L10.1375 8.98608C9.86209 8.88735 9.62392 8.70596 9.45553 8.46671C9.28715 8.22746 9.19678 7.94205 9.19678 7.64948C9.19678 7.35692 9.28715 7.0715 9.45553 6.83225C9.62392 6.59301 9.86209 6.41161 10.1375 6.31288L27.5199 0.0880336C27.83 -0.0226917 28.1688 -0.0226917 28.4788 0.0880336L45.8594 6.31667C46.1348 6.4154 46.373 6.5968 46.5413 6.83604C46.7097 7.07529 46.8001 7.36071 46.8001 7.65327C46.8001 7.94583 46.7097 8.23125 46.5413 8.4705C46.373 8.70974 46.1348 8.89114 45.8594 8.98987L28.4788 15.2232C28.3251 15.278 28.1631 15.3062 27.9999 15.3065ZM14.8251 7.65327L27.9999 12.3778L41.1747 7.65327L27.9999 2.92784L14.8251 7.65327Z"
      fill="#FEFDFF" />
    <path
      d="M42.8511 17.6873C42.4745 17.6873 42.1133 17.5377 41.847 17.2714C41.5807 17.0051 41.4312 16.6439 41.4312 16.2674V8.56012C41.4312 8.18354 41.5807 7.82238 41.847 7.5561C42.1133 7.28981 42.4745 7.14022 42.8511 7.14022C43.2276 7.14022 43.5888 7.28981 43.8551 7.5561C44.1214 7.82238 44.271 8.18354 44.271 8.56012V16.2674C44.271 16.6439 44.1214 17.0051 43.8551 17.2714C43.5888 17.5377 43.2276 17.6873 42.8511 17.6873Z"
      fill="#FEFDFF" />
    <path
      d="M2.19082 56C2.11634 56 2.04198 55.9943 1.96836 55.983C1.78413 55.9541 1.6074 55.8891 1.44826 55.7919C1.28913 55.6946 1.15072 55.567 1.04093 55.4162C0.931134 55.2654 0.852116 55.0945 0.808386 54.9132C0.764655 54.7319 0.757069 54.5438 0.786059 54.3596L2.00339 46.5927C2.60448 42.758 4.93123 39.6002 8.22351 38.1414L17.8713 33.8817C18.1703 33.7489 18.5061 33.7235 18.8217 33.8098C19.1374 33.896 19.4136 34.0886 19.6036 34.355L27.9999 46.2216L36.3944 34.355C36.5844 34.0884 36.8608 33.8956 37.1766 33.8094C37.4925 33.7231 37.8284 33.7487 38.1276 33.8817L47.7754 38.1414C51.0695 39.5973 53.3944 42.7552 53.9955 46.5899L55.2128 54.3567C55.242 54.541 55.2347 54.7291 55.1912 54.9105C55.1477 55.0919 55.0688 55.2629 54.9592 55.4139C54.8496 55.5648 54.7114 55.6926 54.5523 55.7901C54.3933 55.8876 54.2166 55.9528 54.0324 55.982C53.8482 56.0113 53.66 56.0039 53.4786 55.9604C53.2972 55.9169 53.1262 55.8381 52.9753 55.7285C52.8244 55.6188 52.6965 55.4806 52.599 55.3216C52.5015 55.1625 52.4363 54.9859 52.4071 54.8016L51.1898 47.0348C50.7458 44.2016 48.9974 41.7906 46.6271 40.7427L38.0424 36.9478L29.1586 49.5007C29.0274 49.686 28.8537 49.8373 28.652 49.9416C28.4503 50.046 28.2265 50.1005 27.9994 50.1005C27.7724 50.1005 27.5486 50.046 27.3469 49.9416C27.1452 49.8373 26.9715 49.686 26.8403 49.5007L17.9574 36.9459L9.37174 40.7408C7.00523 41.7887 5.25307 44.1997 4.80912 47.0329L3.59179 54.8016C3.53907 55.1354 3.36904 55.4395 3.11225 55.6591C2.85545 55.8788 2.52874 55.9997 2.19082 56Z"
      fill="#FEFDFF" />
  </g>
  <defs>
    <clipPath id="clip0_2860_4714">
      <rect width="56" height="56" fill="white" />
    </clipPath>
  </defs>
</svg>