<svg width="97" height="96" viewBox="0 0 97 96" fill="none" xmlns="http://www.w3.org/2000/svg">
<g id="teacher_3307318 1">
<g id="Group">
<path id="Vector" d="M20.7452 59.4555C20.2277 59.4555 19.7314 59.2499 19.3655 58.8839C18.9995 58.518 18.7939 58.0217 18.7939 57.5042V43.5851C18.7939 43.0676 18.9995 42.5712 19.3655 42.2053C19.7314 41.8394 20.2277 41.6338 20.7452 41.6338C21.2627 41.6338 21.759 41.8394 22.125 42.2053C22.4909 42.5712 22.6965 43.0676 22.6965 43.5851V57.5042C22.6965 58.0217 22.4909 58.518 22.125 58.8839C21.759 59.2499 21.2627 59.4555 20.7452 59.4555Z" fill="#6444F4"/>
<path id="Vector_2" d="M29.5373 28.3755C27.6707 28.3755 25.846 27.822 24.294 26.7849C22.742 25.7479 21.5323 24.274 20.818 22.5494C20.1037 20.8249 19.9168 18.9273 20.281 17.0966C20.6451 15.2659 21.544 13.5842 22.8638 12.2644C24.1837 10.9445 25.8654 10.0456 27.6961 9.68147C29.5268 9.31731 31.4244 9.50421 33.1489 10.2185C34.8734 10.9328 36.3474 12.1425 37.3844 13.6945C38.4215 15.2465 38.975 17.0712 38.975 18.9378C38.9722 21.44 37.977 23.8389 36.2077 25.6082C34.4384 27.3775 32.0395 28.3727 29.5373 28.3755ZM29.5373 13.4027C28.4425 13.4027 27.3724 13.7273 26.4621 14.3355C25.5519 14.9437 24.8424 15.8082 24.4235 16.8196C24.0046 17.831 23.8949 18.9439 24.1085 20.0177C24.3221 21.0914 24.8493 22.0776 25.6234 22.8517C26.3975 23.6258 27.3837 24.153 28.4574 24.3666C29.5311 24.5801 30.6441 24.4705 31.6555 24.0516C32.6669 23.6327 33.5314 22.9232 34.1396 22.013C34.7478 21.1027 35.0724 20.0325 35.0724 18.9378C35.0707 17.4703 34.487 16.0634 33.4493 15.0258C32.4116 13.9881 31.0048 13.4044 29.5373 13.4027Z" fill="#6444F4"/>
<path id="Vector_3" d="M60.307 42.9736C59.9302 42.9739 59.5614 42.865 59.2452 42.6602C58.9289 42.4554 58.6787 42.1634 58.5248 41.8195C58.3708 41.4756 58.3198 41.0945 58.3777 40.7222C58.4357 40.3499 58.6002 40.0023 58.8514 39.7215L69.4533 27.8369C69.6241 27.6457 69.831 27.4899 70.062 27.3786C70.293 27.2673 70.5437 27.2026 70.7997 27.1882C71.0557 27.1737 71.3121 27.2099 71.5541 27.2945C71.7962 27.3791 72.0192 27.5106 72.2105 27.6815C72.4017 27.8523 72.5574 28.0591 72.6688 28.2901C72.7801 28.5211 72.8448 28.7718 72.8592 29.0278C72.8737 29.2839 72.8375 29.5402 72.7529 29.7823C72.6682 30.0243 72.5368 30.2474 72.3659 30.4386L61.764 42.3167C61.5813 42.5228 61.357 42.6879 61.1058 42.8012C60.8547 42.9144 60.5825 42.9732 60.307 42.9736Z" fill="#6444F4"/>
<path id="Vector_4" d="M81.1461 60.5936H46.1363C45.6188 60.5936 45.1225 60.388 44.7566 60.0221C44.3906 59.6562 44.1851 59.1599 44.1851 58.6423C44.1851 58.1248 44.3906 57.6285 44.7566 57.2626C45.1225 56.8966 45.6188 56.6911 46.1363 56.6911H81.1461C81.6637 56.6911 82.16 56.4855 82.5259 56.1196C82.8918 55.7536 83.0974 55.2573 83.0974 54.7398V15.3981C83.0974 14.8806 82.8918 14.3843 82.5259 14.0184C82.16 13.6524 81.6637 13.4469 81.1461 13.4469H42.8673C42.3498 13.4469 41.8535 13.2413 41.4875 12.8754C41.1216 12.5094 40.916 12.0131 40.916 11.4956C40.916 10.9781 41.1216 10.4818 41.4875 10.1158C41.8535 9.74989 42.3498 9.54431 42.8673 9.54431H81.1461C82.6987 9.54431 84.1876 10.1611 85.2854 11.2589C86.3832 12.3567 87 13.8456 87 15.3981V54.7398C87 56.2923 86.3832 57.7813 85.2854 58.8791C84.1876 59.9769 82.6987 60.5936 81.1461 60.5936Z" fill="#6444F4"/>
<path id="Vector_5" d="M29.5377 86.5014H20.7452C20.2277 86.5014 19.7314 86.2958 19.3655 85.9299C18.9995 85.564 18.7939 85.0676 18.7939 84.5501V57.5041C18.7939 56.9866 18.9995 56.4903 19.3655 56.1244C19.7314 55.7584 20.2277 55.5529 20.7452 55.5529C21.2627 55.5529 21.759 55.7584 22.125 56.1244C22.4909 56.4903 22.6965 56.9866 22.6965 57.5041V82.5989H29.5377C30.0552 82.5989 30.5515 82.8044 30.9174 83.1704C31.2834 83.5363 31.489 84.0326 31.489 84.5501C31.489 85.0676 31.2834 85.564 30.9174 85.9299C30.5515 86.2958 30.0552 86.5014 29.5377 86.5014Z" fill="#6444F4"/>
<path id="Vector_6" d="M38.3312 86.5014H29.5375C29.02 86.5014 28.5237 86.2958 28.1577 85.9299C27.7918 85.5639 27.5862 85.0676 27.5862 84.5501V58.6424C27.5862 58.1248 27.7918 57.6285 28.1577 57.2626C28.5237 56.8967 29.02 56.6911 29.5375 56.6911C30.055 56.6911 30.5513 56.8967 30.9172 57.2626C31.2832 57.6285 31.4888 58.1248 31.4888 58.6424V82.5988H36.38V45.7067C36.3798 44.8969 36.6199 44.1052 37.0698 43.4318C37.5197 42.7584 38.1592 42.2336 38.9075 41.9238C39.6557 41.6139 40.479 41.533 41.2732 41.6911C42.0675 41.8493 42.797 42.2395 43.3694 42.8123L46.4277 45.8667C46.6543 46.0943 46.9237 46.2748 47.2205 46.3976C47.5173 46.5204 47.8354 46.5831 48.1566 46.5822H57.2378C57.5633 46.5822 57.8855 46.5173 58.1856 46.3913C58.4856 46.2652 58.7575 46.0805 58.9853 45.848C59.2131 45.6155 59.3921 45.3399 59.512 45.0373C59.6319 44.7347 59.6902 44.4112 59.6834 44.0858C59.6561 42.7655 58.5205 41.6923 57.152 41.6923H49.9726C49.4552 41.6918 48.9592 41.4859 48.5937 41.1199L44.3932 36.9207C43.6312 36.1542 42.7246 35.5466 41.726 35.1331C40.7274 34.7195 39.6566 34.5083 38.5758 34.5116H37.0616L34.1126 36.9637C32.8278 38.0314 31.21 38.616 29.5394 38.616C27.8689 38.616 26.251 38.0314 24.9663 36.9637L22.0147 34.5116H20.745C18.9309 34.5136 17.1917 35.2352 15.909 36.518C14.6262 37.8007 13.9046 39.5399 13.9026 41.354C13.9026 41.8716 13.697 42.3679 13.331 42.7338C12.9651 43.0997 12.4688 43.3053 11.9513 43.3053C11.4338 43.3053 10.9375 43.0997 10.5715 42.7338C10.2056 42.3679 10 41.8716 10 41.354C10.0031 38.5052 11.1362 35.774 13.1506 33.7596C15.165 31.7452 17.8962 30.6121 20.745 30.609H22.7197C23.1755 30.6092 23.6169 30.7689 23.9672 31.0604L27.4587 33.9626C28.0431 34.4493 28.7796 34.7159 29.5401 34.7159C30.3006 34.7159 31.0371 34.4493 31.6215 33.9626L35.1103 31.0591C35.4607 30.7676 35.9021 30.6079 36.3579 30.6077H38.5784C40.1719 30.6033 41.7504 30.915 43.2226 31.5249C44.6947 32.1347 46.0313 33.0304 47.1549 34.1603L50.7843 37.7897H57.1585C60.6369 37.7897 63.5222 40.5787 63.5912 44.0078C63.6083 44.8521 63.4568 45.6913 63.1455 46.4764C62.8343 47.2614 62.3695 47.9765 61.7785 48.5796C61.1874 49.1828 60.4819 49.662 59.7034 49.9891C58.9248 50.3162 58.0888 50.4847 57.2443 50.4847H48.1514C47.3175 50.4871 46.4915 50.324 45.7212 50.0049C44.9508 49.6858 44.2514 49.2171 43.6634 48.6258L40.6103 45.5688C40.5854 45.5441 40.5542 45.5265 40.52 45.5181C40.4859 45.5096 40.4502 45.5105 40.4165 45.5207C40.3784 45.5335 40.3454 45.558 40.322 45.5907C40.2987 45.6234 40.2862 45.6626 40.2864 45.7028V84.5462C40.2869 84.8031 40.2367 85.0576 40.1386 85.295C40.0406 85.5325 39.8966 85.7482 39.7149 85.9299C39.5333 86.1115 39.3175 86.2555 39.0801 86.3536C38.8426 86.4517 38.5881 86.5019 38.3312 86.5014Z" fill="#6444F4"/>
<path id="Vector_7" d="M16.3482 63.8523C14.665 63.8506 13.0514 63.1812 11.8612 61.9911C10.6711 60.8009 10.0017 59.1872 10 57.5041V41.3528C10 40.8353 10.2056 40.3389 10.5715 39.973C10.9375 39.6071 11.4338 39.4015 11.9513 39.4015C12.4688 39.4015 12.9651 39.6071 13.331 39.973C13.697 40.3389 13.9026 40.8353 13.9026 41.3528V57.5041C13.9026 58.1528 14.1602 58.7748 14.6189 59.2334C15.0775 59.6921 15.6995 59.9497 16.3482 59.9497C16.9968 59.9497 17.6188 59.6921 18.0775 59.2334C18.5361 58.7748 18.7938 58.1528 18.7938 57.5041C18.7938 56.9866 18.9993 56.4903 19.3653 56.1244C19.7312 55.7584 20.2275 55.5529 20.745 55.5529C21.2625 55.5529 21.7589 55.7584 22.1248 56.1244C22.4907 56.4903 22.6963 56.9866 22.6963 57.5041C22.6946 59.1872 22.0252 60.8009 20.8351 61.9911C19.6449 63.1812 18.0313 63.8506 16.3482 63.8523Z" fill="#6444F4"/>
<path id="Vector_8" d="M71.4041 86.5014H11.9552C11.4377 86.5014 10.9414 86.2959 10.5754 85.9299C10.2095 85.564 10.0039 85.0677 10.0039 84.5502C10.0039 84.0326 10.2095 83.5363 10.5754 83.1704C10.9414 82.8045 11.4377 82.5989 11.9552 82.5989H71.4041C71.9216 82.5989 72.4179 82.8045 72.7839 83.1704C73.1498 83.5363 73.3554 84.0326 73.3554 84.5502C73.3554 85.0677 73.1498 85.564 72.7839 85.9299C72.4179 86.2959 71.9216 86.5014 71.4041 86.5014Z" fill="#6444F4"/>
<path id="Vector_9" d="M60.7887 31.0877H50.672C50.1545 31.0877 49.6582 30.8822 49.2922 30.5162C48.9263 30.1503 48.7207 29.654 48.7207 29.1365C48.7207 28.6189 48.9263 28.1226 49.2922 27.7567C49.6582 27.3908 50.1545 27.1852 50.672 27.1852H60.7887C61.3062 27.1852 61.8025 27.3908 62.1685 27.7567C62.5344 28.1226 62.74 28.6189 62.74 29.1365C62.74 29.654 62.5344 30.1503 62.1685 30.5162C61.8025 30.8822 61.3062 31.0877 60.7887 31.0877Z" fill="#6444F4"/>
<path id="Vector_10" d="M70.9054 22.2667H50.672C50.1545 22.2667 49.6582 22.0611 49.2922 21.6952C48.9263 21.3292 48.7207 20.8329 48.7207 20.3154C48.7207 19.7979 48.9263 19.3016 49.2922 18.9357C49.6582 18.5697 50.1545 18.3641 50.672 18.3641H70.9054C71.4229 18.3641 71.9192 18.5697 72.2852 18.9357C72.6511 19.3016 72.8567 19.7979 72.8567 20.3154C72.8567 20.8329 72.6511 21.3292 72.2852 21.6952C71.9192 22.0611 71.4229 22.2667 70.9054 22.2667Z" fill="#6444F4"/>
</g>
</g>
</svg>
