<svg width="56" height="56" viewBox="0 0 56 56" fill="none" xmlns="http://www.w3.org/2000/svg">
  <g clip-path="url(#clip0_2860_4726)">
    <path
      d="M7.81462 36.3311C7.43825 36.3311 7.07729 36.1816 6.81115 35.9155C6.54502 35.6493 6.39551 35.2884 6.39551 34.912V24.789C6.39551 24.4126 6.54502 24.0517 6.81115 23.7856C7.07729 23.5194 7.43825 23.3699 7.81462 23.3699C8.19099 23.3699 8.55195 23.5194 8.81808 23.7856C9.08422 24.0517 9.23373 24.4126 9.23373 24.789V34.912C9.23373 35.2884 9.08422 35.6493 8.81808 35.9155C8.55195 36.1816 8.19099 36.3311 7.81462 36.3311Z"
      fill="#FEFDFF" />
    <path
      d="M14.209 13.7275C12.8515 13.7275 11.5244 13.325 10.3957 12.5708C9.26694 11.8166 8.38719 10.7446 7.86769 9.49042C7.34819 8.23623 7.21226 6.85615 7.4771 5.52471C7.74194 4.19327 8.39565 2.97026 9.35557 2.01035C10.3155 1.05043 11.5385 0.396725 12.8699 0.131885C14.2014 -0.132955 15.5814 0.00297022 16.8356 0.522473C18.0898 1.04197 19.1618 1.92172 19.916 3.05046C20.6702 4.1792 21.0728 5.50624 21.0728 6.86377C21.0707 8.68354 20.347 10.4282 19.0602 11.715C17.7734 13.0017 16.0288 13.7255 14.209 13.7275ZM14.209 2.83822C13.4128 2.83822 12.6345 3.07432 11.9725 3.51665C11.3105 3.95898 10.7945 4.58768 10.4899 5.32326C10.1852 6.05883 10.1055 6.86823 10.2608 7.64911C10.4161 8.42999 10.7995 9.14727 11.3625 9.71026C11.9255 10.2732 12.6428 10.6566 13.4236 10.812C14.2045 10.9673 15.0139 10.8876 15.7495 10.5829C16.4851 10.2782 17.1138 9.76224 17.5561 9.10024C17.9984 8.43824 18.2345 7.65994 18.2345 6.86377C18.2333 5.79651 17.8088 4.77332 17.0541 4.01866C16.2994 3.26399 15.2762 2.83947 14.209 2.83822Z"
      fill="#FEFDFF" />
    <path
      d="M36.5865 24.3444C36.3125 24.3445 36.0443 24.2654 35.8143 24.1164C35.5843 23.9675 35.4023 23.7551 35.2903 23.505C35.1784 23.2549 35.1412 22.9777 35.1834 22.707C35.2255 22.4362 35.3452 22.1834 35.5279 21.9792L43.2384 13.3358C43.3626 13.1968 43.513 13.0835 43.681 13.0026C43.849 12.9216 44.0314 12.8745 44.2176 12.864C44.4038 12.8535 44.5902 12.8798 44.7662 12.9414C44.9423 13.0029 45.1045 13.0985 45.2436 13.2228C45.3827 13.347 45.4959 13.4974 45.5769 13.6655C45.6578 13.8335 45.7049 14.0158 45.7154 14.202C45.7259 14.3882 45.6996 14.5746 45.6381 14.7507C45.5765 14.9267 45.4809 15.0889 45.3566 15.228L37.6461 23.8666C37.5132 24.0165 37.3501 24.1366 37.1675 24.2189C36.9849 24.3013 36.7869 24.344 36.5865 24.3444Z"
      fill="#FEFDFF" />
    <path
      d="M51.7427 37.1589H26.281C25.9046 37.1589 25.5436 37.0094 25.2775 36.7433C25.0114 36.4771 24.8619 36.1162 24.8619 35.7398C24.8619 35.3634 25.0114 35.0025 25.2775 34.7364C25.5436 34.4702 25.9046 34.3207 26.281 34.3207H51.7427C52.119 34.3207 52.48 34.1712 52.7461 33.9051C53.0123 33.6389 53.1618 33.278 53.1618 32.9016V4.2895C53.1618 3.91313 53.0123 3.55217 52.7461 3.28604C52.48 3.0199 52.119 2.87039 51.7427 2.87039H23.9035C23.5271 2.87039 23.1662 2.72087 22.9 2.45474C22.6339 2.1886 22.4844 1.82765 22.4844 1.45128C22.4844 1.07491 22.6339 0.713949 22.9 0.447814C23.1662 0.181679 23.5271 0.0321665 23.9035 0.0321665H51.7427C52.8718 0.0321665 53.9547 0.480706 54.7531 1.27911C55.5515 2.07751 56 3.16038 56 4.2895V32.9016C56 34.0307 55.5515 35.1136 54.7531 35.912C53.9547 36.7104 52.8718 37.1589 51.7427 37.1589Z"
      fill="#FEFDFF" />
    <path
      d="M14.2091 56.001H7.81462C7.43825 56.001 7.07729 55.8515 6.81115 55.5853C6.54502 55.3192 6.39551 54.9582 6.39551 54.5819V34.912C6.39551 34.5357 6.54502 34.1747 6.81115 33.9086C7.07729 33.6424 7.43825 33.4929 7.81462 33.4929C8.19099 33.4929 8.55195 33.6424 8.81808 33.9086C9.08422 34.1747 9.23373 34.5357 9.23373 34.912V53.1627H14.2091C14.5855 53.1627 14.9465 53.3123 15.2126 53.5784C15.4787 53.8445 15.6282 54.2055 15.6282 54.5819C15.6282 54.9582 15.4787 55.3192 15.2126 55.5853C14.9465 55.8515 14.5855 56.001 14.2091 56.001Z"
      fill="#FEFDFF" />
    <path
      d="M20.6045 56.001H14.2091C13.8327 56.001 13.4718 55.8515 13.2056 55.5853C12.9395 55.3192 12.79 54.9582 12.79 54.5819V35.7398C12.79 35.3635 12.9395 35.0025 13.2056 34.7364C13.4718 34.4702 13.8327 34.3207 14.2091 34.3207C14.5854 34.3207 14.9464 34.4702 15.2125 34.7364C15.4787 35.0025 15.6282 35.3635 15.6282 35.7398V53.1628H19.1854V26.3321C19.1853 25.7431 19.3599 25.1673 19.6871 24.6776C20.0143 24.1879 20.4794 23.8062 21.0236 23.5809C21.5678 23.3555 22.1665 23.2966 22.7442 23.4117C23.3218 23.5267 23.8523 23.8105 24.2687 24.2271L26.4929 26.4485C26.6577 26.614 26.8536 26.7452 27.0694 26.8346C27.2853 26.9239 27.5167 26.9695 27.7502 26.9688H34.3548C34.5915 26.9688 34.8258 26.9216 35.044 26.83C35.2623 26.7383 35.46 26.604 35.6257 26.4349C35.7913 26.2658 35.9216 26.0653 36.0087 25.8453C36.0959 25.6252 36.1383 25.3899 36.1334 25.1533C36.1135 24.193 35.2876 23.4125 34.2923 23.4125H29.0709C28.6947 23.4122 28.334 23.2624 28.0681 22.9962L25.0132 19.9423C24.459 19.3848 23.7997 18.9429 23.0734 18.6422C22.3472 18.3414 21.5685 18.1878 20.7824 18.1902H19.6812L17.5364 19.9735C16.6021 20.7501 15.4254 21.1752 14.2105 21.1752C12.9956 21.1752 11.8189 20.7501 10.8846 19.9735L8.73793 18.1902H7.81457C6.49522 18.1917 5.23034 18.7164 4.29742 19.6494C3.3645 20.5823 2.83972 21.8472 2.83822 23.1665C2.83822 23.5429 2.68871 23.9038 2.42257 24.17C2.15644 24.4361 1.79548 24.5856 1.41911 24.5856C1.04274 24.5856 0.681782 24.4361 0.415647 24.17C0.149513 23.9038 0 23.5429 0 23.1665C0.00225379 21.0947 0.826296 19.1083 2.29132 17.6433C3.75635 16.1782 5.74271 15.3542 7.81457 15.3519H9.25071C9.58219 15.352 9.90319 15.4682 10.158 15.6802L12.6973 17.7909C13.1222 18.1449 13.6579 18.3388 14.211 18.3388C14.7641 18.3388 15.2997 18.1449 15.7247 17.7909L18.2621 15.6793C18.5169 15.4672 18.8379 15.3511 19.1693 15.351H20.7843C21.9432 15.3478 23.0912 15.5745 24.1618 16.018C25.2325 16.4615 26.2046 17.113 27.0217 17.9347L29.6613 20.5743H34.2971C36.8269 20.5743 38.9252 22.6027 38.9754 25.0965C38.9878 25.7106 38.8777 26.3209 38.6513 26.8919C38.4249 27.4628 38.0869 27.9828 37.657 28.4215C37.2272 28.8602 36.7141 29.2087 36.1479 29.4466C35.5817 29.6845 34.9737 29.807 34.3595 29.807H27.7464C27.14 29.8087 26.5393 29.6901 25.979 29.4581C25.4187 29.226 24.9101 28.8851 24.4825 28.4551L22.2621 26.2318C22.2439 26.2138 22.2212 26.2011 22.1964 26.1949C22.1716 26.1887 22.1456 26.1894 22.1211 26.1968C22.0934 26.2061 22.0694 26.224 22.0524 26.2477C22.0354 26.2715 22.0263 26.3 22.0265 26.3292V54.579C22.0269 54.7659 21.9903 54.9509 21.919 55.1236C21.8477 55.2963 21.743 55.4532 21.6108 55.5853C21.4787 55.7174 21.3218 55.8222 21.1491 55.8935C20.9764 55.9648 20.7914 56.0013 20.6045 56.001Z"
      fill="#FEFDFF" />
    <path
      d="M4.61684 39.5289C3.39276 39.5276 2.21918 39.0408 1.35362 38.1752C0.48807 37.3097 0.00125225 36.1361 0 34.912V23.1656C0 22.7892 0.149513 22.4282 0.415647 22.1621C0.681782 21.896 1.04274 21.7465 1.41911 21.7465C1.79548 21.7465 2.15644 21.896 2.42257 22.1621C2.68871 22.4282 2.83822 22.7892 2.83822 23.1656V34.912C2.83822 35.3837 3.02561 35.8361 3.35916 36.1697C3.69272 36.5032 4.14512 36.6906 4.61684 36.6906C5.08856 36.6906 5.54096 36.5032 5.87451 36.1697C6.20807 35.8361 6.39546 35.3837 6.39546 34.912C6.39546 34.5356 6.54497 34.1747 6.8111 33.9086C7.07724 33.6424 7.43819 33.4929 7.81457 33.4929C8.19094 33.4929 8.55189 33.6424 8.81803 33.9086C9.08416 34.1747 9.23368 34.5356 9.23368 34.912C9.23242 36.1361 8.7456 37.3097 7.88005 38.1752C7.0145 39.0408 5.84091 39.5276 4.61684 39.5289Z"
      fill="#FEFDFF" />
    <path
      d="M44.6576 56.001H1.42204C1.04567 56.001 0.684712 55.8515 0.418577 55.5853C0.152442 55.3192 0.00292969 54.9582 0.00292969 54.5819C0.00292969 54.2055 0.152442 53.8445 0.418577 53.5784C0.684712 53.3123 1.04567 53.1628 1.42204 53.1628H44.6576C45.034 53.1628 45.3949 53.3123 45.6611 53.5784C45.9272 53.8445 46.0767 54.2055 46.0767 54.5819C46.0767 54.9582 45.9272 55.3192 45.6611 55.5853C45.3949 55.8515 45.034 56.001 44.6576 56.001Z"
      fill="#FEFDFF" />
    <path
      d="M36.9376 15.7001H29.58C29.2036 15.7001 28.8427 15.5506 28.5765 15.2844C28.3104 15.0183 28.1609 14.6574 28.1609 14.281C28.1609 13.9046 28.3104 13.5437 28.5765 13.2775C28.8427 13.0114 29.2036 12.8619 29.58 12.8619H36.9376C37.314 12.8619 37.6749 13.0114 37.9411 13.2775C38.2072 13.5437 38.3567 13.9046 38.3567 14.281C38.3567 14.6574 38.2072 15.0183 37.9411 15.2844C37.6749 15.5506 37.314 15.7001 36.9376 15.7001Z"
      fill="#FEFDFF" />
    <path
      d="M44.2952 9.28476H29.58C29.2036 9.28476 28.8427 9.13525 28.5765 8.86912C28.3104 8.60298 28.1609 8.24202 28.1609 7.86565C28.1609 7.48928 28.3104 7.12833 28.5765 6.86219C28.8427 6.59606 29.2036 6.44654 29.58 6.44654H44.2952C44.6716 6.44654 45.0326 6.59606 45.2987 6.86219C45.5648 7.12833 45.7143 7.48928 45.7143 7.86565C45.7143 8.24202 45.5648 8.60298 45.2987 8.86912C45.0326 9.13525 44.6716 9.28476 44.2952 9.28476Z"
      fill="#FEFDFF" />
  </g>
  <defs>
    <clipPath id="clip0_2860_4726">
      <rect width="56" height="56" fill="white" />
    </clipPath>
  </defs>
</svg>