<svg xmlns="http://www.w3.org/2000/svg" width="36" height="36" viewBox="0 0 36 36" fill="none">
  <path d="M23.4778 17.4375L14.4778 1.68751C14.3787 1.51583 14.236 1.37339 14.0641 1.27461C13.8922 1.17583 13.6973 1.12422 13.4991 1.12501H6.74908C6.55275 1.12619 6.36015 1.17874 6.19042 1.27742C6.02069 1.3761 5.87974 1.51748 5.78158 1.68751C5.68284 1.85853 5.63086 2.05253 5.63086 2.25001C5.63086 2.44749 5.68284 2.64149 5.78158 2.81251L14.7816 18.5625C14.8797 18.7325 15.0207 18.8739 15.1904 18.9726C15.3602 19.0713 15.5528 19.1238 15.7491 19.125H22.4991C22.6954 19.1238 22.888 19.0713 23.0577 18.9726C23.2275 18.8739 23.3684 18.7325 23.4666 18.5625C23.567 18.3925 23.621 18.199 23.6229 18.0015C23.6249 17.804 23.5749 17.6095 23.4778 17.4375Z" fill="#98DB7C"/>
  <path d="M17.0203 18.5625L8.02033 2.81251C7.92159 2.64149 7.86961 2.44749 7.86961 2.25001C7.86961 2.05253 7.92159 1.85853 8.02033 1.68751C8.11945 1.51583 8.26217 1.37339 8.43405 1.27461C8.60592 1.17583 8.80084 1.12422 8.99908 1.12501H6.74908C6.55275 1.12619 6.36015 1.17874 6.19042 1.27742C6.02069 1.3761 5.87974 1.51748 5.78158 1.68751C5.68284 1.85853 5.63086 2.05253 5.63086 2.25001C5.63086 2.44749 5.68284 2.64149 5.78158 2.81251L14.7816 18.5625C14.8797 18.7325 15.0207 18.8739 15.1904 18.9726C15.3602 19.0713 15.5528 19.1238 15.7491 19.125H17.9991C17.8008 19.1258 17.6059 19.0742 17.434 18.9754C17.2622 18.8766 17.1194 18.7342 17.0203 18.5625Z" fill="#82D361"/>
  <path d="M30.2181 1.68751C30.1199 1.51748 29.979 1.3761 29.8092 1.27742C29.6395 1.17874 29.4469 1.12619 29.2506 1.12501H22.5006C22.3023 1.12422 22.1074 1.17583 21.9355 1.27461C21.7637 1.37339 21.6209 1.51583 21.5218 1.68751L12.5218 17.4375C12.4231 17.6085 12.3711 17.8025 12.3711 18C12.3711 18.1975 12.4231 18.3915 12.5218 18.5625C12.6209 18.7342 12.7637 18.8766 12.9355 18.9754C13.1074 19.0742 13.3023 19.1258 13.5006 19.125H20.2506C20.4488 19.1258 20.6437 19.0742 20.8156 18.9754C20.9875 18.8766 21.1302 18.7342 21.2293 18.5625L30.2293 2.81251C30.3264 2.6405 30.3764 2.44598 30.3744 2.2485C30.3724 2.05102 30.3185 1.85754 30.2181 1.68751Z" fill="#98DB7C"/>
  <path d="M14.7831 18.5625C14.6843 18.3915 14.6323 18.1975 14.6323 18C14.6323 17.8025 14.6843 17.6085 14.7831 17.4375L23.7831 1.68751C23.8812 1.51748 24.0222 1.3761 24.1919 1.27742C24.3616 1.17874 24.5542 1.12619 24.7506 1.12501H22.5006C22.3023 1.12422 22.1074 1.17583 21.9355 1.27461C21.7637 1.37339 21.6209 1.51583 21.5218 1.68751L12.5218 17.4375C12.4231 17.6085 12.3711 17.8025 12.3711 18C12.3711 18.1975 12.4231 18.3915 12.5218 18.5625C12.6209 18.7342 12.7637 18.8766 12.9355 18.9754C13.1074 19.0742 13.3023 19.1258 13.5006 19.125H15.7506C15.5542 19.1238 15.3616 19.0713 15.1919 18.9726C15.0222 18.8739 14.8812 18.7325 14.7831 18.5625Z" fill="#82D361"/>
  <path d="M18 34.875C24.8345 34.875 30.375 29.3345 30.375 22.5C30.375 15.6655 24.8345 10.125 18 10.125C11.1655 10.125 5.625 15.6655 5.625 22.5C5.625 29.3345 11.1655 34.875 18 34.875Z" fill="#FF9838"/>
  <path d="M7.87422 24.7502C7.87927 22.4423 8.5296 20.1818 9.75174 18.2241C10.9739 16.2664 12.7191 14.6894 14.7903 13.6714C16.8616 12.6533 19.1762 12.2347 21.4728 12.4629C23.7693 12.6911 25.9563 13.557 27.7867 14.9627C26.7229 13.5443 25.3668 12.3711 23.8101 11.5224C22.2534 10.6738 20.5325 10.1695 18.764 10.0438C16.9954 9.91814 15.2205 10.1739 13.5595 10.7939C11.8984 11.4139 10.39 12.3836 9.13627 13.6373C7.88258 14.8909 6.91292 16.3994 6.29294 18.0605C5.67297 19.7215 5.41717 21.4964 5.54285 23.2649C5.66854 25.0335 6.17278 26.7544 7.02143 28.311C7.87008 29.8677 9.04333 31.2239 10.4617 32.2877C8.78408 30.1334 7.87347 27.4807 7.87422 24.7502Z" fill="#FF8709"/>
  <path d="M21.375 20.25C21.375 19.3549 21.0194 18.4964 20.3865 17.8635C19.7536 17.2306 18.8951 16.875 18 16.875C17.1049 16.875 16.2464 17.2306 15.6135 17.8635C14.9806 18.4964 14.625 19.3549 14.625 20.25V20.3062C14.625 20.6046 14.7435 20.8908 14.9545 21.1017C15.1655 21.3127 15.4516 21.4312 15.75 21.4312C16.0484 21.4312 16.3345 21.3127 16.5455 21.1017C16.7565 20.8908 16.875 20.6046 16.875 20.3062C16.875 20.0837 16.941 19.8662 17.0646 19.6812C17.1882 19.4962 17.3639 19.352 17.5695 19.2669C17.775 19.1817 18.0012 19.1595 18.2195 19.2029C18.4377 19.2463 18.6382 19.3534 18.7955 19.5108C18.9528 19.6681 19.06 19.8685 19.1034 20.0868C19.1468 20.305 19.1245 20.5312 19.0394 20.7368C18.9542 20.9423 18.81 21.118 18.625 21.2417C18.44 21.3653 18.2225 21.4312 18 21.4312H17.5725C17.2741 21.4312 16.988 21.5498 16.777 21.7608C16.566 21.9717 16.4475 22.2579 16.4475 22.5562C16.4475 22.8546 16.566 23.1408 16.777 23.3517C16.988 23.5627 17.2741 23.6812 17.5725 23.6812H18C18.2225 23.6812 18.44 23.7472 18.625 23.8708C18.81 23.9945 18.9542 24.1702 19.0394 24.3757C19.1245 24.5813 19.1468 24.8075 19.1034 25.0257C19.06 25.244 18.9528 25.4444 18.7955 25.6017C18.6382 25.7591 18.4377 25.8662 18.2195 25.9096C18.0012 25.953 17.775 25.9308 17.5695 25.8456C17.3639 25.7605 17.1882 25.6163 17.0646 25.4313C16.941 25.2463 16.875 25.0288 16.875 24.8062V24.75C16.875 24.4516 16.7565 24.1655 16.5455 23.9545C16.3345 23.7435 16.0484 23.625 15.75 23.625C15.4516 23.625 15.1655 23.7435 14.9545 23.9545C14.7435 24.1655 14.625 24.4516 14.625 24.75C14.625 25.6451 14.9806 26.5036 15.6135 27.1365C16.2464 27.7694 17.1049 28.125 18 28.125C18.8951 28.125 19.7536 27.7694 20.3865 27.1365C21.0194 26.5036 21.375 25.6451 21.375 24.75C21.37 23.9174 21.0575 23.1161 20.4975 22.5C21.0575 21.8839 21.37 21.0826 21.375 20.25Z" fill="#FFF5F5"/>
</svg>