<svg width="24" height="24" viewBox="0 0 24 24" fill="none" xmlns="http://www.w3.org/2000/svg">
<path fill-rule="evenodd" clip-rule="evenodd" d="M12.873 3.71575C12.9844 3.22013 13.47 2.91012 13.9576 3.02331C15.9583 3.48771 17.7445 4.62871 19.0239 6.25951C20.3033 7.8903 21 9.91425 21 12C21 14.0857 20.3033 16.1097 19.0239 17.7405C17.7445 19.3713 15.9583 20.5123 13.9576 20.9767C13.47 21.0899 12.9844 20.7799 12.873 20.2842C12.7617 19.7886 13.0667 19.2951 13.5543 19.1819C15.155 18.8103 16.584 17.8975 17.6076 16.5927C18.6312 15.288 19.1886 13.6687 19.1886 12C19.1886 10.3313 18.6312 8.71199 17.6076 7.40726C16.584 6.10253 15.155 5.18966 13.5543 4.81811C13.0667 4.70492 12.7617 4.21137 12.873 3.71575ZM11.0166 3.71673C11.1275 4.21247 10.8219 4.70568 10.3342 4.81833C9.44299 5.02416 8.5985 5.40045 7.84574 5.92714C7.43373 6.2154 6.86981 6.10962 6.58619 5.69087C6.30256 5.27212 6.40664 4.69896 6.81865 4.4107C7.76069 3.75158 8.81752 3.28067 9.93277 3.02309C10.4205 2.91043 10.9058 3.22099 11.0166 3.71673ZM5.31295 7.07085C5.75047 7.31724 5.90862 7.87747 5.66619 8.32215L5.51846 8.59313C5.1733 9.26542 4.92713 9.99829 4.79892 10.772C4.71585 11.2733 4.24865 11.6113 3.75541 11.5268C3.26216 11.4424 2.92965 10.9676 3.01272 10.4662C3.17373 9.49458 3.48377 8.57375 3.9186 7.72976C3.9219 7.72334 3.92528 7.71696 3.92874 7.71063L4.0818 7.42987C4.32423 6.98519 4.87543 6.82445 5.31295 7.07085ZM15.3021 9.50796C15.6558 9.86744 15.6558 10.4503 15.3021 10.8098L11.6793 14.4918C11.3257 14.8513 10.7522 14.8513 10.3985 14.4918L8.58717 12.6508C8.23348 12.2913 8.23348 11.7085 8.58716 11.349C8.94085 10.9895 9.5143 10.9895 9.86799 11.349L11.0389 12.5391L14.0212 9.50796C14.3749 9.14848 14.9484 9.14847 15.3021 9.50796ZM3.86037 13.4177C4.34089 13.2765 4.84304 13.558 4.98195 14.0464C5.19694 14.8022 5.5303 15.518 5.96921 16.1661C6.25281 16.5849 6.14869 17.158 5.73667 17.4462C5.32464 17.7345 4.76073 17.6287 4.47713 17.2099C3.92795 16.399 3.51085 15.5034 3.24185 14.5577C3.10293 14.0693 3.37986 13.5589 3.86037 13.4177ZM7.10165 18.7284C7.35102 18.2877 7.90467 18.1359 8.33827 18.3893C8.96061 18.7531 9.63303 19.0201 10.3332 19.1815C10.821 19.294 11.1267 19.7871 11.0161 20.2829C10.9054 20.7787 10.4203 21.0894 9.93249 20.977C9.05604 20.7749 8.21429 20.4406 7.43522 19.9852C7.00162 19.7318 6.85228 19.1691 7.10165 18.7284Z" fill="#15343A"/>
</svg>
