<svg width="21" height="20" viewBox="0 0 21 20" fill="none" xmlns="http://www.w3.org/2000/svg">
<path d="M12.7837 7.5L12.4952 15M8.50481 15L8.21635 7.5M16.523 4.82547C16.808 4.86851 17.092 4.91456 17.375 4.96358M16.523 4.82547L15.6332 16.3938C15.558 17.3707 14.7434 18.125 13.7637 18.125H7.23631C6.25655 18.125 5.44198 17.3707 5.36683 16.3938L4.47696 4.82547M16.523 4.82547C15.5677 4.6812 14.6013 4.57071 13.625 4.49527M3.625 4.96358C3.90798 4.91456 4.19198 4.86851 4.47696 4.82547M4.47696 4.82547C5.43231 4.6812 6.39874 4.57071 7.375 4.49527M13.625 4.49527V3.73182C13.625 2.74902 12.8661 1.92853 11.8838 1.8971C11.4244 1.8824 10.963 1.875 10.5 1.875C10.037 1.875 9.57565 1.8824 9.11618 1.8971C8.13388 1.92853 7.375 2.74902 7.375 3.73182V4.49527M13.625 4.49527C12.5938 4.41558 11.5516 4.375 10.5 4.375C9.44836 4.375 8.4062 4.41558 7.375 4.49527" stroke="#BA3E00" stroke-width="1.5" stroke-linecap="round" stroke-linejoin="round"/>
</svg>
