<svg width="82" height="82" viewBox="0 0 82 82" fill="none" xmlns="http://www.w3.org/2000/svg">
<path fill-rule="evenodd" clip-rule="evenodd" d="M41 0.375C42.7259 0.375 44.125 1.77411 44.125 3.5V52.2056L57.5403 38.7903C58.7607 37.5699 60.7393 37.5699 61.9597 38.7903C63.1801 40.0107 63.1801 41.9893 61.9597 43.2097L43.2097 61.9597C41.9893 63.1801 40.0107 63.1801 38.7903 61.9597L20.0403 43.2097C18.8199 41.9893 18.8199 40.0107 20.0403 38.7903C21.2607 37.5699 23.2393 37.5699 24.4597 38.7903L37.875 52.2056V3.5C37.875 1.77411 39.2741 0.375 41 0.375ZM3.5 56.625C5.22589 56.625 6.625 58.0241 6.625 59.75V69.125C6.625 72.5768 9.42322 75.375 12.875 75.375H69.125C72.5768 75.375 75.375 72.5768 75.375 69.125V59.75C75.375 58.0241 76.7741 56.625 78.5 56.625C80.2259 56.625 81.625 58.0241 81.625 59.75V69.125C81.625 76.0286 76.0286 81.625 69.125 81.625H12.875C5.97144 81.625 0.375 76.0286 0.375 69.125V59.75C0.375 58.0241 1.77411 56.625 3.5 56.625Z" fill="#6444F4"/>
</svg>
