<svg xmlns="http://www.w3.org/2000/svg" width="72" height="72" viewBox="0 0 72 72" fill="none">
  <path fill-rule="evenodd" clip-rule="evenodd" d="M34.409 7.40901C35.2877 6.53033 36.7123 6.53033 37.591 7.40901L51.091 20.909C51.9697 21.7877 51.9697 23.2123 51.091 24.091C50.2123 24.9697 48.7877 24.9697 47.909 24.091L38.25 14.432L38.25 49.5C38.25 50.7426 37.2426 51.75 36 51.75C34.7574 51.75 33.75 50.7426 33.75 49.5L33.75 14.432L24.091 24.091C23.2123 24.9697 21.7877 24.9697 20.909 24.091C20.0303 23.2123 20.0303 21.7877 20.909 20.909L34.409 7.40901ZM9 47.25C10.2426 47.25 11.25 48.2574 11.25 49.5V56.25C11.25 58.7353 13.2647 60.75 15.75 60.75H56.25C58.7353 60.75 60.75 58.7353 60.75 56.25V49.5C60.75 48.2574 61.7574 47.25 63 47.25C64.2426 47.25 65.25 48.2574 65.25 49.5V56.25C65.25 61.2206 61.2206 65.25 56.25 65.25H15.75C10.7794 65.25 6.75 61.2206 6.75 56.25V49.5C6.75 48.2574 7.75736 47.25 9 47.25Z" fill="#15343A"/>
</svg>