<svg width="20" height="20" viewBox="0 0 20 20" fill="none" xmlns="http://www.w3.org/2000/svg">
<path d="M5.83333 6.2487C5.83333 3.9512 7.7025 2.08203 10 2.08203C12.2975 2.08203 14.1667 3.9512 14.1667 6.2487C14.1667 8.5462 12.2975 10.4154 10 10.4154C7.7025 10.4154 5.83333 8.5462 5.83333 6.2487ZM13.4308 11.3079C12.965 11.1896 12.4584 11.2563 12.0392 11.4896C10.7742 12.1929 9.22582 12.1929 7.96082 11.4896C7.54248 11.2571 7.035 11.1912 6.56916 11.3079C4.90916 11.7271 3.75 13.2337 3.75 14.9712V15.8137C3.75 16.3454 3.89165 16.8653 4.16082 17.3186C4.37998 17.687 4.79085 17.9162 5.23168 17.9162H14.7675C15.2083 17.9162 15.6192 17.6878 15.8383 17.3178C16.1075 16.8653 16.2492 16.3454 16.2492 15.8137V14.9712C16.25 13.2337 15.0908 11.7271 13.4308 11.3079Z" fill="#15343A"/>
</svg>
