<svg width="70" height="88" viewBox="0 0 70 88" fill="none" xmlns="http://www.w3.org/2000/svg">
<path fill-rule="evenodd" clip-rule="evenodd" d="M22.5 0.25H8.4375C4.12278 0.25 0.625 3.74777 0.625 8.0625V79.9375C0.625 84.2522 4.12277 87.75 8.4375 87.75H61.5625C65.8772 87.75 69.375 84.2522 69.375 79.9375V47.125C69.375 38.4955 62.3794 31.5 53.75 31.5H45.9375C41.6228 31.5 38.125 28.0022 38.125 23.6875V15.875C38.125 7.24555 31.1294 0.25 22.5 0.25ZM50.0429 45.8164C51.0461 44.412 50.7208 42.4602 49.3164 41.4571C47.912 40.4539 45.9602 40.7792 44.9571 42.1836L31.4762 61.0568L24.7097 54.2903C23.4893 53.0699 21.5107 53.0699 20.2903 54.2903C19.0699 55.5107 19.0699 57.4893 20.2903 58.7097L29.6653 68.0847C30.3148 68.7343 31.2173 69.0651 32.1328 68.9894C33.0482 68.9136 33.884 68.4389 34.4179 67.6914L50.0429 45.8164Z" fill="#6444F4"/>
<path d="M39.0466 1.56627C42.3665 5.40199 44.375 10.4039 44.375 15.875V23.6875C44.375 24.5504 45.0746 25.25 45.9375 25.25H53.75C59.2211 25.25 64.223 27.2585 68.0587 30.5784C64.3593 16.4162 53.2089 5.26573 39.0466 1.56627Z" fill="#6444F4"/>
</svg>
