<svg width="40" height="40" viewBox="0 0 40 40" fill="none" xmlns="http://www.w3.org/2000/svg">
<path fill-rule="evenodd" clip-rule="evenodd" d="M20 3.75C11.0254 3.75 3.75 11.0254 3.75 20C3.75 28.9746 11.0254 36.25 20 36.25C28.9746 36.25 36.25 28.9746 36.25 20C36.25 11.0254 28.9746 3.75 20 3.75ZM17.1339 15.3661C16.6457 14.878 15.8543 14.878 15.3661 15.3661C14.878 15.8543 14.878 16.6457 15.3661 17.1339L18.2322 20L15.3661 22.8661C14.878 23.3543 14.878 24.1457 15.3661 24.6339C15.8543 25.122 16.6457 25.122 17.1339 24.6339L20 21.7678L22.8661 24.6339C23.3543 25.122 24.1457 25.122 24.6339 24.6339C25.122 24.1457 25.122 23.3543 24.6339 22.8661L21.7678 20L24.6339 17.1339C25.122 16.6457 25.122 15.8543 24.6339 15.3661C24.1457 14.878 23.3543 14.878 22.8661 15.3661L20 18.2322L17.1339 15.3661Z" fill="#EA4335"/>
</svg>
