<svg width="174" height="165" viewBox="0 0 174 165" fill="none" xmlns="http://www.w3.org/2000/svg">
<g clip-path="url(#clip0_13486_41694)">
<path d="M5.385 122.264C8.35905 122.264 10.77 119.853 10.77 116.879C10.77 113.905 8.35905 111.494 5.385 111.494C2.41095 111.494 0 113.905 0 116.879C0 119.853 2.41095 122.264 5.385 122.264Z" fill="#F5F4FE"/>
<path d="M154.968 88.7583C157.942 88.7583 160.353 86.3473 160.353 83.3733C160.353 80.3992 157.942 77.9883 154.968 77.9883C151.994 77.9883 149.583 80.3992 149.583 83.3733C149.583 86.3473 151.994 88.7583 154.968 88.7583Z" fill="#F5F4FE"/>
<path d="M100.52 12.77C103.494 12.77 105.905 10.3591 105.905 7.385C105.905 4.41095 103.494 2 100.52 2C97.5457 2 95.1348 4.41095 95.1348 7.385C95.1348 10.3591 97.5457 12.77 100.52 12.77Z" stroke="#F5F4FE" stroke-width="3" stroke-miterlimit="10"/>
<path d="M21.5393 7.38477C21.276 7.38477 21.5273 13.2365 17.9493 16.9581C14.8858 20.1412 8.37598 21.7448 8.37598 21.7448C8.37598 21.7448 15.0294 21.5413 17.9493 25.3348C20.6418 28.8171 20.3426 36.1048 20.3426 36.1048C20.3426 36.1048 20.9529 27.2135 25.1293 24.1381C27.8577 22.1277 32.3093 21.7448 32.3093 21.7448C32.3093 21.7448 27.0081 20.596 23.9326 16.9581C20.4743 12.8535 21.7906 7.38477 21.5393 7.38477Z" fill="#F5F4FE"/>
<path d="M162.746 122.266C162.483 122.266 162.734 128.117 159.156 131.839C156.093 135.022 149.583 136.626 149.583 136.626C149.583 136.626 156.236 136.422 159.156 140.216C161.849 143.698 161.55 150.986 161.55 150.986C161.55 150.986 162.16 142.094 166.336 139.019C169.065 137.009 173.516 136.626 173.516 136.626C173.516 136.626 168.215 135.477 165.14 131.839C161.681 127.734 162.998 122.266 162.746 122.266Z" fill="#F5F4FE"/>
<path d="M122.491 25.8379L50.5352 24.1387V136.781H139.902V48.2635L122.491 25.8379Z" stroke="#F5F4FE" stroke-width="6" stroke-miterlimit="10"/>
<path d="M120.684 44.0517L122.239 28.2916C122.323 27.4061 123.448 27.083 123.998 27.789L138.347 46.2656C138.897 46.9716 138.287 47.9888 137.401 47.8332L121.486 45.1168C120.983 45.033 120.624 44.5663 120.672 44.0517H120.684Z" stroke="#F5F4FE" stroke-width="6" stroke-miterlimit="10"/>
<path d="M63.7939 48.7539H105.45" stroke="#F5F4FE" stroke-width="3" stroke-miterlimit="10" stroke-linecap="round"/>
<path d="M63.7939 63.9043L102.315 64.2274" stroke="#F5F4FE" stroke-width="3" stroke-miterlimit="10" stroke-linecap="round"/>
<path d="M64.0215 83.373H107.101" stroke="#F5F4FE" stroke-width="3" stroke-miterlimit="10" stroke-linecap="round"/>
<path d="M64.0215 101.324L108.298 102.521" stroke="#F5F4FE" stroke-width="3" stroke-miterlimit="10" stroke-linecap="round"/>
<path d="M61.6279 120.471L105.45 120.698" stroke="#F5F4FE" stroke-width="3" stroke-miterlimit="10" stroke-linecap="round"/>
<path d="M44.8634 52.5352L22.1387 56.3286L41.07 162.353L130.245 154.683V143.554" stroke="#F5F4FE" stroke-width="6" stroke-miterlimit="10"/>
<path d="M111.039 57.9215L116.136 66.0827L124.286 56.9043" stroke="#F5F4FE" stroke-width="3" stroke-linecap="round" stroke-linejoin="round"/>
<path d="M112.235 79.4605L117.333 87.6218L125.482 78.4434" stroke="#F5F4FE" stroke-width="3" stroke-linecap="round" stroke-linejoin="round"/>
<path d="M114.282 98.9297L123.855 108.503" stroke="#F5F4FE" stroke-width="3" stroke-linecap="round" stroke-linejoin="round"/>
<path d="M125.052 98.9297L114.282 108.503" stroke="#F5F4FE" stroke-width="3" stroke-linecap="round" stroke-linejoin="round"/>
</g>
<defs>
<clipPath id="clip0_13486_41694">
<rect width="174" height="165" fill="white"/>
</clipPath>
</defs>
</svg>
