<svg width="40" height="157" viewBox="0 0 40 157" fill="none" xmlns="http://www.w3.org/2000/svg">
<circle cx="20" cy="20.7522" r="20" fill="#6444F4"/>
<path d="M29 20.0022V28.2522C29 29.0806 28.3284 29.7522 27.5 29.7522H13.25C12.4216 29.7522 11.75 29.0806 11.75 28.2522V20.0022M20 13.6272C20 12.1774 18.8247 11.0022 17.375 11.0022C15.9253 11.0022 14.75 12.1774 14.75 13.6272C14.75 15.0769 15.9253 16.2522 17.375 16.2522C18.1095 16.2522 20 16.2522 20 16.2522M20 13.6272C20 14.3424 20 16.2522 20 16.2522M20 13.6272C20 12.1774 21.1753 11.0022 22.625 11.0022C24.0747 11.0022 25.25 12.1774 25.25 13.6272C25.25 15.0769 24.0747 16.2522 22.625 16.2522C21.8905 16.2522 20 16.2522 20 16.2522M20 16.2522V29.7522M11.375 20.0022H29.375C29.9963 20.0022 30.5 19.4985 30.5 18.8772V17.3772C30.5 16.7559 29.9963 16.2522 29.375 16.2522H11.375C10.7537 16.2522 10.25 16.7559 10.25 17.3772V18.8772C10.25 19.4985 10.7537 20.0022 11.375 20.0022Z" stroke="#FEFDFF" stroke-width="1.5" stroke-linecap="round" stroke-linejoin="round"/>
<circle cx="20" cy="136.527" r="20" fill="#F0ECFF"/>
<path d="M23.5904 138.897C23.6948 139.34 23.75 139.802 23.75 140.277C23.75 143.591 21.0637 146.277 17.75 146.277V141.477M23.5904 138.897C27.3244 136.168 29.75 131.756 29.75 126.777C24.7715 126.777 20.3595 129.203 17.6312 132.937M23.5904 138.897C21.8819 140.145 19.8994 141.041 17.75 141.477M17.6312 132.937C17.1878 132.832 16.7253 132.777 16.25 132.777C12.9363 132.777 10.25 135.463 10.25 138.777H15.0507M17.6312 132.937C16.3829 134.645 15.487 136.628 15.0507 138.777M17.75 141.477C17.6466 141.498 17.5428 141.518 17.4386 141.537C16.5317 140.818 15.7099 139.996 14.9908 139.089C15.0097 138.985 15.0297 138.881 15.0507 138.777M12.8119 141.168C11.7121 141.988 11 143.3 11 144.777C11 145.014 11.0183 145.247 11.0536 145.474C11.2805 145.509 11.5131 145.527 11.75 145.527C13.2276 145.527 14.5388 144.815 15.3592 143.715M24.5 133.527C24.5 134.356 23.8284 135.027 23 135.027C22.1716 135.027 21.5 134.356 21.5 133.527C21.5 132.699 22.1716 132.027 23 132.027C23.8284 132.027 24.5 132.699 24.5 133.527Z" stroke="#15343A" stroke-width="1.5" stroke-linecap="round" stroke-linejoin="round"/>
<rect x="19" y="40.7522" width="2" height="75.7749" fill="#F0ECFF"/>
<rect x="19" y="40.7522" width="2" height="14" fill="#6444F4"/>
</svg>
