<svg width="20" height="20" viewBox="0 0 20 20" fill="none" xmlns="http://www.w3.org/2000/svg">
    <path d="M4.58325 0.833252C3.8929 0.833252 3.33325 1.3929 3.33325 2.08325V17.9166C3.33325 18.6069 3.8929 19.1666 4.58325 19.1666H15.4166C16.1069 19.1666 16.6666 18.6069 16.6666 17.9166V5.83325L11.6666 0.833252H4.58325Z" fill="#6B3FB9"/>
    <path d="M4.58325 19.1666C3.8929 19.1666 3.33325 18.6069 3.33325 17.9166V17.7083C3.33325 18.3986 3.8929 18.9583 4.58325 18.9583H15.4166C16.1069 18.9583 16.6666 18.3986 16.6666 17.7083V17.9166C16.6666 18.6069 16.1069 19.1666 15.4166 19.1666H4.58325Z" fill="#6439B5"/>
    <path d="M4.58325 0.833252C3.8929 0.833252 3.33325 1.3929 3.33325 2.08325V2.29159C3.33325 1.60123 3.8929 1.04159 4.58325 1.04159H11.8749L11.6666 0.833252H4.58325Z" fill="#815BC3"/>
    <path d="M16.6666 10.1042V5.83341L15.9374 5.10425H12.421C12.1426 5.10425 12.0032 5.44085 12.2001 5.63772L16.6666 10.1042Z" fill="url(#paint0_linear_15403_13984)"/>
    <path d="M11.6667 0.833252L16.6667 5.83325H12.9167C12.2264 5.83325 11.6667 5.27361 11.6667 4.58325V0.833252Z" fill="#B7A2DD"/>
    <path d="M7.29175 11.0417C7.63693 11.0417 7.91675 10.7619 7.91675 10.4167C7.91675 10.0716 7.63693 9.79175 7.29175 9.79175C6.94657 9.79175 6.66675 10.0716 6.66675 10.4167C6.66675 10.7619 6.94657 11.0417 7.29175 11.0417Z" fill="white"/>
    <path d="M13.5417 10.0001H8.95841V10.8334H13.5417V10.0001Z" fill="white"/>
    <path d="M13.5417 12.0834H8.95841V12.9167H13.5417V12.0834Z" fill="white"/>
    <path d="M8.95841 14.1667H13.5417V15.0001H8.95841V14.1667Z" fill="white"/>
    <path d="M7.91675 12.5001C7.91675 12.8453 7.63693 13.1251 7.29175 13.1251C6.94657 13.1251 6.66675 12.8453 6.66675 12.5001C6.66675 12.1549 6.94657 11.8751 7.29175 11.8751C7.63693 11.8751 7.91675 12.1549 7.91675 12.5001Z" fill="white"/>
    <path d="M7.29175 15.2084C7.63693 15.2084 7.91675 14.9286 7.91675 14.5834C7.91675 14.2382 7.63693 13.9584 7.29175 13.9584C6.94657 13.9584 6.66675 14.2382 6.66675 14.5834C6.66675 14.9286 6.94657 15.2084 7.29175 15.2084Z" fill="white"/>
    <defs>
        <linearGradient id="paint0_linear_15403_13984" x1="14.3873" y1="10.1042" x2="14.3873" y2="5.00008" gradientUnits="userSpaceOnUse">
            <stop stop-color="#6B3FB9"/>
            <stop offset="1" stop-color="#5B3DA3"/>
        </linearGradient>
    </defs>
</svg>
