<svg width="48" height="48" viewBox="0 0 48 48" fill="none" xmlns="http://www.w3.org/2000/svg">
<path fill-rule="evenodd" clip-rule="evenodd" d="M26.3101 2.0372C26.6049 0.746242 27.8904 -0.061274 29.1814 0.233566C34.4779 1.44321 39.2067 4.41522 42.5937 8.66301C45.9807 12.9108 47.8252 18.1827 47.8252 23.6155C47.8252 29.0483 45.9807 34.3202 42.5937 38.568C39.2067 42.8157 34.4779 45.7878 29.1814 46.9974C27.8904 47.2922 26.6049 46.4847 26.3101 45.1938C26.0152 43.9028 26.8227 42.6173 28.1137 42.3224C32.3512 41.3546 36.1345 38.9768 38.8444 35.5784C41.5542 32.1799 43.0299 27.9621 43.0299 23.6155C43.0299 19.2689 41.5542 15.0511 38.8444 11.6526C36.1345 8.25413 32.3512 5.87634 28.1137 4.90855C26.8227 4.61371 26.0152 3.32816 26.3101 2.0372ZM21.3954 2.03974C21.6889 3.33102 20.88 4.61569 19.5887 4.90913C17.2294 5.44526 14.9937 6.4254 13.0009 7.79727C11.9101 8.54813 10.4172 8.27261 9.66637 7.18186C8.91551 6.09112 9.19104 4.59821 10.2818 3.84735C12.7757 2.13053 15.5736 0.903927 18.526 0.232988C19.8173 -0.0604507 21.102 0.748459 21.3954 2.03974ZM6.29562 10.7763C7.4539 11.4181 7.87259 12.8774 7.23079 14.0357L6.8397 14.7415C5.92593 16.4926 5.27422 18.4016 4.9348 20.4169C4.71488 21.7227 3.47802 22.603 2.17221 22.383C0.866399 22.1631 -0.0138848 20.9263 0.206042 19.6205C0.632304 17.0895 1.45309 14.691 2.60424 12.4926C2.613 12.4759 2.62195 12.4593 2.63109 12.4428L3.0363 11.7115C3.6781 10.5532 5.13735 10.1345 6.29562 10.7763ZM32.7406 17.1244C33.677 18.0607 33.677 19.5788 32.7406 20.5152L23.1499 30.1059C22.2136 31.0423 20.6954 31.0423 19.7591 30.1059L14.9637 25.3106C14.0274 24.3742 14.0274 22.8561 14.9637 21.9197C15.9001 20.9834 17.4182 20.9834 18.3546 21.9197L21.4545 25.0197L29.3498 17.1244C30.2862 16.188 31.8043 16.188 32.7406 17.1244ZM2.4501 27.3083C3.72221 26.9406 5.05159 27.6737 5.41935 28.9458C5.98851 30.9146 6.87103 32.7789 8.03299 34.467C8.78378 35.5578 8.50816 37.0507 7.41737 37.8015C6.32658 38.5523 4.83368 38.2767 4.08289 37.1859C2.62901 35.0736 1.52479 32.741 0.81263 30.2776C0.444869 29.0055 1.17799 27.6761 2.4501 27.3083ZM11.031 41.1411C11.6912 39.9932 13.1569 39.5978 14.3048 40.258C15.9524 41.2055 17.7325 41.9011 19.5861 42.3215C20.8775 42.6144 21.6869 43.8988 21.394 45.1902C21.1011 46.4816 19.8167 47.291 18.5253 46.9981C16.205 46.4718 13.9766 45.6011 11.9141 44.4149C10.7662 43.7547 10.3708 42.289 11.031 41.1411Z" fill="currentColor"/>
</svg>
