<svg width="32" height="32" viewBox="0 0 32 32" fill="none" xmlns="http://www.w3.org/2000/svg">
<rect width="32" height="32" rx="6" fill="#29138E"/>
<g clip-path="url(#clip0_14459_49219)">
<path fill-rule="evenodd" clip-rule="evenodd" d="M28 16C28 22.6274 22.6274 28 16 28C9.37258 28 4 22.6274 4 16C4 9.37258 9.37258 4 16 4C22.6274 4 28 9.37258 28 16ZM16.43 12.8589C15.2628 13.3444 12.9301 14.3492 9.43189 15.8733C8.86383 16.0992 8.56626 16.3202 8.53917 16.5363C8.49339 16.9015 8.95071 17.0453 9.57347 17.2411C9.65818 17.2678 9.74595 17.2954 9.83594 17.3246C10.4486 17.5238 11.2728 17.7568 11.7013 17.766C12.0899 17.7744 12.5237 17.6142 13.0026 17.2853C16.2712 15.079 17.9584 13.9638 18.0643 13.9398C18.139 13.9228 18.2426 13.9015 18.3128 13.9638C18.3829 14.0262 18.376 14.1443 18.3686 14.176C18.3233 14.3691 16.5281 16.0381 15.5991 16.9018C15.3095 17.171 15.1041 17.362 15.0621 17.4056C14.968 17.5033 14.8721 17.5958 14.78 17.6846C14.2108 18.2333 13.7839 18.6448 14.8036 19.3168C15.2936 19.6397 15.6858 19.9067 16.077 20.1731C16.5042 20.4641 16.9303 20.7543 17.4816 21.1157C17.6221 21.2077 17.7562 21.3034 17.8869 21.3965C18.3841 21.751 18.8307 22.0694 19.3826 22.0186C19.7032 21.9891 20.0345 21.6876 20.2027 20.7884C20.6002 18.6631 21.3816 14.0585 21.5622 12.161C21.578 11.9947 21.5581 11.782 21.5422 11.6886C21.5262 11.5952 21.4928 11.4621 21.3714 11.3636C21.2276 11.2469 21.0056 11.2223 20.9064 11.2241C20.455 11.232 19.7626 11.4728 16.43 12.8589Z" fill="white"/>
</g>
<defs>
<clipPath id="clip0_14459_49219">
<rect width="24" height="24" fill="white" transform="translate(4 4)"/>
</clipPath>
</defs>
</svg>
