<svg width="48" height="46" viewBox="0 0 48 46" fill="none" xmlns="http://www.w3.org/2000/svg">
  <path fill-rule="evenodd" clip-rule="evenodd"
    d="M5.40402 13.1827C5.64209 12.9136 5.83207 12.488 5.83207 11.958C5.83207 11.4281 5.64209 11.0025 5.40402 10.7333C5.17014 10.469 4.92725 10.3846 4.73067 10.3846C4.53409 10.3846 4.29121 10.469 4.05732 10.7333C3.81926 11.0025 3.62928 11.4281 3.62928 11.958C3.62928 12.488 3.81926 12.9136 4.05732 13.1827C4.29121 13.4471 4.53409 13.5315 4.73067 13.5315C4.92725 13.5315 5.17014 13.4471 5.40402 13.1827ZM8.34955 11.958C8.34955 13.6493 7.44166 15.1009 6.14676 15.7239V23.2867H6.7031C7.70772 18.7847 11.7266 15.4196 16.5314 15.4196H22.281C24.2411 15.4196 20.1088 17.2829 23.4545 18.2517C23.7691 18.7238 29.3455 22.6884 29.9278 22.8147C32.7096 23.4181 37.2703 20.8692 39.5034 20.6119C41.7682 20.3509 41.7062 22.028 41.939 23.2867H45.4824C46.8728 23.2867 47.9999 24.4138 47.9999 25.8042V35.8741C47.9999 37.2645 46.8728 38.3916 45.4824 38.3916H41.7062L41.7036 38.3916C40.5858 42.7348 36.6431 45.944 31.951 45.944H16.5314C11.8392 45.944 7.89656 42.7348 6.77869 38.3916L6.77613 38.3916H2.9999C1.60954 38.3916 0.482422 37.2645 0.482422 35.8741V25.8042C0.482422 24.4138 1.60954 23.2867 2.9999 23.2867H3.62928L3.62927 15.856C2.16919 15.3293 1.11179 13.7832 1.11179 11.958C1.11179 9.69869 2.73202 7.86713 4.73067 7.86713C6.72933 7.86713 8.34955 9.69869 8.34955 11.958ZM23.4545 18.2517H16.5314C12.5341 18.2517 9.29361 21.4922 9.29361 25.4895V25.8042V35.8741C9.29361 39.8714 12.5341 43.1119 16.5314 43.1119H31.951C35.9483 43.1119 39.1887 39.8714 39.1887 35.8741V25.8042V25.4895C39.1887 24.4502 39.3461 22.1853 37.93 21.3986C36.1386 20.8636 33.2024 22.1159 30.6922 22.1853C28.7492 22.2391 27.0303 21.8391 25.6572 21.0839C24.0947 20.7906 24.9191 18.6759 23.4545 18.2517ZM42.0209 35.5594H45.1677V26.1189H42.0209V35.5594ZM3.31459 26.1189H6.46144V35.5594H3.31459V26.1189ZM16.1654 29.4228C16.0921 29.5095 16.0261 29.6025 15.9679 29.7006C15.8716 29.863 15.7614 30.0257 15.6377 30.1754C15.3295 30.5481 14.9375 30.8392 14.4671 30.8392C13.8081 30.8392 13.2598 30.298 13.4094 29.6561C13.5081 29.2326 13.6593 28.8263 13.8586 28.4491C13.9315 28.311 14.0109 28.1769 14.0965 28.0473C14.1747 27.9288 14.2582 27.814 14.3466 27.7034C14.4018 27.6344 14.459 27.567 14.5181 27.5014C15.3148 26.6162 16.3953 26.1189 17.522 26.1189C18.6487 26.1189 19.7293 26.6162 20.526 27.5014C20.5851 27.5671 20.6422 27.6344 20.6974 27.7034C20.7859 27.814 20.8693 27.9288 20.9475 28.0473C21.0331 28.1769 21.1125 28.311 21.1854 28.4491C21.3848 28.8263 21.536 29.2326 21.6347 29.6561C21.7843 30.298 21.236 30.8392 20.5769 30.8392C20.1066 30.8392 19.7146 30.5481 19.4064 30.1754C19.2827 30.0258 19.1725 29.863 19.0761 29.7006C19.0179 29.6025 18.9519 29.5095 18.8786 29.4228C18.8654 29.4072 18.852 29.3918 18.8383 29.3766C18.7783 29.3099 18.7146 29.2483 18.6477 29.1919C18.3258 28.9202 17.9308 28.7708 17.522 28.7708C17.1132 28.7708 16.7183 28.9202 16.3963 29.1919C16.3295 29.2483 16.2658 29.3099 16.2057 29.3766C16.1921 29.3918 16.1786 29.4072 16.1654 29.4228ZM26.6914 35.678C26.859 35.5411 27.0309 35.4078 27.2079 35.2925C27.5327 35.0809 27.875 34.9301 28.2411 34.9301C29.071 34.9301 29.7698 35.6349 29.4015 36.3786C29.1485 36.8896 28.7621 37.3611 28.259 37.7621C28.243 37.7748 28.2269 37.7875 28.2107 37.8001C28.201 37.8077 28.1911 37.8152 28.1813 37.8228C27.9973 37.9634 27.8013 38.0928 27.5952 38.2103C26.6771 38.7335 25.5572 39.021 24.3985 39.021C23.2399 39.021 22.12 38.7335 21.2018 38.2103C20.9957 38.0928 20.7997 37.9634 20.6157 37.8228C20.5895 37.8027 20.5636 37.7825 20.5381 37.7621C20.0349 37.3611 19.6485 36.8896 19.3955 36.3786C19.0272 35.6349 19.726 34.9301 20.5559 34.9301C20.922 34.9301 21.2643 35.0809 21.5891 35.2925C21.7662 35.4078 21.938 35.5411 22.1056 35.678C22.1365 35.7032 22.1672 35.7285 22.1978 35.7539C22.2422 35.7906 22.2863 35.8274 22.3301 35.864C22.4695 35.9804 22.6063 36.0946 22.741 36.1976C23.1806 36.5338 23.7768 36.7226 24.3985 36.7226C25.0202 36.7226 25.6164 36.5338 26.056 36.1976C26.1907 36.0946 26.3274 35.9805 26.4667 35.8641L26.5394 35.8035L26.5629 35.784L26.5992 35.7539C26.6298 35.7285 26.6605 35.7032 26.6914 35.678ZM29.4994 29.7006C29.5576 29.6025 29.6236 29.5095 29.6969 29.4228C29.7101 29.4072 29.7235 29.3918 29.7372 29.3766C29.7972 29.3099 29.8609 29.2483 29.9278 29.1919C30.2497 28.9202 30.6447 28.7708 31.0535 28.7708C31.4623 28.7708 31.8572 28.9202 32.1792 29.1919C32.246 29.2483 32.3097 29.3099 32.3698 29.3766C32.3834 29.3918 32.3969 29.4072 32.4101 29.4228C32.4834 29.5095 32.5494 29.6025 32.6076 29.7006C32.7039 29.863 32.8141 30.0258 32.9379 30.1754C33.246 30.5481 33.6381 30.8392 34.1084 30.8392C34.7674 30.8392 35.3157 30.298 35.1662 29.6561C35.0675 29.2326 34.9162 28.8263 34.7169 28.4491C34.644 28.311 34.5646 28.1769 34.479 28.0473C34.4008 27.9288 34.3173 27.814 34.2289 27.7034C34.1737 27.6344 34.1165 27.5671 34.0575 27.5014C33.2608 26.6162 32.1802 26.1189 31.0535 26.1189C29.9268 26.1189 28.8462 26.6162 28.0495 27.5014C27.9904 27.567 27.9333 27.6344 27.8781 27.7034C27.7896 27.814 27.7062 27.9288 27.628 28.0473C27.5424 28.1769 27.463 28.311 27.3901 28.4491C27.1907 28.8263 27.0395 29.2326 26.9408 29.6561C26.7912 30.298 27.3395 30.8392 27.9986 30.8392C28.4689 30.8392 28.8609 30.5481 29.1691 30.1754C29.2928 30.0257 29.403 29.863 29.4994 29.7006Z"
    fill="#6542F7" />
  <path fill-rule="evenodd" clip-rule="evenodd"
    d="M25.6562 2.7273C24.9329 2.7273 24.2392 3.01464 23.7277 3.5261C23.2163 4.03757 22.9289 4.73126 22.9289 5.45458V16.3637C22.9289 17.087 23.2163 17.7807 23.7277 18.2921C24.2392 18.8036 24.9329 19.0909 25.6562 19.0909H28.3835C29.1366 19.0909 29.7471 19.7015 29.7471 20.4546V22.137L34.5001 19.2853C34.712 19.1581 34.9545 19.0909 35.2017 19.0909H42.0198C42.7432 19.0909 43.4369 18.8036 43.9483 18.2921C44.4598 17.7807 44.7471 17.087 44.7471 16.3637V5.45458C44.7471 4.73126 44.4598 4.03757 43.9483 3.5261C43.4369 3.01464 42.7432 2.7273 42.0198 2.7273H25.6562ZM21.7993 1.59763C22.8222 0.574704 24.2096 3.05176e-05 25.6562 3.05176e-05H42.0198C43.4665 3.05176e-05 44.8539 0.574704 45.8768 1.59763C46.8997 2.62056 47.4744 4.00794 47.4744 5.45458V16.3637C47.4744 17.8103 46.8997 19.1977 45.8768 20.2206C44.8539 21.2435 43.4665 21.8182 42.0198 21.8182H35.5794L29.0851 25.7148C28.6638 25.9676 28.1391 25.9742 27.7116 25.7321C27.2841 25.4901 27.0198 25.0368 27.0198 24.5455V21.8182H25.6562C24.2096 21.8182 22.8222 21.2435 21.7993 20.2206C20.7763 19.1977 20.2017 17.8103 20.2017 16.3637V5.45458C20.2017 4.00794 20.7763 2.62056 21.7993 1.59763ZM27.0198 8.18185C27.0198 7.42873 27.6304 6.81821 28.3835 6.81821H39.2926C40.0457 6.81821 40.6562 7.42873 40.6562 8.18185C40.6562 8.93496 40.0457 9.54548 39.2926 9.54548H28.3835C27.6304 9.54548 27.0198 8.93496 27.0198 8.18185ZM27.0198 13.6364C27.0198 12.8833 27.6304 12.2728 28.3835 12.2728H36.5653C37.3184 12.2728 37.9289 12.8833 37.9289 13.6364C37.9289 14.3895 37.3184 15 36.5653 15H28.3835C27.6304 15 27.0198 14.3895 27.0198 13.6364Z"
    fill="#00FF99" />
</svg>