<svg width="180" height="68" viewBox="0 0 180 68" fill="none" xmlns="http://www.w3.org/2000/svg">
  <g clip-path="url(#clip0_2611_1231)">
    <path
      d="M2.82495 43.3838C1.9388 43.3838 1.25405 43.1421 0.77069 42.6587C0.287333 42.1552 0.0456543 41.4503 0.0456543 40.544V24.3818C0.0456543 23.4554 0.287333 22.7505 0.77069 22.2671C1.25405 21.7838 1.9388 21.5421 2.82495 21.5421C3.73125 21.5421 4.416 21.7838 4.87922 22.2671C5.36258 22.7505 5.60426 23.4554 5.60426 24.3818V30.031H14.3953V24.3818C14.3953 23.4554 14.6269 22.7505 15.0901 22.2671C15.5735 21.7838 16.2683 21.5421 17.1746 21.5421C18.0608 21.5421 18.7354 21.7838 19.1987 22.2671C19.682 22.7505 19.9237 23.4554 19.9237 24.3818V40.544C19.9237 41.4503 19.682 42.1552 19.1987 42.6587C18.7354 43.1421 18.0608 43.3838 17.1746 43.3838C16.2683 43.3838 15.5735 43.1421 15.0901 42.6587C14.6269 42.1552 14.3953 41.4503 14.3953 40.544V34.5927H5.60426V40.544C5.60426 41.4503 5.37265 42.1552 4.90943 42.6587C4.44621 43.1421 3.75139 43.3838 2.82495 43.3838Z"
      fill="#6542F7" />
    <path
      d="M25.7884 43.1119C24.8418 43.1119 24.1168 42.8702 23.6133 42.3868C23.1299 41.8833 22.8883 41.1684 22.8883 40.2419V24.6839C22.8883 23.7575 23.1299 23.0526 23.6133 22.5692C24.1168 22.0657 24.8418 21.814 25.7884 21.814H36.0295C36.7546 21.814 37.2983 21.9952 37.6609 22.3577C38.0234 22.7203 38.2046 23.2439 38.2046 23.9287C38.2046 24.6336 38.0234 25.1773 37.6609 25.56C37.2983 25.9225 36.7546 26.1038 36.0295 26.1038H28.2052V30.1519H35.3649C36.0698 30.1519 36.6035 30.3331 36.966 30.6957C37.3487 31.0582 37.54 31.5919 37.54 32.2968C37.54 33.0017 37.3487 33.5354 36.966 33.8979C36.6035 34.2604 36.0698 34.4417 35.3649 34.4417H28.2052V38.8221H36.0295C36.7546 38.8221 37.2983 39.0134 37.6609 39.3961C38.0234 39.7586 38.2046 40.2822 38.2046 40.967C38.2046 41.6719 38.0234 42.2056 37.6609 42.5681C37.2983 42.9306 36.7546 43.1119 36.0295 43.1119H25.7884Z"
      fill="#6542F7" />
    <path
      d="M41.211 43.3838C40.5866 43.3838 40.063 43.2428 39.6401 42.9608C39.2171 42.6587 38.9553 42.2559 38.8546 41.7524C38.7539 41.2288 38.8445 40.6447 39.1265 40.0003L46.6487 23.8078C47.0113 23.0224 47.4543 22.4484 47.978 22.0859C48.5217 21.7233 49.136 21.5421 49.8208 21.5421C50.5055 21.5421 51.0997 21.7233 51.6031 22.0859C52.1268 22.4484 52.5799 23.0224 52.9626 23.8078L60.4848 40.0003C60.8071 40.6447 60.9178 41.2288 60.8171 41.7524C60.7366 42.2761 60.4848 42.6789 60.0619 42.9608C59.6591 43.2428 59.1556 43.3838 58.5514 43.3838C57.7458 43.3838 57.1215 43.2025 56.6784 42.84C56.2555 42.4775 55.8728 41.8934 55.5304 41.0878L53.8991 37.2512L56.0138 38.7919H43.5673L45.7122 37.2512L44.0809 41.0878C43.7184 41.8934 43.3458 42.4775 42.9631 42.84C42.5805 43.2025 41.9964 43.3838 41.211 43.3838ZM49.7603 27.6143L46.256 35.9824L45.4101 34.5323H54.2012L53.3553 35.9824L49.8208 27.6143H49.7603Z"
      fill="#6542F7" />
    <path
      d="M87.4744 43.3838C86.5882 43.3838 85.9035 43.1421 85.4201 42.6587C84.9367 42.1552 84.6951 41.4503 84.6951 40.544V24.3818C84.6951 23.4554 84.9367 22.7505 85.4201 22.2671C85.9035 21.7838 86.5882 21.5421 87.4744 21.5421C88.3807 21.5421 89.0654 21.7838 89.5286 22.2671C90.012 22.7505 90.2537 23.4554 90.2537 24.3818V40.544C90.2537 41.4503 90.0221 42.1552 89.5588 42.6587C89.0956 43.1421 88.4008 43.3838 87.4744 43.3838Z"
      fill="#6542F7" />
    <path
      d="M96.0093 43.3838C95.1232 43.3838 94.4284 43.1421 93.9249 42.6587C93.4415 42.1552 93.1998 41.4403 93.1998 40.5138V24.6839C93.1998 23.7575 93.4415 23.0526 93.9249 22.5692C94.4284 22.0657 95.1534 21.814 96.1 21.814H106.16C106.885 21.814 107.429 21.9952 107.791 22.3577C108.154 22.7203 108.335 23.2439 108.335 23.9287C108.335 24.6336 108.154 25.1773 107.791 25.56C107.429 25.9225 106.885 26.1038 106.16 26.1038H98.7584V30.3936H105.495C106.2 30.3936 106.734 30.5748 107.096 30.9373C107.479 31.2998 107.67 31.8235 107.67 32.5082C107.67 33.2131 107.479 33.7468 107.096 34.1094C106.734 34.4719 106.2 34.6531 105.495 34.6531H98.7584V40.5138C98.7584 42.4271 97.8421 43.3838 96.0093 43.3838Z"
      fill="#6542F7" />
    <path
      d="M117.789 43.3838C116.903 43.3838 116.218 43.1421 115.734 42.6587C115.251 42.1552 115.009 41.4403 115.009 40.5138V32.2364L116.157 35.2875L109.209 25.2881C108.867 24.8047 108.716 24.271 108.756 23.687C108.816 23.0828 109.058 22.5793 109.481 22.1765C109.924 21.7536 110.548 21.5421 111.354 21.5421C111.918 21.5421 112.432 21.6831 112.895 21.965C113.358 22.2268 113.791 22.68 114.194 23.3245L118.423 29.5477H117.336L121.565 23.2943C121.988 22.6498 122.421 22.1966 122.864 21.9348C123.307 21.673 123.831 21.5421 124.435 21.5421C125.2 21.5421 125.794 21.7334 126.217 22.1161C126.64 22.4987 126.862 22.9821 126.882 23.5661C126.922 24.1502 126.741 24.7443 126.338 25.3485L119.45 35.2875L120.568 32.2364V40.5138C120.568 42.4271 119.642 43.3838 117.789 43.3838Z"
      fill="#6542F7" />
    <path fill-rule="evenodd" clip-rule="evenodd"
      d="M137.404 13.1827C137.642 12.9136 137.832 12.488 137.832 11.958C137.832 11.4281 137.642 11.0025 137.404 10.7333C137.17 10.469 136.927 10.3846 136.731 10.3846C136.534 10.3846 136.291 10.469 136.057 10.7333C135.819 11.0025 135.629 11.4281 135.629 11.958C135.629 12.488 135.819 12.9136 136.057 13.1827C136.291 13.4471 136.534 13.5315 136.731 13.5315C136.927 13.5315 137.17 13.4471 137.404 13.1827ZM140.35 11.958C140.35 13.6493 139.442 15.1009 138.147 15.7239V23.2867H138.703C139.708 18.7847 143.727 15.4196 148.531 15.4196H154.281C156.241 15.4196 152.109 17.2829 155.454 18.2517C155.769 18.7238 161.345 22.6884 161.928 22.8147C164.71 23.4181 169.27 20.8692 171.503 20.6119C173.768 20.3509 173.706 22.028 173.939 23.2867H177.482C178.873 23.2867 180 24.4138 180 25.8042V35.8741C180 37.2645 178.873 38.3916 177.482 38.3916H173.706L173.704 38.3916C172.586 42.7348 168.643 45.944 163.951 45.944H148.531C143.839 45.944 139.897 42.7348 138.779 38.3916L138.776 38.3916H135C133.61 38.3916 132.482 37.2645 132.482 35.8741V25.8042C132.482 24.4138 133.61 23.2867 135 23.2867H135.629L135.629 15.856C134.169 15.3293 133.112 13.7832 133.112 11.958C133.112 9.69869 134.732 7.86713 136.731 7.86713C138.729 7.86713 140.35 9.69869 140.35 11.958ZM155.454 18.2517H148.531C144.534 18.2517 141.294 21.4922 141.294 25.4895V25.8042V35.8741C141.294 39.8714 144.534 43.1119 148.531 43.1119H163.951C167.948 43.1119 171.189 39.8714 171.189 35.8741V25.8042V25.4895C171.189 24.4502 171.346 22.1853 169.93 21.3986C168.139 20.8636 165.202 22.1159 162.692 22.1853C160.749 22.2391 159.03 21.8391 157.657 21.0839C156.095 20.7906 156.919 18.6759 155.454 18.2517ZM174.021 35.5594H177.168V26.1189H174.021V35.5594ZM135.315 26.1189H138.461V35.5594H135.315V26.1189ZM148.165 29.4228C148.092 29.5095 148.026 29.6025 147.968 29.7006C147.872 29.863 147.761 30.0257 147.638 30.1754C147.329 30.5481 146.937 30.8392 146.467 30.8392C145.808 30.8392 145.26 30.298 145.409 29.6561C145.508 29.2326 145.659 28.8263 145.859 28.4491C145.932 28.311 146.011 28.1769 146.097 28.0473C146.175 27.9288 146.258 27.814 146.347 27.7034C146.402 27.6344 146.459 27.567 146.518 27.5014C147.315 26.6162 148.395 26.1189 149.522 26.1189C150.649 26.1189 151.729 26.6162 152.526 27.5014C152.585 27.5671 152.642 27.6344 152.697 27.7034C152.786 27.814 152.869 27.9288 152.948 28.0473C153.033 28.1769 153.113 28.311 153.185 28.4491C153.385 28.8263 153.536 29.2326 153.635 29.6561C153.784 30.298 153.236 30.8392 152.577 30.8392C152.107 30.8392 151.715 30.5481 151.406 30.1754C151.283 30.0258 151.172 29.863 151.076 29.7006C151.018 29.6025 150.952 29.5095 150.879 29.4228C150.865 29.4072 150.852 29.3918 150.838 29.3766C150.778 29.3099 150.715 29.2483 150.648 29.1919C150.326 28.9202 149.931 28.7708 149.522 28.7708C149.113 28.7708 148.718 28.9202 148.396 29.1919C148.329 29.2483 148.266 29.3099 148.206 29.3766C148.192 29.3918 148.179 29.4072 148.165 29.4228ZM158.691 35.678C158.859 35.5411 159.031 35.4078 159.208 35.2925C159.533 35.0809 159.875 34.9301 160.241 34.9301C161.071 34.9301 161.77 35.6349 161.402 36.3786C161.149 36.8896 160.762 37.3611 160.259 37.7621C160.243 37.7748 160.227 37.7875 160.211 37.8001C160.201 37.8077 160.191 37.8152 160.181 37.8228C159.997 37.9634 159.801 38.0928 159.595 38.2103C158.677 38.7335 157.557 39.021 156.399 39.021C155.24 39.021 154.12 38.7335 153.202 38.2103C152.996 38.0928 152.8 37.9634 152.616 37.8228C152.59 37.8027 152.564 37.7825 152.538 37.7621C152.035 37.3611 151.648 36.8896 151.395 36.3786C151.027 35.6349 151.726 34.9301 152.556 34.9301C152.922 34.9301 153.264 35.0809 153.589 35.2925C153.766 35.4078 153.938 35.5411 154.106 35.678C154.137 35.7032 154.167 35.7285 154.198 35.7539C154.242 35.7906 154.286 35.8274 154.33 35.864C154.47 35.9804 154.606 36.0946 154.741 36.1976C155.181 36.5338 155.777 36.7226 156.399 36.7226C157.02 36.7226 157.616 36.5338 158.056 36.1976C158.191 36.0946 158.327 35.9805 158.467 35.8641L158.539 35.8035L158.563 35.784L158.599 35.7539C158.63 35.7285 158.661 35.7032 158.691 35.678ZM161.499 29.7006C161.558 29.6025 161.624 29.5095 161.697 29.4228C161.71 29.4072 161.724 29.3918 161.737 29.3766C161.797 29.3099 161.861 29.2483 161.928 29.1919C162.25 28.9202 162.645 28.7708 163.053 28.7708C163.462 28.7708 163.857 28.9202 164.179 29.1919C164.246 29.2483 164.31 29.3099 164.37 29.3766C164.383 29.3918 164.397 29.4072 164.41 29.4228C164.483 29.5095 164.549 29.6025 164.608 29.7006C164.704 29.863 164.814 30.0258 164.938 30.1754C165.246 30.5481 165.638 30.8392 166.108 30.8392C166.767 30.8392 167.316 30.298 167.166 29.6561C167.067 29.2326 166.916 28.8263 166.717 28.4491C166.644 28.311 166.565 28.1769 166.479 28.0473C166.401 27.9288 166.317 27.814 166.229 27.7034C166.174 27.6344 166.117 27.5671 166.057 27.5014C165.261 26.6162 164.18 26.1189 163.053 26.1189C161.927 26.1189 160.846 26.6162 160.05 27.5014C159.99 27.567 159.933 27.6344 159.878 27.7034C159.79 27.814 159.706 27.9288 159.628 28.0473C159.542 28.1769 159.463 28.311 159.39 28.4491C159.191 28.8263 159.04 29.2326 158.941 29.6561C158.791 30.298 159.34 30.8392 159.999 30.8392C160.469 30.8392 160.861 30.5481 161.169 30.1754C161.293 30.0257 161.403 29.863 161.499 29.7006Z"
      fill="#6542F7" />
    <path fill-rule="evenodd" clip-rule="evenodd"
      d="M157.656 2.7273C156.933 2.7273 156.239 3.01464 155.728 3.5261C155.216 4.03757 154.929 4.73126 154.929 5.45458V16.3637C154.929 17.087 155.216 17.7807 155.728 18.2921C156.239 18.8036 156.933 19.0909 157.656 19.0909H160.383C161.137 19.0909 161.747 19.7015 161.747 20.4546V22.137L166.5 19.2853C166.712 19.1581 166.955 19.0909 167.202 19.0909H174.02C174.743 19.0909 175.437 18.8036 175.948 18.2921C176.46 17.7807 176.747 17.087 176.747 16.3637V5.45458C176.747 4.73126 176.46 4.03757 175.948 3.5261C175.437 3.01464 174.743 2.7273 174.02 2.7273H157.656ZM153.799 1.59763C154.822 0.574704 156.21 3.05176e-05 157.656 3.05176e-05H174.02C175.466 3.05176e-05 176.854 0.574704 177.877 1.59763C178.9 2.62056 179.474 4.00794 179.474 5.45458V16.3637C179.474 17.8103 178.9 19.1977 177.877 20.2206C176.854 21.2435 175.466 21.8182 174.02 21.8182H167.579L161.085 25.7148C160.664 25.9676 160.139 25.9742 159.712 25.7321C159.284 25.4901 159.02 25.0368 159.02 24.5455V21.8182H157.656C156.21 21.8182 154.822 21.2435 153.799 20.2206C152.776 19.1977 152.202 17.8103 152.202 16.3637V5.45458C152.202 4.00794 152.776 2.62056 153.799 1.59763ZM159.02 8.18185C159.02 7.42873 159.63 6.81821 160.383 6.81821H171.293C172.046 6.81821 172.656 7.42873 172.656 8.18185C172.656 8.93496 172.046 9.54548 171.293 9.54548H160.383C159.63 9.54548 159.02 8.93496 159.02 8.18185ZM159.02 13.6364C159.02 12.8833 159.63 12.2728 160.383 12.2728H168.565C169.318 12.2728 169.929 12.8833 169.929 13.6364C169.929 14.3895 169.318 15 168.565 15H160.383C159.63 15 159.02 14.3895 159.02 13.6364Z"
      fill="#00FF99" />
    <path fill-rule="evenodd" clip-rule="evenodd"
      d="M64.0217 42.6587C64.505 43.1421 65.1898 43.3838 66.0759 43.3838C67.0024 43.3838 67.6972 43.1421 68.1604 42.6587C68.6236 42.1552 68.8552 41.4604 68.8552 40.5742V35.1667H70.5168C71.0001 35.1667 71.4231 35.2573 71.7856 35.4386C72.1682 35.5997 72.4804 35.9018 72.7221 36.3449L75.4712 41.3899C75.8538 42.0747 89.5275 66.2412 89.9543 66.5446C89.9823 66.5823 90.013 66.6189 90.046 66.6545C90.7645 67.582 92.0755 67.8593 93.1198 67.2564C94.2596 66.5983 94.6501 65.1409 93.9921 64.0011L90.9722 58.7705C87.0323 51.4883 80.9153 40.1837 80.6975 39.7888L79.187 37.0699C78.7439 36.224 78.1901 35.5997 77.5254 35.1969C77.2116 34.9972 76.8752 34.8446 76.5164 34.7392C76.9192 34.6259 77.2959 34.4865 77.6463 34.3208C78.7741 33.777 79.6301 33.0117 80.2141 32.0249C80.8183 31.0179 81.1204 29.8397 81.1204 28.4903C81.1204 26.3958 80.4558 24.7645 79.1266 23.5963C77.8175 22.4081 75.9545 21.814 73.5378 21.814H66.1061C65.22 21.814 64.5252 22.0556 64.0217 22.539C63.5383 23.0224 63.2966 23.7172 63.2966 24.6235V40.5742C63.2966 41.4604 63.5383 42.1552 64.0217 42.6587ZM72.5408 31.2394H68.8552V26.0735H72.5408C73.6082 26.0735 74.4239 26.2951 74.9878 26.7382C75.5517 27.1611 75.8337 27.7955 75.8337 28.6414C75.8337 29.5275 75.5517 30.1821 74.9878 30.605C74.4239 31.028 73.6082 31.2394 72.5408 31.2394Z"
      fill="#00FF99" />
  </g>
  <defs>
    <clipPath id="clip0_2611_1231">
      <rect width="180" height="68" fill="white" />
    </clipPath>
  </defs>
</svg>