<svg width="25" height="24" viewBox="0 0 25 24" fill="none" xmlns="http://www.w3.org/2000/svg">
<path d="M11 6L20.75 6M11 6C11 6.82843 10.3284 7.5 9.5 7.5C8.67157 7.5 8 6.82843 8 6M11 6C11 5.17157 10.3284 4.5 9.5 4.5C8.67157 4.5 8 5.17157 8 6M4.25 6H8M11 18H20.75M11 18C11 18.8284 10.3284 19.5 9.5 19.5C8.67157 19.5 8 18.8284 8 18M11 18C11 17.1716 10.3284 16.5 9.5 16.5C8.67157 16.5 8 17.1716 8 18M4.25 18L8 18M17 12L20.75 12M17 12C17 12.8284 16.3284 13.5 15.5 13.5C14.6716 13.5 14 12.8284 14 12M17 12C17 11.1716 16.3284 10.5 15.5 10.5C14.6716 10.5 14 11.1716 14 12M4.25 12H14" stroke="#6444F4" stroke-width="1.5" stroke-linecap="round" stroke-linejoin="round"/>
</svg>
