<svg width="25" height="24" viewBox="0 0 25 24" fill="none" xmlns="http://www.w3.org/2000/svg">
<path d="M20.75 6.375C20.75 8.65317 17.0563 10.5 12.5 10.5C7.94365 10.5 4.25 8.65317 4.25 6.375M20.75 6.375C20.75 4.09683 17.0563 2.25 12.5 2.25C7.94365 2.25 4.25 4.09683 4.25 6.375M20.75 6.375V17.625C20.75 19.9032 17.0563 21.75 12.5 21.75C7.94365 21.75 4.25 19.9032 4.25 17.625V6.375M20.75 6.375V10.125M4.25 6.375V10.125M20.75 10.125V13.875C20.75 16.1532 17.0563 18 12.5 18C7.94365 18 4.25 16.1532 4.25 13.875V10.125M20.75 10.125C20.75 12.4032 17.0563 14.25 12.5 14.25C7.94365 14.25 4.25 12.4032 4.25 10.125" stroke="#6444F4" stroke-width="1.5" stroke-linecap="round" stroke-linejoin="round"/>
</svg>
