
<svg width="35" height="42" viewBox="0 0 35 42" fill="none" xmlns="http://www.w3.org/2000/svg">
<path d="M34 9.75C34 14.3063 26.6127 18 17.5 18C8.3873 18 1 14.3063 1 9.75M34 9.75C34 5.19365 26.6127 1.5 17.5 1.5C8.3873 1.5 1 5.19365 1 9.75M34 9.75V32.25C34 36.8064 26.6127 40.5 17.5 40.5C8.3873 40.5 1 36.8064 1 32.25V9.75M34 9.75V17.25M1 9.75V17.25M34 17.25V24.75C34 29.3063 26.6127 33 17.5 33C8.3873 33 1 29.3063 1 24.75V17.25M34 17.25C34 21.8063 26.6127 25.5 17.5 25.5C8.3873 25.5 1 21.8063 1 17.25" stroke="#6444F4" stroke-width="2" stroke-linecap="round" stroke-linejoin="round"/>
</svg>
