<svg width="25" height="24" viewBox="0 0 25 24" fill="none" xmlns="http://www.w3.org/2000/svg">
<path d="M4.25 3V14.25C4.25 15.4926 5.25736 16.5 6.5 16.5H8.75M4.25 3H2.75M4.25 3H20.75M20.75 3H22.25M20.75 3V14.25C20.75 15.4926 19.7426 16.5 18.5 16.5H16.25M8.75 16.5H16.25M8.75 16.5L7.75 19.5M16.25 16.5L17.25 19.5M17.25 19.5L17.75 21M17.25 19.5H7.75M7.75 19.5L7.25 21M8 12L11 9L13.1476 11.1476C14.1542 9.70301 15.4704 8.49023 17 7.60539" stroke="#6444F4" stroke-width="1.5" stroke-linecap="round" stroke-linejoin="round"/>
</svg>
